G04 #@! TF.GenerationSoftware,KiCad,Pcbnew,6.0.1*
G04 #@! TF.CreationDate,2022-02-14T19:14:04-08:00*
G04 #@! TF.ProjectId,BREAKOUT-ATF1508AS,42524541-4b4f-4555-942d-415446313530,rev?*
G04 #@! TF.SameCoordinates,Original*
G04 #@! TF.FileFunction,Copper,L1,Top*
G04 #@! TF.FilePolarity,Positive*
%FSLAX46Y46*%
G04 Gerber Fmt 4.6, Leading zero omitted, Abs format (unit mm)*
G04 Created by KiCad (PCBNEW 6.0.1) date 2022-02-14 19:14:04*
%MOMM*%
%LPD*%
G01*
G04 APERTURE LIST*
G04 Aperture macros list*
%AMRoundRect*
0 Rectangle with rounded corners*
0 $1 Rounding radius*
0 $2 $3 $4 $5 $6 $7 $8 $9 X,Y pos of 4 corners*
0 Add a 4 corners polygon primitive as box body*
4,1,4,$2,$3,$4,$5,$6,$7,$8,$9,$2,$3,0*
0 Add four circle primitives for the rounded corners*
1,1,$1+$1,$2,$3*
1,1,$1+$1,$4,$5*
1,1,$1+$1,$6,$7*
1,1,$1+$1,$8,$9*
0 Add four rect primitives between the rounded corners*
20,1,$1+$1,$2,$3,$4,$5,0*
20,1,$1+$1,$4,$5,$6,$7,0*
20,1,$1+$1,$6,$7,$8,$9,0*
20,1,$1+$1,$8,$9,$2,$3,0*%
G04 Aperture macros list end*
G04 #@! TA.AperFunction,SMDPad,CuDef*
%ADD10RoundRect,0.237500X-0.250000X-0.237500X0.250000X-0.237500X0.250000X0.237500X-0.250000X0.237500X0*%
G04 #@! TD*
G04 #@! TA.AperFunction,ComponentPad*
%ADD11R,1.700000X1.700000*%
G04 #@! TD*
G04 #@! TA.AperFunction,ComponentPad*
%ADD12O,1.700000X1.700000*%
G04 #@! TD*
G04 #@! TA.AperFunction,SMDPad,CuDef*
%ADD13R,1.000000X1.000000*%
G04 #@! TD*
G04 #@! TA.AperFunction,SMDPad,CuDef*
%ADD14RoundRect,0.250001X-0.849999X0.462499X-0.849999X-0.462499X0.849999X-0.462499X0.849999X0.462499X0*%
G04 #@! TD*
G04 #@! TA.AperFunction,SMDPad,CuDef*
%ADD15RoundRect,0.237500X0.250000X0.237500X-0.250000X0.237500X-0.250000X-0.237500X0.250000X-0.237500X0*%
G04 #@! TD*
G04 #@! TA.AperFunction,SMDPad,CuDef*
%ADD16RoundRect,0.237500X-0.237500X0.300000X-0.237500X-0.300000X0.237500X-0.300000X0.237500X0.300000X0*%
G04 #@! TD*
G04 #@! TA.AperFunction,SMDPad,CuDef*
%ADD17RoundRect,0.150000X0.150000X-0.512500X0.150000X0.512500X-0.150000X0.512500X-0.150000X-0.512500X0*%
G04 #@! TD*
G04 #@! TA.AperFunction,ComponentPad*
%ADD18R,1.422400X1.422400*%
G04 #@! TD*
G04 #@! TA.AperFunction,ComponentPad*
%ADD19C,1.422400*%
G04 #@! TD*
G04 #@! TA.AperFunction,ComponentPad*
%ADD20R,1.600000X1.600000*%
G04 #@! TD*
G04 #@! TA.AperFunction,ComponentPad*
%ADD21C,1.600000*%
G04 #@! TD*
G04 #@! TA.AperFunction,ViaPad*
%ADD22C,0.600000*%
G04 #@! TD*
G04 #@! TA.AperFunction,Conductor*
%ADD23C,0.254000*%
G04 #@! TD*
G04 #@! TA.AperFunction,Conductor*
%ADD24C,0.508000*%
G04 #@! TD*
G04 APERTURE END LIST*
D10*
X102075000Y-94290000D03*
X103900000Y-94290000D03*
X102077500Y-95810000D03*
X103902500Y-95810000D03*
D11*
X153330000Y-71400000D03*
D12*
X150790000Y-71400000D03*
X148250000Y-71400000D03*
X145710000Y-71400000D03*
X143170000Y-71400000D03*
X140630000Y-71400000D03*
D13*
X100325000Y-94270000D03*
X100325000Y-91770000D03*
D14*
X99925000Y-87670000D03*
X99925000Y-89995000D03*
D15*
X103892500Y-92300000D03*
X102067500Y-92300000D03*
D16*
X105550000Y-87820000D03*
X105550000Y-89545000D03*
D11*
X106510000Y-101940000D03*
D12*
X106510000Y-99400000D03*
X106510000Y-96860000D03*
D17*
X102105000Y-89967500D03*
X103055000Y-89967500D03*
X104005000Y-89967500D03*
X104005000Y-87692500D03*
X102105000Y-87692500D03*
D11*
X113720000Y-78860000D03*
D12*
X113720000Y-76320000D03*
X113720000Y-73780000D03*
D16*
X100330000Y-95867500D03*
X100330000Y-97592500D03*
D11*
X100005000Y-119000000D03*
D12*
X100005000Y-116460000D03*
X102545000Y-119000000D03*
X102545000Y-116460000D03*
X105085000Y-119000000D03*
X105085000Y-116460000D03*
X107625000Y-119000000D03*
X107625000Y-116460000D03*
X110165000Y-119000000D03*
X110165000Y-116460000D03*
X112705000Y-119000000D03*
X112705000Y-116460000D03*
X115245000Y-119000000D03*
X115245000Y-116460000D03*
X117785000Y-119000000D03*
X117785000Y-116460000D03*
X120325000Y-119000000D03*
X120325000Y-116460000D03*
X122865000Y-119000000D03*
X122865000Y-116460000D03*
X125405000Y-119000000D03*
X125405000Y-116460000D03*
X127945000Y-119000000D03*
X127945000Y-116460000D03*
X130485000Y-119000000D03*
X130485000Y-116460000D03*
X133025000Y-119000000D03*
X133025000Y-116460000D03*
X135565000Y-119000000D03*
X135565000Y-116460000D03*
X138105000Y-119000000D03*
X138105000Y-116460000D03*
X140645000Y-119000000D03*
X140645000Y-116460000D03*
X143185000Y-119000000D03*
X143185000Y-116460000D03*
X145725000Y-119000000D03*
X145725000Y-116460000D03*
X148265000Y-119000000D03*
X148265000Y-116460000D03*
X150805000Y-119000000D03*
X150805000Y-116460000D03*
X153345000Y-119000000D03*
X153345000Y-116460000D03*
X155885000Y-119000000D03*
X155885000Y-116460000D03*
X158425000Y-119000000D03*
X158425000Y-116460000D03*
X160965000Y-119000000D03*
X160965000Y-116460000D03*
X163505000Y-119000000D03*
X163505000Y-116460000D03*
X166045000Y-119000000D03*
X166045000Y-116460000D03*
X168585000Y-119000000D03*
X168585000Y-116460000D03*
X171125000Y-119000000D03*
X171125000Y-116460000D03*
X173665000Y-119000000D03*
X173665000Y-116460000D03*
X176205000Y-119000000D03*
X176205000Y-116460000D03*
X178745000Y-119000000D03*
X178745000Y-116460000D03*
X181285000Y-119000000D03*
X181285000Y-116460000D03*
X183825000Y-119000000D03*
X183825000Y-116460000D03*
X186365000Y-119000000D03*
X186365000Y-116460000D03*
X188905000Y-119000000D03*
X188905000Y-116460000D03*
X191445000Y-119000000D03*
X191445000Y-116460000D03*
X193985000Y-119000000D03*
X193985000Y-116460000D03*
D18*
X131740000Y-91770000D03*
D19*
X134280000Y-91770000D03*
X131740000Y-94310000D03*
X134280000Y-94310000D03*
X131740000Y-96850000D03*
X134280000Y-96850000D03*
X131740000Y-99390000D03*
X134280000Y-99390000D03*
X131740000Y-101930000D03*
X134280000Y-101930000D03*
X131740000Y-104470000D03*
X134280000Y-107010000D03*
X134280000Y-104470000D03*
X136820000Y-107010000D03*
X136820000Y-104470000D03*
X139360000Y-107010000D03*
X139360000Y-104470000D03*
X141900000Y-107010000D03*
X141900000Y-104470000D03*
X144440000Y-107010000D03*
X144440000Y-104470000D03*
X146980000Y-107010000D03*
X146980000Y-104470000D03*
X149520000Y-107010000D03*
X149520000Y-104470000D03*
X152060000Y-107010000D03*
X152060000Y-104470000D03*
X154600000Y-107010000D03*
X154600000Y-104470000D03*
X157140000Y-107010000D03*
X157140000Y-104470000D03*
X159680000Y-107010000D03*
X162220000Y-104470000D03*
X159680000Y-104470000D03*
X162220000Y-101930000D03*
X159680000Y-101930000D03*
X162220000Y-99390000D03*
X159680000Y-99390000D03*
X162220000Y-96850000D03*
X159680000Y-96850000D03*
X162220000Y-94310000D03*
X159680000Y-94310000D03*
X162220000Y-91770000D03*
X159680000Y-91770000D03*
X162220000Y-89230000D03*
X159680000Y-89230000D03*
X162220000Y-86690000D03*
X159680000Y-86690000D03*
X162220000Y-84150000D03*
X159680000Y-84150000D03*
X162220000Y-81610000D03*
X159680000Y-81610000D03*
X162220000Y-79070000D03*
X159680000Y-76530000D03*
X159680000Y-79070000D03*
X157140000Y-76530000D03*
X157140000Y-79070000D03*
X154600000Y-76530000D03*
X154600000Y-79070000D03*
X152060000Y-76530000D03*
X152060000Y-79070000D03*
X149520000Y-76530000D03*
X149520000Y-79070000D03*
X146980000Y-76530000D03*
X146980000Y-79070000D03*
X144440000Y-76530000D03*
X144440000Y-79070000D03*
X141900000Y-76530000D03*
X141900000Y-79070000D03*
X139360000Y-76530000D03*
X139360000Y-79070000D03*
X136820000Y-76530000D03*
X136820000Y-79070000D03*
X134280000Y-76530000D03*
X131740000Y-79070000D03*
X134280000Y-79070000D03*
X131740000Y-81610000D03*
X134280000Y-81610000D03*
X131740000Y-84150000D03*
X134280000Y-84150000D03*
X131740000Y-86690000D03*
X134280000Y-86690000D03*
X131740000Y-89230000D03*
X134280000Y-89230000D03*
D20*
X101360000Y-74770000D03*
D21*
X101360000Y-82390000D03*
X108980000Y-82390000D03*
X108980000Y-74770000D03*
D22*
X131730000Y-110620000D03*
X145700000Y-83710000D03*
X127050000Y-94960000D03*
X166710000Y-98150000D03*
X105560000Y-90670000D03*
X131430000Y-75680000D03*
X105190000Y-75850000D03*
X166620000Y-92760000D03*
X154250000Y-110280000D03*
X103060000Y-91220000D03*
X100330000Y-98720000D03*
X162530000Y-75690000D03*
X107630000Y-108300000D03*
X127750000Y-82890000D03*
X161350000Y-98150000D03*
X131730000Y-105980000D03*
X110165000Y-97395000D03*
X112705000Y-95305000D03*
X99940000Y-86300000D03*
X105560000Y-86290000D03*
X104310000Y-86290000D03*
X103000000Y-86290000D03*
X101460000Y-86300000D03*
X115250000Y-84150000D03*
X117780000Y-81630000D03*
X120330000Y-80340000D03*
X122860000Y-79070000D03*
X125410000Y-77720000D03*
X168585000Y-79035000D03*
X171100000Y-80340000D03*
X173680000Y-81610000D03*
X176210000Y-82870000D03*
X178750000Y-84150000D03*
X181285000Y-97425000D03*
X183825000Y-102865000D03*
X186370000Y-108280000D03*
X188905000Y-113455000D03*
X145705000Y-75525000D03*
D23*
X103805000Y-117720000D02*
X103805000Y-114655000D01*
X120420000Y-91770000D02*
X121040000Y-91770000D01*
X119090000Y-99370000D02*
X119090000Y-93100000D01*
X131740000Y-91770000D02*
X121040000Y-91770000D01*
X119090000Y-93100000D02*
X120420000Y-91770000D01*
X103805000Y-114655000D02*
X119090000Y-99370000D01*
X105085000Y-119000000D02*
X103805000Y-117720000D01*
X106360000Y-117735000D02*
X106360000Y-114650000D01*
X132975000Y-93075000D02*
X121575000Y-93075000D01*
X107625000Y-119000000D02*
X106360000Y-117735000D01*
X134280000Y-91770000D02*
X132975000Y-93075000D01*
X120330000Y-100680000D02*
X120330000Y-94320000D01*
X106360000Y-114650000D02*
X120330000Y-100680000D01*
X120330000Y-94320000D02*
X121575000Y-93075000D01*
X108880000Y-114650000D02*
X108880000Y-117715000D01*
X121640000Y-101890000D02*
X108880000Y-114650000D01*
X133015000Y-95575000D02*
X122875000Y-95575000D01*
X121640000Y-96810000D02*
X121640000Y-101890000D01*
X134280000Y-94310000D02*
X133015000Y-95575000D01*
X108880000Y-117715000D02*
X110165000Y-119000000D01*
X122875000Y-95575000D02*
X121640000Y-96810000D01*
X116500000Y-96780000D02*
X116500000Y-89310000D01*
X110900000Y-99400000D02*
X113880000Y-99400000D01*
X133020000Y-87970000D02*
X134010932Y-88960932D01*
X117840000Y-87970000D02*
X118480000Y-87970000D01*
X114220000Y-99060000D02*
X116500000Y-96780000D01*
X116500000Y-89310000D02*
X117840000Y-87970000D01*
X106510000Y-99400000D02*
X110900000Y-99400000D01*
X113880000Y-99400000D02*
X114220000Y-99060000D01*
X118480000Y-87970000D02*
X133020000Y-87970000D01*
D24*
X105550000Y-90660000D02*
X105560000Y-90670000D01*
X103055000Y-89967500D02*
X103055000Y-91215000D01*
D23*
X100330000Y-97592500D02*
X100330000Y-98720000D01*
D24*
X103055000Y-91215000D02*
X103060000Y-91220000D01*
X103060000Y-91220000D02*
X103060000Y-91307500D01*
X105550000Y-89545000D02*
X105550000Y-90660000D01*
X103060000Y-91307500D02*
X102067500Y-92300000D01*
D23*
X108980000Y-106950000D02*
X111535000Y-104395000D01*
X116660000Y-82890000D02*
X116450000Y-82680000D01*
X131740000Y-89230000D02*
X119420000Y-89230000D01*
X119070000Y-89230000D02*
X119420000Y-89230000D01*
X127750000Y-82890000D02*
X116660000Y-82890000D01*
X116160000Y-82390000D02*
X108980000Y-82390000D01*
X111535000Y-104395000D02*
X117780000Y-98150000D01*
X117780000Y-98150000D02*
X117780000Y-90520000D01*
X107630000Y-108300000D02*
X108980000Y-106950000D01*
X116450000Y-82680000D02*
X116160000Y-82390000D01*
X117780000Y-90520000D02*
X119070000Y-89230000D01*
X160920000Y-98150000D02*
X161350000Y-98150000D01*
X159680000Y-99390000D02*
X160920000Y-98150000D01*
X113295000Y-97395000D02*
X110165000Y-97395000D01*
X116600000Y-86690000D02*
X115250000Y-88040000D01*
X115250000Y-95440000D02*
X113295000Y-97395000D01*
X115250000Y-89940000D02*
X115250000Y-95440000D01*
X131740000Y-86690000D02*
X116600000Y-86690000D01*
X115250000Y-88040000D02*
X115250000Y-89940000D01*
X115250000Y-85440000D02*
X113990000Y-86700000D01*
X132990000Y-85440000D02*
X115250000Y-85440000D01*
X113990000Y-94020000D02*
X112705000Y-95305000D01*
X134280000Y-84150000D02*
X132990000Y-85440000D01*
X113990000Y-86700000D02*
X113990000Y-94020000D01*
D24*
X99925000Y-87670000D02*
X102082500Y-87670000D01*
X102082500Y-87670000D02*
X102105000Y-87692500D01*
X104005000Y-87692500D02*
X105422500Y-87692500D01*
X105422500Y-87692500D02*
X105550000Y-87820000D01*
X102105000Y-87692500D02*
X104005000Y-87692500D01*
D23*
X111430000Y-117725000D02*
X112705000Y-119000000D01*
X131740000Y-96850000D02*
X124290000Y-96850000D01*
X111430000Y-114650000D02*
X111430000Y-117725000D01*
X124290000Y-96850000D02*
X122870000Y-98270000D01*
X122870000Y-98270000D02*
X122870000Y-103210000D01*
X122870000Y-103210000D02*
X111430000Y-114650000D01*
X120435000Y-108175000D02*
X120430000Y-108175000D01*
X113955000Y-117710000D02*
X115245000Y-119000000D01*
X120430000Y-108175000D02*
X113955000Y-114650000D01*
X113955000Y-114650000D02*
X113955000Y-117710000D01*
X134280000Y-96850000D02*
X133030000Y-98100000D01*
X124160000Y-99340000D02*
X124160000Y-104450000D01*
X124160000Y-104450000D02*
X120435000Y-108175000D01*
X125400000Y-98100000D02*
X124160000Y-99340000D01*
X133030000Y-98100000D02*
X125400000Y-98100000D01*
X131740000Y-84150000D02*
X115250000Y-84150000D01*
X117800000Y-81610000D02*
X117780000Y-81630000D01*
X130010000Y-81610000D02*
X117800000Y-81610000D01*
X131740000Y-81610000D02*
X130010000Y-81610000D01*
X120340000Y-80350000D02*
X120330000Y-80340000D01*
X134280000Y-79070000D02*
X133000000Y-80350000D01*
X133000000Y-80350000D02*
X120340000Y-80350000D01*
X124140000Y-79070000D02*
X122860000Y-79070000D01*
X124140000Y-79070000D02*
X131740000Y-79070000D01*
X125420000Y-77730000D02*
X125410000Y-77720000D01*
X134280000Y-76530000D02*
X133080000Y-77730000D01*
X133080000Y-77730000D02*
X125420000Y-77730000D01*
X127890000Y-100690000D02*
X126920000Y-100690000D01*
X126920000Y-100690000D02*
X125400000Y-102210000D01*
X124047500Y-107112500D02*
X124042500Y-107112500D01*
X132995000Y-100675000D02*
X127905000Y-100675000D01*
X125400000Y-105760000D02*
X124047500Y-107112500D01*
X124042500Y-107112500D02*
X116505000Y-114650000D01*
X116505000Y-117720000D02*
X117785000Y-119000000D01*
X134280000Y-99390000D02*
X132995000Y-100675000D01*
X127905000Y-100675000D02*
X127890000Y-100690000D01*
X125400000Y-102210000D02*
X125400000Y-105760000D01*
X116505000Y-114650000D02*
X116505000Y-117720000D01*
X119055000Y-114650000D02*
X119055000Y-117730000D01*
X119055000Y-117730000D02*
X120325000Y-119000000D01*
X127970000Y-101930000D02*
X126940000Y-102960000D01*
X126940000Y-106765000D02*
X119055000Y-114650000D01*
X131740000Y-101930000D02*
X127970000Y-101930000D01*
X126940000Y-102960000D02*
X126940000Y-106765000D01*
X121555000Y-117690000D02*
X122865000Y-119000000D01*
X128450000Y-107755000D02*
X121555000Y-114650000D01*
X134280000Y-101930000D02*
X132985000Y-103225000D01*
X121555000Y-114650000D02*
X121555000Y-117690000D01*
X128475000Y-107755000D02*
X128450000Y-107755000D01*
X129220000Y-104290000D02*
X129220000Y-107010000D01*
X130285000Y-103225000D02*
X129220000Y-104290000D01*
X129220000Y-107010000D02*
X128475000Y-107755000D01*
X132985000Y-103225000D02*
X130285000Y-103225000D01*
X124130000Y-114650000D02*
X124130000Y-117725000D01*
X124130000Y-117725000D02*
X125405000Y-119000000D01*
X130525000Y-108255000D02*
X124130000Y-114650000D01*
X130525000Y-108255000D02*
X130525000Y-105685000D01*
X130525000Y-105685000D02*
X131740000Y-104470000D01*
X126680000Y-117735000D02*
X127945000Y-119000000D01*
X126680000Y-114610000D02*
X126680000Y-117735000D01*
X134280000Y-107010000D02*
X126680000Y-114610000D01*
X135570000Y-105760000D02*
X135570000Y-103150000D01*
X136820000Y-107010000D02*
X129180000Y-114650000D01*
X135570000Y-103150000D02*
X141900000Y-96820000D01*
X141900000Y-96820000D02*
X141900000Y-81380000D01*
X145710000Y-72870000D02*
X145710000Y-71400000D01*
X136820000Y-107010000D02*
X135570000Y-105760000D01*
X129180000Y-117695000D02*
X129180000Y-114650000D01*
X130485000Y-119000000D02*
X129180000Y-117695000D01*
X143170000Y-80110000D02*
X143170000Y-75410000D01*
X141900000Y-81380000D02*
X143170000Y-80110000D01*
X143170000Y-75410000D02*
X145710000Y-72870000D01*
X131755000Y-114650000D02*
X131755000Y-117730000D01*
X131755000Y-117730000D02*
X133025000Y-119000000D01*
X136820000Y-104470000D02*
X138105000Y-105755000D01*
X138105000Y-108300000D02*
X131755000Y-114650000D01*
X138105000Y-108300000D02*
X138105000Y-105755000D01*
X139360000Y-109595000D02*
X134305000Y-114650000D01*
X134305000Y-114650000D02*
X134305000Y-117740000D01*
X134305000Y-117740000D02*
X135565000Y-119000000D01*
X139360000Y-109595000D02*
X139360000Y-107010000D01*
X140630000Y-110850000D02*
X136830000Y-114650000D01*
X136830000Y-117725000D02*
X138105000Y-119000000D01*
X139360000Y-104470000D02*
X140630000Y-105740000D01*
X140630000Y-105740000D02*
X140630000Y-110850000D01*
X136830000Y-114650000D02*
X136830000Y-117725000D01*
X139380000Y-117735000D02*
X140645000Y-119000000D01*
X139380000Y-114650000D02*
X139380000Y-117735000D01*
X141900000Y-112130000D02*
X139380000Y-114650000D01*
X141900000Y-107010000D02*
X141900000Y-112130000D01*
X140630000Y-75410000D02*
X143170000Y-72870000D01*
X143170000Y-71400000D02*
X143170000Y-72870000D01*
X140630000Y-77800000D02*
X140630000Y-75410000D01*
X139360000Y-79070000D02*
X140630000Y-77800000D01*
X141930000Y-117745000D02*
X143185000Y-119000000D01*
X144440000Y-112140000D02*
X141930000Y-114650000D01*
X144440000Y-107010000D02*
X144440000Y-112140000D01*
X141930000Y-114650000D02*
X141930000Y-117745000D01*
X144440000Y-104470000D02*
X145705000Y-105735000D01*
X145705000Y-105735000D02*
X145705000Y-113325000D01*
X145705000Y-113325000D02*
X144455000Y-114575000D01*
X144455000Y-117730000D02*
X145725000Y-119000000D01*
X144455000Y-114575000D02*
X144455000Y-117730000D01*
X159680000Y-76530000D02*
X162200000Y-76530000D01*
X168570000Y-79050000D02*
X168585000Y-79035000D01*
X162200000Y-76530000D02*
X164720000Y-79050000D01*
X164720000Y-79050000D02*
X168570000Y-79050000D01*
X160950000Y-80340000D02*
X159680000Y-81610000D01*
X171100000Y-80340000D02*
X160950000Y-80340000D01*
X173680000Y-81610000D02*
X162220000Y-81610000D01*
X160960000Y-82870000D02*
X159680000Y-84150000D01*
X176210000Y-82870000D02*
X160960000Y-82870000D01*
X178750000Y-84150000D02*
X162220000Y-84150000D01*
X180885000Y-97055000D02*
X178750000Y-94920000D01*
X181255000Y-97425000D02*
X180885000Y-97055000D01*
X163490000Y-85420000D02*
X164780000Y-86710000D01*
X178750000Y-87920000D02*
X177540000Y-86710000D01*
X159680000Y-86690000D02*
X160950000Y-85420000D01*
X178750000Y-94920000D02*
X178750000Y-87920000D01*
X164780000Y-86710000D02*
X177540000Y-86710000D01*
X160950000Y-85420000D02*
X163490000Y-85420000D01*
X181285000Y-97425000D02*
X181255000Y-97425000D01*
X183465000Y-102485000D02*
X177540000Y-96560000D01*
X183825000Y-102845000D02*
X183465000Y-102485000D01*
X177540000Y-96560000D02*
X177540000Y-89260000D01*
X183825000Y-102865000D02*
X183825000Y-102845000D01*
X177540000Y-89260000D02*
X176230000Y-87950000D01*
X160960000Y-87950000D02*
X176230000Y-87950000D01*
X159680000Y-89230000D02*
X160960000Y-87950000D01*
X176210000Y-98120000D02*
X176210000Y-90540000D01*
X176210000Y-90540000D02*
X174905000Y-89235000D01*
X165065000Y-89235000D02*
X174905000Y-89235000D01*
X162220000Y-89230000D02*
X165060000Y-89230000D01*
X186370000Y-108280000D02*
X176210000Y-98120000D01*
X165060000Y-89230000D02*
X165065000Y-89235000D01*
X188905000Y-113455000D02*
X188905000Y-113385000D01*
X188905000Y-113385000D02*
X175030000Y-99510000D01*
X175030000Y-99510000D02*
X175030000Y-91840000D01*
X160970000Y-90480000D02*
X159680000Y-91770000D01*
X173670000Y-90480000D02*
X160970000Y-90480000D01*
X175030000Y-91840000D02*
X173670000Y-90480000D01*
X146980000Y-117715000D02*
X148265000Y-119000000D01*
X146980000Y-107010000D02*
X146980000Y-117715000D01*
X144440000Y-81400000D02*
X144440000Y-99760000D01*
X148255000Y-113375000D02*
X149530000Y-114650000D01*
X145705000Y-75525000D02*
X145705000Y-80135000D01*
X149530000Y-117725000D02*
X150805000Y-119000000D01*
X145705000Y-80135000D02*
X144440000Y-81400000D01*
X146980000Y-102300000D02*
X146980000Y-104470000D01*
X146980000Y-104470000D02*
X148255000Y-105745000D01*
X144440000Y-99760000D02*
X146980000Y-102300000D01*
X149530000Y-114650000D02*
X149530000Y-117725000D01*
X148255000Y-105745000D02*
X148255000Y-113375000D01*
X149520000Y-107010000D02*
X149520000Y-112115000D01*
X152055000Y-114650000D02*
X152055000Y-117710000D01*
X152055000Y-117710000D02*
X153345000Y-119000000D01*
X149520000Y-112115000D02*
X152055000Y-114650000D01*
X150805000Y-110850000D02*
X154605000Y-114650000D01*
X150805000Y-105755000D02*
X150805000Y-110850000D01*
X149520000Y-104470000D02*
X150805000Y-105755000D01*
X154605000Y-117720000D02*
X155885000Y-119000000D01*
X154605000Y-114650000D02*
X154605000Y-117720000D01*
X153355000Y-110850000D02*
X157155000Y-114650000D01*
X153355000Y-105765000D02*
X153355000Y-110850000D01*
X157155000Y-117730000D02*
X158425000Y-119000000D01*
X157155000Y-114650000D02*
X157155000Y-117730000D01*
X152060000Y-104470000D02*
X153355000Y-105765000D01*
X154600000Y-109270000D02*
X154605000Y-109275000D01*
X154605000Y-109550000D02*
X159705000Y-114650000D01*
X159705000Y-117740000D02*
X160965000Y-119000000D01*
X154600000Y-107010000D02*
X154600000Y-109270000D01*
X159705000Y-114650000D02*
X159705000Y-117740000D01*
X154605000Y-109275000D02*
X154605000Y-109550000D01*
X154600000Y-104470000D02*
X155880000Y-105750000D01*
X162255000Y-114650000D02*
X162255000Y-117750000D01*
X155880000Y-105750000D02*
X155880000Y-108275000D01*
X162255000Y-117750000D02*
X163505000Y-119000000D01*
X155880000Y-108275000D02*
X162255000Y-114650000D01*
X157140000Y-107010000D02*
X164780000Y-114650000D01*
X164780000Y-117735000D02*
X166045000Y-119000000D01*
X164780000Y-114650000D02*
X164780000Y-117735000D01*
X162240000Y-107050000D02*
X162240000Y-109560000D01*
X157140000Y-104470000D02*
X158430000Y-105760000D01*
X167330000Y-117745000D02*
X168585000Y-119000000D01*
X158430000Y-105760000D02*
X160950000Y-105760000D01*
X167330000Y-114650000D02*
X167330000Y-117745000D01*
X160950000Y-105760000D02*
X162240000Y-107050000D01*
X162240000Y-109560000D02*
X167330000Y-114650000D01*
X169855000Y-117730000D02*
X171125000Y-119000000D01*
X169855000Y-114650000D02*
X169855000Y-117730000D01*
X163547500Y-108342500D02*
X163547500Y-105797500D01*
X163547500Y-105797500D02*
X162220000Y-104470000D01*
X163547500Y-108342500D02*
X169855000Y-114650000D01*
X163005000Y-103225000D02*
X165060000Y-105280000D01*
X160925000Y-103225000D02*
X163005000Y-103225000D01*
X172405000Y-114650000D02*
X172405000Y-117740000D01*
X165060000Y-107305000D02*
X172405000Y-114650000D01*
X159680000Y-104470000D02*
X160925000Y-103225000D01*
X172405000Y-117740000D02*
X173665000Y-119000000D01*
X165060000Y-107305000D02*
X165060000Y-105280000D01*
X174930000Y-117725000D02*
X176205000Y-119000000D01*
X162220000Y-101930000D02*
X165060000Y-101930000D01*
X167350000Y-107070000D02*
X174930000Y-114650000D01*
X174930000Y-114650000D02*
X174930000Y-117725000D01*
X167350000Y-104220000D02*
X167350000Y-107070000D01*
X165060000Y-101930000D02*
X167350000Y-104220000D01*
X177480000Y-114650000D02*
X168590000Y-105760000D01*
X160960000Y-100650000D02*
X167260000Y-100650000D01*
X167260000Y-100650000D02*
X168590000Y-101980000D01*
X168590000Y-101980000D02*
X168590000Y-105760000D01*
X159680000Y-101930000D02*
X160960000Y-100650000D01*
X178745000Y-119000000D02*
X177480000Y-117735000D01*
X177480000Y-117735000D02*
X177480000Y-114650000D01*
X180005000Y-114655000D02*
X169860000Y-104510000D01*
X180005000Y-117720000D02*
X180005000Y-114655000D01*
X181285000Y-119000000D02*
X180005000Y-117720000D01*
X168560000Y-99390000D02*
X169735000Y-100565000D01*
X169860000Y-104510000D02*
X169860000Y-100690000D01*
X169860000Y-100690000D02*
X169735000Y-100565000D01*
X168560000Y-99390000D02*
X162220000Y-99390000D01*
X182555000Y-117730000D02*
X183825000Y-119000000D01*
X171130000Y-98130000D02*
X171130000Y-103230000D01*
X162220000Y-96850000D02*
X169850000Y-96850000D01*
X171130000Y-103230000D02*
X182555000Y-114655000D01*
X182555000Y-114655000D02*
X182555000Y-117730000D01*
X169850000Y-96850000D02*
X171130000Y-98130000D01*
X185105000Y-117740000D02*
X185105000Y-114655000D01*
X171120000Y-95600000D02*
X160930000Y-95600000D01*
X172390000Y-96870000D02*
X171120000Y-95600000D01*
X172390000Y-101940000D02*
X172390000Y-96870000D01*
X160930000Y-95600000D02*
X159680000Y-96850000D01*
X186365000Y-119000000D02*
X185105000Y-117740000D01*
X185105000Y-114655000D02*
X172390000Y-101940000D01*
X173660000Y-100690000D02*
X173660000Y-95570000D01*
X187630000Y-117725000D02*
X187630000Y-114660000D01*
X187630000Y-114660000D02*
X173660000Y-100690000D01*
X188905000Y-119000000D02*
X187630000Y-117725000D01*
X173660000Y-95570000D02*
X172400000Y-94310000D01*
X172400000Y-94310000D02*
X162220000Y-94310000D01*
X102077500Y-89995000D02*
X102105000Y-89967500D01*
D24*
X100325000Y-90395000D02*
X99925000Y-89995000D01*
X100325000Y-91770000D02*
X100325000Y-90395000D01*
D23*
X99925000Y-89995000D02*
X102077500Y-89995000D01*
D24*
X103892500Y-92300000D02*
X103892500Y-94282500D01*
X104005000Y-92187500D02*
X103892500Y-92300000D01*
X103892500Y-94282500D02*
X103900000Y-94290000D01*
X104005000Y-89967500D02*
X104005000Y-92187500D01*
X103902500Y-95810000D02*
X103902500Y-95822500D01*
X104960000Y-96860000D02*
X106510000Y-96860000D01*
X103902500Y-95822500D02*
X104950000Y-96870000D01*
X104950000Y-96870000D02*
X104960000Y-96860000D01*
G04 #@! TA.AperFunction,Conductor*
G36*
X105965483Y-85756230D02*
G01*
X106033576Y-85776325D01*
X106079996Y-85830044D01*
X106091311Y-85882295D01*
X106090063Y-88304072D01*
X106070026Y-88372182D01*
X106016346Y-88418648D01*
X105964065Y-88430007D01*
X102421900Y-88429995D01*
X98876080Y-88429982D01*
X98807959Y-88409980D01*
X98761466Y-88356324D01*
X98750080Y-88303917D01*
X98751328Y-85872484D01*
X98771365Y-85804374D01*
X98825045Y-85757909D01*
X98877499Y-85746549D01*
X105965483Y-85756230D01*
G37*
G04 #@! TD.AperFunction*
G04 #@! TA.AperFunction,Conductor*
G36*
X102512121Y-93780002D02*
G01*
X102558614Y-93833658D01*
X102570000Y-93886000D01*
X102570000Y-96284000D01*
X102549998Y-96352121D01*
X102496342Y-96398614D01*
X102444000Y-96410000D01*
X99946000Y-96410000D01*
X99877879Y-96389998D01*
X99831386Y-96336342D01*
X99820000Y-96284000D01*
X99820000Y-93886000D01*
X99840002Y-93817879D01*
X99893658Y-93771386D01*
X99946000Y-93760000D01*
X102444000Y-93760000D01*
X102512121Y-93780002D01*
G37*
G04 #@! TD.AperFunction*
M02*
