%FSLAX45Y45*%
G04 Gerber Fmt 4.5, Leading zero omitted, Abs format (unit mm)*
G04 Created by KiCad (PCBNEW 6.0.1) date 2022-02-14 19:14:14*
%MOMM*%
%LPD*%
G01*
G04 APERTURE LIST*
%TA.AperFunction,Profile*%
%ADD10C,0.100000*%
%TD*%
%ADD11C,0.200000*%
G04 APERTURE END LIST*
D10*
X19588000Y-11702000D02*
X19588000Y-7150000D01*
X15904000Y-7150000D02*
X16056000Y-7150000D01*
X9808000Y-12090000D02*
X9880000Y-12090000D01*
X19588000Y-12042000D02*
X19588000Y-11702000D01*
X13880000Y-6950000D02*
X14003000Y-6950000D01*
X19184000Y-7150000D02*
X16056000Y-7150000D01*
X19415000Y-7150000D02*
X19184000Y-7150000D01*
X9808000Y-11623000D02*
X9808000Y-10606000D01*
X13492000Y-7150000D02*
X13880000Y-6950000D01*
X19588000Y-7150000D02*
X19415000Y-7150000D01*
X9808000Y-10606000D02*
X9808000Y-7150000D01*
X15904000Y-7150000D02*
X15520000Y-6950000D01*
X14003000Y-6950000D02*
X15520000Y-6950000D01*
X9808000Y-7150000D02*
X13492000Y-7150000D01*
X19588000Y-12090000D02*
X19588000Y-12042000D01*
X9808000Y-12090000D02*
X9808000Y-12029000D01*
X9808000Y-12029000D02*
X9808000Y-11623000D01*
X9880000Y-12090000D02*
X19588000Y-12090000D01*
D11*
X10060619Y-12405476D02*
X10060619Y-12205476D01*
X10108238Y-12205476D01*
X10136810Y-12215000D01*
X10155857Y-12234048D01*
X10165381Y-12253095D01*
X10174905Y-12291190D01*
X10174905Y-12319762D01*
X10165381Y-12357857D01*
X10155857Y-12376905D01*
X10136810Y-12395952D01*
X10108238Y-12405476D01*
X10060619Y-12405476D01*
X10260619Y-12405476D02*
X10260619Y-12272143D01*
X10260619Y-12310238D02*
X10270143Y-12291190D01*
X10279667Y-12281667D01*
X10298714Y-12272143D01*
X10317762Y-12272143D01*
X10384429Y-12405476D02*
X10384429Y-12272143D01*
X10384429Y-12205476D02*
X10374905Y-12215000D01*
X10384429Y-12224524D01*
X10393952Y-12215000D01*
X10384429Y-12205476D01*
X10384429Y-12224524D01*
X10508238Y-12405476D02*
X10489190Y-12395952D01*
X10479667Y-12376905D01*
X10479667Y-12205476D01*
X10613000Y-12405476D02*
X10593952Y-12395952D01*
X10584429Y-12376905D01*
X10584429Y-12205476D01*
X10841571Y-12405476D02*
X10841571Y-12205476D01*
X10908238Y-12348333D01*
X10974905Y-12205476D01*
X10974905Y-12405476D01*
X11155857Y-12405476D02*
X11155857Y-12300714D01*
X11146333Y-12281667D01*
X11127286Y-12272143D01*
X11089190Y-12272143D01*
X11070143Y-12281667D01*
X11155857Y-12395952D02*
X11136810Y-12405476D01*
X11089190Y-12405476D01*
X11070143Y-12395952D01*
X11060619Y-12376905D01*
X11060619Y-12357857D01*
X11070143Y-12338809D01*
X11089190Y-12329286D01*
X11136810Y-12329286D01*
X11155857Y-12319762D01*
X11251095Y-12272143D02*
X11251095Y-12472143D01*
X11251095Y-12281667D02*
X11270143Y-12272143D01*
X11308238Y-12272143D01*
X11327286Y-12281667D01*
X11336809Y-12291190D01*
X11346333Y-12310238D01*
X11346333Y-12367381D01*
X11336809Y-12386428D01*
X11327286Y-12395952D01*
X11308238Y-12405476D01*
X11270143Y-12405476D01*
X11251095Y-12395952D01*
X11432048Y-12386428D02*
X11441571Y-12395952D01*
X11432048Y-12405476D01*
X11422524Y-12395952D01*
X11432048Y-12386428D01*
X11432048Y-12405476D01*
X11432048Y-12281667D02*
X11441571Y-12291190D01*
X11432048Y-12300714D01*
X11422524Y-12291190D01*
X11432048Y-12281667D01*
X11432048Y-12300714D01*
M02*
