M48
; DRILL file {KiCad 6.0.1} date Mon 14 Feb 2022 07:14:13 PM PST
; FORMAT={-:-/ absolute / metric / decimal}
; #@! TF.CreationDate,2022-02-14T19:14:13-08:00
; #@! TF.GenerationSoftware,Kicad,Pcbnew,6.0.1
; #@! TF.FileFunction,Plated,1,4,PTH
FMAT,2
METRIC
; #@! TA.AperFunction,Plated,PTH,ViaDrill
T1C0.300
; #@! TA.AperFunction,Plated,PTH,ComponentDrill
T2C0.800
; #@! TA.AperFunction,Plated,PTH,ComponentDrill
T3C1.000
%
G90
G05
T1
X99.94Y-86.3
X100.33Y-98.72
X101.46Y-86.3
X103.0Y-86.29
X103.06Y-91.22
X104.31Y-86.29
X105.19Y-75.85
X105.56Y-86.29
X105.56Y-90.67
X107.63Y-108.3
X110.165Y-97.395
X112.705Y-95.305
X115.25Y-84.15
X117.78Y-81.63
X120.33Y-80.34
X122.86Y-79.07
X125.41Y-77.72
X127.05Y-94.96
X127.75Y-82.89
X131.43Y-75.68
X131.73Y-105.98
X131.73Y-110.62
X145.7Y-83.71
X145.705Y-75.525
X154.25Y-110.28
X161.35Y-98.15
X162.53Y-75.69
X166.62Y-92.76
X166.71Y-98.15
X168.585Y-79.035
X171.1Y-80.34
X173.68Y-81.61
X176.21Y-82.87
X178.75Y-84.15
X181.285Y-97.425
X183.825Y-102.865
X186.37Y-108.28
X188.905Y-113.455
T2
X101.36Y-74.77
X101.36Y-82.39
X108.98Y-74.77
X108.98Y-82.39
X131.74Y-79.07
X131.74Y-81.61
X131.74Y-84.15
X131.74Y-86.69
X131.74Y-89.23
X131.74Y-91.77
X131.74Y-94.31
X131.74Y-96.85
X131.74Y-99.39
X131.74Y-101.93
X131.74Y-104.47
X134.28Y-76.53
X134.28Y-79.07
X134.28Y-81.61
X134.28Y-84.15
X134.28Y-86.69
X134.28Y-89.23
X134.28Y-91.77
X134.28Y-94.31
X134.28Y-96.85
X134.28Y-99.39
X134.28Y-101.93
X134.28Y-104.47
X134.28Y-107.01
X136.82Y-76.53
X136.82Y-79.07
X136.82Y-104.47
X136.82Y-107.01
X139.36Y-76.53
X139.36Y-79.07
X139.36Y-104.47
X139.36Y-107.01
X141.9Y-76.53
X141.9Y-79.07
X141.9Y-104.47
X141.9Y-107.01
X144.44Y-76.53
X144.44Y-79.07
X144.44Y-104.47
X144.44Y-107.01
X146.98Y-76.53
X146.98Y-79.07
X146.98Y-104.47
X146.98Y-107.01
X149.52Y-76.53
X149.52Y-79.07
X149.52Y-104.47
X149.52Y-107.01
X152.06Y-76.53
X152.06Y-79.07
X152.06Y-104.47
X152.06Y-107.01
X154.6Y-76.53
X154.6Y-79.07
X154.6Y-104.47
X154.6Y-107.01
X157.14Y-76.53
X157.14Y-79.07
X157.14Y-104.47
X157.14Y-107.01
X159.68Y-76.53
X159.68Y-79.07
X159.68Y-81.61
X159.68Y-84.15
X159.68Y-86.69
X159.68Y-89.23
X159.68Y-91.77
X159.68Y-94.31
X159.68Y-96.85
X159.68Y-99.39
X159.68Y-101.93
X159.68Y-104.47
X159.68Y-107.01
X162.22Y-79.07
X162.22Y-81.61
X162.22Y-84.15
X162.22Y-86.69
X162.22Y-89.23
X162.22Y-91.77
X162.22Y-94.31
X162.22Y-96.85
X162.22Y-99.39
X162.22Y-101.93
X162.22Y-104.47
T3
X100.005Y-116.46
X100.005Y-119.0
X102.545Y-116.46
X102.545Y-119.0
X105.085Y-116.46
X105.085Y-119.0
X106.51Y-96.86
X106.51Y-99.4
X106.51Y-101.94
X107.625Y-116.46
X107.625Y-119.0
X110.165Y-116.46
X110.165Y-119.0
X112.705Y-116.46
X112.705Y-119.0
X113.72Y-73.78
X113.72Y-76.32
X113.72Y-78.86
X115.245Y-116.46
X115.245Y-119.0
X117.785Y-116.46
X117.785Y-119.0
X120.325Y-116.46
X120.325Y-119.0
X122.865Y-116.46
X122.865Y-119.0
X125.405Y-116.46
X125.405Y-119.0
X127.945Y-116.46
X127.945Y-119.0
X130.485Y-116.46
X130.485Y-119.0
X133.025Y-116.46
X133.025Y-119.0
X135.565Y-116.46
X135.565Y-119.0
X138.105Y-116.46
X138.105Y-119.0
X140.63Y-71.4
X140.645Y-116.46
X140.645Y-119.0
X143.17Y-71.4
X143.185Y-116.46
X143.185Y-119.0
X145.71Y-71.4
X145.725Y-116.46
X145.725Y-119.0
X148.25Y-71.4
X148.265Y-116.46
X148.265Y-119.0
X150.79Y-71.4
X150.805Y-116.46
X150.805Y-119.0
X153.33Y-71.4
X153.345Y-116.46
X153.345Y-119.0
X155.885Y-116.46
X155.885Y-119.0
X158.425Y-116.46
X158.425Y-119.0
X160.965Y-116.46
X160.965Y-119.0
X163.505Y-116.46
X163.505Y-119.0
X166.045Y-116.46
X166.045Y-119.0
X168.585Y-116.46
X168.585Y-119.0
X171.125Y-116.46
X171.125Y-119.0
X173.665Y-116.46
X173.665Y-119.0
X176.205Y-116.46
X176.205Y-119.0
X178.745Y-116.46
X178.745Y-119.0
X181.285Y-116.46
X181.285Y-119.0
X183.825Y-116.46
X183.825Y-119.0
X186.365Y-116.46
X186.365Y-119.0
X188.905Y-116.46
X188.905Y-119.0
X191.445Y-116.46
X191.445Y-119.0
X193.985Y-116.46
X193.985Y-119.0
T0
M30
