G04 #@! TF.GenerationSoftware,KiCad,Pcbnew,6.0.1*
G04 #@! TF.CreationDate,2022-02-14T19:14:06-08:00*
G04 #@! TF.ProjectId,BREAKOUT-ATF1508AS,42524541-4b4f-4555-942d-415446313530,rev?*
G04 #@! TF.SameCoordinates,Original*
G04 #@! TF.FileFunction,Legend,Top*
G04 #@! TF.FilePolarity,Positive*
%FSLAX46Y46*%
G04 Gerber Fmt 4.6, Leading zero omitted, Abs format (unit mm)*
G04 Created by KiCad (PCBNEW 6.0.1) date 2022-02-14 19:14:06*
%MOMM*%
%LPD*%
G01*
G04 APERTURE LIST*
G04 Aperture macros list*
%AMRoundRect*
0 Rectangle with rounded corners*
0 $1 Rounding radius*
0 $2 $3 $4 $5 $6 $7 $8 $9 X,Y pos of 4 corners*
0 Add a 4 corners polygon primitive as box body*
4,1,4,$2,$3,$4,$5,$6,$7,$8,$9,$2,$3,0*
0 Add four circle primitives for the rounded corners*
1,1,$1+$1,$2,$3*
1,1,$1+$1,$4,$5*
1,1,$1+$1,$6,$7*
1,1,$1+$1,$8,$9*
0 Add four rect primitives between the rounded corners*
20,1,$1+$1,$2,$3,$4,$5,0*
20,1,$1+$1,$4,$5,$6,$7,0*
20,1,$1+$1,$6,$7,$8,$9,0*
20,1,$1+$1,$8,$9,$2,$3,0*%
G04 Aperture macros list end*
%ADD10C,0.150000*%
%ADD11C,0.200000*%
%ADD12C,0.300000*%
%ADD13C,0.250000*%
%ADD14C,0.120000*%
%ADD15RoundRect,0.237500X-0.250000X-0.237500X0.250000X-0.237500X0.250000X0.237500X-0.250000X0.237500X0*%
%ADD16R,1.700000X1.700000*%
%ADD17O,1.700000X1.700000*%
%ADD18R,1.000000X1.000000*%
%ADD19RoundRect,0.250001X-0.849999X0.462499X-0.849999X-0.462499X0.849999X-0.462499X0.849999X0.462499X0*%
%ADD20RoundRect,0.237500X0.250000X0.237500X-0.250000X0.237500X-0.250000X-0.237500X0.250000X-0.237500X0*%
%ADD21RoundRect,0.237500X-0.237500X0.300000X-0.237500X-0.300000X0.237500X-0.300000X0.237500X0.300000X0*%
%ADD22RoundRect,0.150000X0.150000X-0.512500X0.150000X0.512500X-0.150000X0.512500X-0.150000X-0.512500X0*%
%ADD23R,1.422400X1.422400*%
%ADD24C,1.422400*%
%ADD25R,1.600000X1.600000*%
%ADD26C,1.600000*%
G04 APERTURE END LIST*
D10*
X149540000Y-111030000D02*
X149540000Y-110050000D01*
X190190000Y-110050000D02*
X190190000Y-115130000D01*
X169860000Y-110050000D02*
X169860000Y-110470000D01*
X108890000Y-115110000D02*
X108890000Y-114650000D01*
X149540000Y-113990000D02*
X149540000Y-111030000D01*
X149540000Y-110050000D02*
X169860000Y-110050000D01*
X169860000Y-113870000D02*
X169860000Y-110470000D01*
X149540000Y-115120000D02*
X169860000Y-115120000D01*
X129180000Y-115110000D02*
X149540000Y-115120000D01*
X108890000Y-114650000D02*
X108890000Y-110050000D01*
X129180000Y-115110000D02*
X108890000Y-115110000D01*
X129180000Y-110050000D02*
X129180000Y-115110000D01*
X169860000Y-115120000D02*
X169860000Y-113870000D01*
X108890000Y-110050000D02*
X129180000Y-110050000D01*
X149540000Y-115120000D02*
X149540000Y-113990000D01*
X190190000Y-115130000D02*
X169860000Y-115120000D01*
X169860000Y-110050000D02*
X190190000Y-110050000D01*
X129180000Y-110050000D02*
X149540000Y-110050000D01*
D11*
X151352857Y-114434285D02*
X150152857Y-114434285D01*
X150152857Y-113977142D01*
X150210000Y-113862857D01*
X150267142Y-113805714D01*
X150381428Y-113748571D01*
X150552857Y-113748571D01*
X150667142Y-113805714D01*
X150724285Y-113862857D01*
X150781428Y-113977142D01*
X150781428Y-114434285D01*
X150267142Y-113291428D02*
X150210000Y-113234285D01*
X150152857Y-113120000D01*
X150152857Y-112834285D01*
X150210000Y-112720000D01*
X150267142Y-112662857D01*
X150381428Y-112605714D01*
X150495714Y-112605714D01*
X150667142Y-112662857D01*
X151352857Y-113348571D01*
X151352857Y-112605714D01*
X150152857Y-112205714D02*
X150152857Y-111462857D01*
X150610000Y-111862857D01*
X150610000Y-111691428D01*
X150667142Y-111577142D01*
X150724285Y-111520000D01*
X150838571Y-111462857D01*
X151124285Y-111462857D01*
X151238571Y-111520000D01*
X151295714Y-111577142D01*
X151352857Y-111691428D01*
X151352857Y-112034285D01*
X151295714Y-112148571D01*
X151238571Y-112205714D01*
X150152857Y-110777142D02*
X150438571Y-110777142D01*
X150324285Y-111062857D02*
X150438571Y-110777142D01*
X150324285Y-110491428D01*
X150667142Y-110948571D02*
X150438571Y-110777142D01*
X150667142Y-110605714D01*
D12*
X99320000Y-113482857D02*
X99248571Y-113625714D01*
X99248571Y-113840000D01*
X99320000Y-114054285D01*
X99462857Y-114197142D01*
X99605714Y-114268571D01*
X99891428Y-114340000D01*
X100105714Y-114340000D01*
X100391428Y-114268571D01*
X100534285Y-114197142D01*
X100677142Y-114054285D01*
X100748571Y-113840000D01*
X100748571Y-113697142D01*
X100677142Y-113482857D01*
X100605714Y-113411428D01*
X100105714Y-113411428D01*
X100105714Y-113697142D01*
X100748571Y-112768571D02*
X99248571Y-112768571D01*
X100748571Y-111911428D01*
X99248571Y-111911428D01*
X100748571Y-111197142D02*
X99248571Y-111197142D01*
X99248571Y-110840000D01*
X99320000Y-110625714D01*
X99462857Y-110482857D01*
X99605714Y-110411428D01*
X99891428Y-110340000D01*
X100105714Y-110340000D01*
X100391428Y-110411428D01*
X100534285Y-110482857D01*
X100677142Y-110625714D01*
X100748571Y-110840000D01*
X100748571Y-111197142D01*
X181968571Y-114297857D02*
X180468571Y-114297857D01*
X180468571Y-113726428D01*
X180540000Y-113583571D01*
X180611428Y-113512142D01*
X180754285Y-113440714D01*
X180968571Y-113440714D01*
X181111428Y-113512142D01*
X181182857Y-113583571D01*
X181254285Y-113726428D01*
X181254285Y-114297857D01*
X180468571Y-112940714D02*
X180468571Y-112012142D01*
X181040000Y-112512142D01*
X181040000Y-112297857D01*
X181111428Y-112155000D01*
X181182857Y-112083571D01*
X181325714Y-112012142D01*
X181682857Y-112012142D01*
X181825714Y-112083571D01*
X181897142Y-112155000D01*
X181968571Y-112297857D01*
X181968571Y-112726428D01*
X181897142Y-112869285D01*
X181825714Y-112940714D01*
X180468571Y-111512142D02*
X180468571Y-110512142D01*
X181968571Y-111155000D01*
X154028571Y-114297857D02*
X152528571Y-114297857D01*
X152528571Y-113726428D01*
X152600000Y-113583571D01*
X152671428Y-113512142D01*
X152814285Y-113440714D01*
X153028571Y-113440714D01*
X153171428Y-113512142D01*
X153242857Y-113583571D01*
X153314285Y-113726428D01*
X153314285Y-114297857D01*
X152671428Y-112869285D02*
X152600000Y-112797857D01*
X152528571Y-112655000D01*
X152528571Y-112297857D01*
X152600000Y-112155000D01*
X152671428Y-112083571D01*
X152814285Y-112012142D01*
X152957142Y-112012142D01*
X153171428Y-112083571D01*
X154028571Y-112940714D01*
X154028571Y-112012142D01*
X153028571Y-110726428D02*
X154028571Y-110726428D01*
X152457142Y-111083571D02*
X153528571Y-111440714D01*
X153528571Y-110512142D01*
D11*
X131032857Y-114434285D02*
X129832857Y-114434285D01*
X129832857Y-113977142D01*
X129890000Y-113862857D01*
X129947142Y-113805714D01*
X130061428Y-113748571D01*
X130232857Y-113748571D01*
X130347142Y-113805714D01*
X130404285Y-113862857D01*
X130461428Y-113977142D01*
X130461428Y-114434285D01*
X131032857Y-112605714D02*
X131032857Y-113291428D01*
X131032857Y-112948571D02*
X129832857Y-112948571D01*
X130004285Y-113062857D01*
X130118571Y-113177142D01*
X130175714Y-113291428D01*
X130232857Y-111577142D02*
X131032857Y-111577142D01*
X129775714Y-111862857D02*
X130632857Y-112148571D01*
X130632857Y-111405714D01*
X129832857Y-110777142D02*
X130118571Y-110777142D01*
X130004285Y-111062857D02*
X130118571Y-110777142D01*
X130004285Y-110491428D01*
X130347142Y-110948571D02*
X130118571Y-110777142D01*
X130347142Y-110605714D01*
D12*
X164188571Y-114297857D02*
X162688571Y-114297857D01*
X162688571Y-113726428D01*
X162760000Y-113583571D01*
X162831428Y-113512142D01*
X162974285Y-113440714D01*
X163188571Y-113440714D01*
X163331428Y-113512142D01*
X163402857Y-113583571D01*
X163474285Y-113726428D01*
X163474285Y-114297857D01*
X162831428Y-112869285D02*
X162760000Y-112797857D01*
X162688571Y-112655000D01*
X162688571Y-112297857D01*
X162760000Y-112155000D01*
X162831428Y-112083571D01*
X162974285Y-112012142D01*
X163117142Y-112012142D01*
X163331428Y-112083571D01*
X164188571Y-112940714D01*
X164188571Y-112012142D01*
X164188571Y-111297857D02*
X164188571Y-111012142D01*
X164117142Y-110869285D01*
X164045714Y-110797857D01*
X163831428Y-110655000D01*
X163545714Y-110583571D01*
X162974285Y-110583571D01*
X162831428Y-110655000D01*
X162760000Y-110726428D01*
X162688571Y-110869285D01*
X162688571Y-111155000D01*
X162760000Y-111297857D01*
X162831428Y-111369285D01*
X162974285Y-111440714D01*
X163331428Y-111440714D01*
X163474285Y-111369285D01*
X163545714Y-111297857D01*
X163617142Y-111155000D01*
X163617142Y-110869285D01*
X163545714Y-110726428D01*
X163474285Y-110655000D01*
X163331428Y-110583571D01*
D13*
X115796309Y-75688095D02*
X116229642Y-76988095D01*
X116662976Y-75688095D01*
X117096309Y-76988095D02*
X117096309Y-75688095D01*
X117715357Y-76988095D02*
X117715357Y-75688095D01*
X118458214Y-76988095D01*
X118458214Y-75688095D01*
X118767738Y-77111904D02*
X119758214Y-77111904D01*
X120315357Y-75688095D02*
X120562976Y-75688095D01*
X120686785Y-75750000D01*
X120810595Y-75873809D01*
X120872500Y-76121428D01*
X120872500Y-76554761D01*
X120810595Y-76802380D01*
X120686785Y-76926190D01*
X120562976Y-76988095D01*
X120315357Y-76988095D01*
X120191547Y-76926190D01*
X120067738Y-76802380D01*
X120005833Y-76554761D01*
X120005833Y-76121428D01*
X120067738Y-75873809D01*
X120191547Y-75750000D01*
X120315357Y-75688095D01*
X121367738Y-76926190D02*
X121553452Y-76988095D01*
X121862976Y-76988095D01*
X121986785Y-76926190D01*
X122048690Y-76864285D01*
X122110595Y-76740476D01*
X122110595Y-76616666D01*
X122048690Y-76492857D01*
X121986785Y-76430952D01*
X121862976Y-76369047D01*
X121615357Y-76307142D01*
X121491547Y-76245238D01*
X121429642Y-76183333D01*
X121367738Y-76059523D01*
X121367738Y-75935714D01*
X121429642Y-75811904D01*
X121491547Y-75750000D01*
X121615357Y-75688095D01*
X121924880Y-75688095D01*
X122110595Y-75750000D01*
X123410595Y-76864285D02*
X123348690Y-76926190D01*
X123162976Y-76988095D01*
X123039166Y-76988095D01*
X122853452Y-76926190D01*
X122729642Y-76802380D01*
X122667738Y-76678571D01*
X122605833Y-76430952D01*
X122605833Y-76245238D01*
X122667738Y-75997619D01*
X122729642Y-75873809D01*
X122853452Y-75750000D01*
X123039166Y-75688095D01*
X123162976Y-75688095D01*
X123348690Y-75750000D01*
X123410595Y-75811904D01*
D12*
X146408571Y-114297857D02*
X144908571Y-114297857D01*
X144908571Y-113726428D01*
X144980000Y-113583571D01*
X145051428Y-113512142D01*
X145194285Y-113440714D01*
X145408571Y-113440714D01*
X145551428Y-113512142D01*
X145622857Y-113583571D01*
X145694285Y-113726428D01*
X145694285Y-114297857D01*
X145051428Y-112869285D02*
X144980000Y-112797857D01*
X144908571Y-112655000D01*
X144908571Y-112297857D01*
X144980000Y-112155000D01*
X145051428Y-112083571D01*
X145194285Y-112012142D01*
X145337142Y-112012142D01*
X145551428Y-112083571D01*
X146408571Y-112940714D01*
X146408571Y-112012142D01*
X146408571Y-110583571D02*
X146408571Y-111440714D01*
X146408571Y-111012142D02*
X144908571Y-111012142D01*
X145122857Y-111155000D01*
X145265714Y-111297857D01*
X145337142Y-111440714D01*
X171808571Y-114297857D02*
X170308571Y-114297857D01*
X170308571Y-113726428D01*
X170380000Y-113583571D01*
X170451428Y-113512142D01*
X170594285Y-113440714D01*
X170808571Y-113440714D01*
X170951428Y-113512142D01*
X171022857Y-113583571D01*
X171094285Y-113726428D01*
X171094285Y-114297857D01*
X170308571Y-112940714D02*
X170308571Y-112012142D01*
X170880000Y-112512142D01*
X170880000Y-112297857D01*
X170951428Y-112155000D01*
X171022857Y-112083571D01*
X171165714Y-112012142D01*
X171522857Y-112012142D01*
X171665714Y-112083571D01*
X171737142Y-112155000D01*
X171808571Y-112297857D01*
X171808571Y-112726428D01*
X171737142Y-112869285D01*
X171665714Y-112940714D01*
X170308571Y-111512142D02*
X170308571Y-110583571D01*
X170880000Y-111083571D01*
X170880000Y-110869285D01*
X170951428Y-110726428D01*
X171022857Y-110655000D01*
X171165714Y-110583571D01*
X171522857Y-110583571D01*
X171665714Y-110655000D01*
X171737142Y-110726428D01*
X171808571Y-110869285D01*
X171808571Y-111297857D01*
X171737142Y-111440714D01*
X171665714Y-111512142D01*
D13*
X108782023Y-100008095D02*
X108782023Y-98708095D01*
X109277261Y-98708095D01*
X109401071Y-98770000D01*
X109462976Y-98831904D01*
X109524880Y-98955714D01*
X109524880Y-99141428D01*
X109462976Y-99265238D01*
X109401071Y-99327142D01*
X109277261Y-99389047D01*
X108782023Y-99389047D01*
X110267738Y-99265238D02*
X110143928Y-99203333D01*
X110082023Y-99141428D01*
X110020119Y-99017619D01*
X110020119Y-98955714D01*
X110082023Y-98831904D01*
X110143928Y-98770000D01*
X110267738Y-98708095D01*
X110515357Y-98708095D01*
X110639166Y-98770000D01*
X110701071Y-98831904D01*
X110762976Y-98955714D01*
X110762976Y-99017619D01*
X110701071Y-99141428D01*
X110639166Y-99203333D01*
X110515357Y-99265238D01*
X110267738Y-99265238D01*
X110143928Y-99327142D01*
X110082023Y-99389047D01*
X110020119Y-99512857D01*
X110020119Y-99760476D01*
X110082023Y-99884285D01*
X110143928Y-99946190D01*
X110267738Y-100008095D01*
X110515357Y-100008095D01*
X110639166Y-99946190D01*
X110701071Y-99884285D01*
X110762976Y-99760476D01*
X110762976Y-99512857D01*
X110701071Y-99389047D01*
X110639166Y-99327142D01*
X110515357Y-99265238D01*
X111877261Y-99141428D02*
X111877261Y-100008095D01*
X111567738Y-98646190D02*
X111258214Y-99574761D01*
X112062976Y-99574761D01*
X113486785Y-98646190D02*
X112372500Y-100317619D01*
X114167738Y-98708095D02*
X114415357Y-98708095D01*
X114539166Y-98770000D01*
X114662976Y-98893809D01*
X114724880Y-99141428D01*
X114724880Y-99574761D01*
X114662976Y-99822380D01*
X114539166Y-99946190D01*
X114415357Y-100008095D01*
X114167738Y-100008095D01*
X114043928Y-99946190D01*
X113920119Y-99822380D01*
X113858214Y-99574761D01*
X113858214Y-99141428D01*
X113920119Y-98893809D01*
X114043928Y-98770000D01*
X114167738Y-98708095D01*
X115282023Y-99327142D02*
X115715357Y-99327142D01*
X115901071Y-100008095D02*
X115282023Y-100008095D01*
X115282023Y-98708095D01*
X115901071Y-98708095D01*
X117139166Y-100008095D02*
X116396309Y-100008095D01*
X116767738Y-100008095D02*
X116767738Y-98708095D01*
X116643928Y-98893809D01*
X116520119Y-99017619D01*
X116396309Y-99079523D01*
D12*
X128628571Y-114297857D02*
X127128571Y-114297857D01*
X127128571Y-113726428D01*
X127200000Y-113583571D01*
X127271428Y-113512142D01*
X127414285Y-113440714D01*
X127628571Y-113440714D01*
X127771428Y-113512142D01*
X127842857Y-113583571D01*
X127914285Y-113726428D01*
X127914285Y-114297857D01*
X128628571Y-112012142D02*
X128628571Y-112869285D01*
X128628571Y-112440714D02*
X127128571Y-112440714D01*
X127342857Y-112583571D01*
X127485714Y-112726428D01*
X127557142Y-112869285D01*
X127271428Y-111440714D02*
X127200000Y-111369285D01*
X127128571Y-111226428D01*
X127128571Y-110869285D01*
X127200000Y-110726428D01*
X127271428Y-110655000D01*
X127414285Y-110583571D01*
X127557142Y-110583571D01*
X127771428Y-110655000D01*
X128628571Y-111512142D01*
X128628571Y-110583571D01*
X179428571Y-114297857D02*
X177928571Y-114297857D01*
X177928571Y-113726428D01*
X178000000Y-113583571D01*
X178071428Y-113512142D01*
X178214285Y-113440714D01*
X178428571Y-113440714D01*
X178571428Y-113512142D01*
X178642857Y-113583571D01*
X178714285Y-113726428D01*
X178714285Y-114297857D01*
X177928571Y-112940714D02*
X177928571Y-112012142D01*
X178500000Y-112512142D01*
X178500000Y-112297857D01*
X178571428Y-112155000D01*
X178642857Y-112083571D01*
X178785714Y-112012142D01*
X179142857Y-112012142D01*
X179285714Y-112083571D01*
X179357142Y-112155000D01*
X179428571Y-112297857D01*
X179428571Y-112726428D01*
X179357142Y-112869285D01*
X179285714Y-112940714D01*
X177928571Y-110726428D02*
X177928571Y-111012142D01*
X178000000Y-111155000D01*
X178071428Y-111226428D01*
X178285714Y-111369285D01*
X178571428Y-111440714D01*
X179142857Y-111440714D01*
X179285714Y-111369285D01*
X179357142Y-111297857D01*
X179428571Y-111155000D01*
X179428571Y-110869285D01*
X179357142Y-110726428D01*
X179285714Y-110655000D01*
X179142857Y-110583571D01*
X178785714Y-110583571D01*
X178642857Y-110655000D01*
X178571428Y-110726428D01*
X178500000Y-110869285D01*
X178500000Y-111155000D01*
X178571428Y-111297857D01*
X178642857Y-111369285D01*
X178785714Y-111440714D01*
X102687142Y-114297857D02*
X102687142Y-113155000D01*
X103258571Y-113726428D02*
X102115714Y-113726428D01*
X101758571Y-111726428D02*
X101758571Y-112440714D01*
X102472857Y-112512142D01*
X102401428Y-112440714D01*
X102330000Y-112297857D01*
X102330000Y-111940714D01*
X102401428Y-111797857D01*
X102472857Y-111726428D01*
X102615714Y-111655000D01*
X102972857Y-111655000D01*
X103115714Y-111726428D01*
X103187142Y-111797857D01*
X103258571Y-111940714D01*
X103258571Y-112297857D01*
X103187142Y-112440714D01*
X103115714Y-112512142D01*
X101758571Y-111226428D02*
X103258571Y-110726428D01*
X101758571Y-110226428D01*
D13*
X115992023Y-73872857D02*
X116982500Y-73872857D01*
X116487261Y-74368095D02*
X116487261Y-73377619D01*
X118220595Y-73068095D02*
X117601547Y-73068095D01*
X117539642Y-73687142D01*
X117601547Y-73625238D01*
X117725357Y-73563333D01*
X118034880Y-73563333D01*
X118158690Y-73625238D01*
X118220595Y-73687142D01*
X118282500Y-73810952D01*
X118282500Y-74120476D01*
X118220595Y-74244285D01*
X118158690Y-74306190D01*
X118034880Y-74368095D01*
X117725357Y-74368095D01*
X117601547Y-74306190D01*
X117539642Y-74244285D01*
X118653928Y-73068095D02*
X119087261Y-74368095D01*
X119520595Y-73068095D01*
D12*
X126088571Y-114297857D02*
X124588571Y-114297857D01*
X124588571Y-113726428D01*
X124660000Y-113583571D01*
X124731428Y-113512142D01*
X124874285Y-113440714D01*
X125088571Y-113440714D01*
X125231428Y-113512142D01*
X125302857Y-113583571D01*
X125374285Y-113726428D01*
X125374285Y-114297857D01*
X126088571Y-112012142D02*
X126088571Y-112869285D01*
X126088571Y-112440714D02*
X124588571Y-112440714D01*
X124802857Y-112583571D01*
X124945714Y-112726428D01*
X125017142Y-112869285D01*
X126088571Y-110583571D02*
X126088571Y-111440714D01*
X126088571Y-111012142D02*
X124588571Y-111012142D01*
X124802857Y-111155000D01*
X124945714Y-111297857D01*
X125017142Y-111440714D01*
X138788571Y-114297857D02*
X137288571Y-114297857D01*
X137288571Y-113726428D01*
X137360000Y-113583571D01*
X137431428Y-113512142D01*
X137574285Y-113440714D01*
X137788571Y-113440714D01*
X137931428Y-113512142D01*
X138002857Y-113583571D01*
X138074285Y-113726428D01*
X138074285Y-114297857D01*
X138788571Y-112012142D02*
X138788571Y-112869285D01*
X138788571Y-112440714D02*
X137288571Y-112440714D01*
X137502857Y-112583571D01*
X137645714Y-112726428D01*
X137717142Y-112869285D01*
X137288571Y-111512142D02*
X137288571Y-110512142D01*
X138788571Y-111155000D01*
X123548571Y-114297857D02*
X122048571Y-114297857D01*
X122048571Y-113726428D01*
X122120000Y-113583571D01*
X122191428Y-113512142D01*
X122334285Y-113440714D01*
X122548571Y-113440714D01*
X122691428Y-113512142D01*
X122762857Y-113583571D01*
X122834285Y-113726428D01*
X122834285Y-114297857D01*
X123548571Y-112012142D02*
X123548571Y-112869285D01*
X123548571Y-112440714D02*
X122048571Y-112440714D01*
X122262857Y-112583571D01*
X122405714Y-112726428D01*
X122477142Y-112869285D01*
X122048571Y-111083571D02*
X122048571Y-110940714D01*
X122120000Y-110797857D01*
X122191428Y-110726428D01*
X122334285Y-110655000D01*
X122620000Y-110583571D01*
X122977142Y-110583571D01*
X123262857Y-110655000D01*
X123405714Y-110726428D01*
X123477142Y-110797857D01*
X123548571Y-110940714D01*
X123548571Y-111083571D01*
X123477142Y-111226428D01*
X123405714Y-111297857D01*
X123262857Y-111369285D01*
X122977142Y-111440714D01*
X122620000Y-111440714D01*
X122334285Y-111369285D01*
X122191428Y-111297857D01*
X122120000Y-111226428D01*
X122048571Y-111083571D01*
X136248571Y-114297857D02*
X134748571Y-114297857D01*
X134748571Y-113726428D01*
X134820000Y-113583571D01*
X134891428Y-113512142D01*
X135034285Y-113440714D01*
X135248571Y-113440714D01*
X135391428Y-113512142D01*
X135462857Y-113583571D01*
X135534285Y-113726428D01*
X135534285Y-114297857D01*
X136248571Y-112012142D02*
X136248571Y-112869285D01*
X136248571Y-112440714D02*
X134748571Y-112440714D01*
X134962857Y-112583571D01*
X135105714Y-112726428D01*
X135177142Y-112869285D01*
X134748571Y-110726428D02*
X134748571Y-111012142D01*
X134820000Y-111155000D01*
X134891428Y-111226428D01*
X135105714Y-111369285D01*
X135391428Y-111440714D01*
X135962857Y-111440714D01*
X136105714Y-111369285D01*
X136177142Y-111297857D01*
X136248571Y-111155000D01*
X136248571Y-110869285D01*
X136177142Y-110726428D01*
X136105714Y-110655000D01*
X135962857Y-110583571D01*
X135605714Y-110583571D01*
X135462857Y-110655000D01*
X135391428Y-110726428D01*
X135320000Y-110869285D01*
X135320000Y-111155000D01*
X135391428Y-111297857D01*
X135462857Y-111369285D01*
X135605714Y-111440714D01*
X105858571Y-114337857D02*
X104358571Y-114337857D01*
X105858571Y-112837857D02*
X105858571Y-113695000D01*
X105858571Y-113266428D02*
X104358571Y-113266428D01*
X104572857Y-113409285D01*
X104715714Y-113552142D01*
X104787142Y-113695000D01*
X104287142Y-111123571D02*
X106215714Y-112409285D01*
X104430000Y-109837857D02*
X104358571Y-109980714D01*
X104358571Y-110195000D01*
X104430000Y-110409285D01*
X104572857Y-110552142D01*
X104715714Y-110623571D01*
X105001428Y-110695000D01*
X105215714Y-110695000D01*
X105501428Y-110623571D01*
X105644285Y-110552142D01*
X105787142Y-110409285D01*
X105858571Y-110195000D01*
X105858571Y-110052142D01*
X105787142Y-109837857D01*
X105715714Y-109766428D01*
X105215714Y-109766428D01*
X105215714Y-110052142D01*
X105715714Y-108266428D02*
X105787142Y-108337857D01*
X105858571Y-108552142D01*
X105858571Y-108695000D01*
X105787142Y-108909285D01*
X105644285Y-109052142D01*
X105501428Y-109123571D01*
X105215714Y-109195000D01*
X105001428Y-109195000D01*
X104715714Y-109123571D01*
X104572857Y-109052142D01*
X104430000Y-108909285D01*
X104358571Y-108695000D01*
X104358571Y-108552142D01*
X104430000Y-108337857D01*
X104501428Y-108266428D01*
X105858571Y-106909285D02*
X105858571Y-107623571D01*
X104358571Y-107623571D01*
X105858571Y-105552142D02*
X105144285Y-106052142D01*
X105858571Y-106409285D02*
X104358571Y-106409285D01*
X104358571Y-105837857D01*
X104430000Y-105695000D01*
X104501428Y-105623571D01*
X104644285Y-105552142D01*
X104858571Y-105552142D01*
X105001428Y-105623571D01*
X105072857Y-105695000D01*
X105144285Y-105837857D01*
X105144285Y-106409285D01*
X115928571Y-114297857D02*
X114428571Y-114297857D01*
X114428571Y-113726428D01*
X114500000Y-113583571D01*
X114571428Y-113512142D01*
X114714285Y-113440714D01*
X114928571Y-113440714D01*
X115071428Y-113512142D01*
X115142857Y-113583571D01*
X115214285Y-113726428D01*
X115214285Y-114297857D01*
X114428571Y-112155000D02*
X114428571Y-112440714D01*
X114500000Y-112583571D01*
X114571428Y-112655000D01*
X114785714Y-112797857D01*
X115071428Y-112869285D01*
X115642857Y-112869285D01*
X115785714Y-112797857D01*
X115857142Y-112726428D01*
X115928571Y-112583571D01*
X115928571Y-112297857D01*
X115857142Y-112155000D01*
X115785714Y-112083571D01*
X115642857Y-112012142D01*
X115285714Y-112012142D01*
X115142857Y-112083571D01*
X115071428Y-112155000D01*
X115000000Y-112297857D01*
X115000000Y-112583571D01*
X115071428Y-112726428D01*
X115142857Y-112797857D01*
X115285714Y-112869285D01*
D13*
X108782023Y-96797142D02*
X109215357Y-96797142D01*
X109401071Y-97478095D02*
X108782023Y-97478095D01*
X108782023Y-96178095D01*
X109401071Y-96178095D01*
X109958214Y-97478095D02*
X109958214Y-96611428D01*
X109958214Y-96859047D02*
X110020119Y-96735238D01*
X110082023Y-96673333D01*
X110205833Y-96611428D01*
X110329642Y-96611428D01*
X111320119Y-97478095D02*
X111320119Y-96797142D01*
X111258214Y-96673333D01*
X111134404Y-96611428D01*
X110886785Y-96611428D01*
X110762976Y-96673333D01*
X111320119Y-97416190D02*
X111196309Y-97478095D01*
X110886785Y-97478095D01*
X110762976Y-97416190D01*
X110701071Y-97292380D01*
X110701071Y-97168571D01*
X110762976Y-97044761D01*
X110886785Y-96982857D01*
X111196309Y-96982857D01*
X111320119Y-96920952D01*
X111877261Y-97416190D02*
X112001071Y-97478095D01*
X112248690Y-97478095D01*
X112372500Y-97416190D01*
X112434404Y-97292380D01*
X112434404Y-97230476D01*
X112372500Y-97106666D01*
X112248690Y-97044761D01*
X112062976Y-97044761D01*
X111939166Y-96982857D01*
X111877261Y-96859047D01*
X111877261Y-96797142D01*
X111939166Y-96673333D01*
X112062976Y-96611428D01*
X112248690Y-96611428D01*
X112372500Y-96673333D01*
X113486785Y-97416190D02*
X113362976Y-97478095D01*
X113115357Y-97478095D01*
X112991547Y-97416190D01*
X112929642Y-97292380D01*
X112929642Y-96797142D01*
X112991547Y-96673333D01*
X113115357Y-96611428D01*
X113362976Y-96611428D01*
X113486785Y-96673333D01*
X113548690Y-96797142D01*
X113548690Y-96920952D01*
X112929642Y-97044761D01*
X174941309Y-72864464D02*
X175119880Y-72923988D01*
X175179404Y-72983511D01*
X175238928Y-73102559D01*
X175238928Y-73281130D01*
X175179404Y-73400178D01*
X175119880Y-73459702D01*
X175000833Y-73519226D01*
X174524642Y-73519226D01*
X174524642Y-72269226D01*
X174941309Y-72269226D01*
X175060357Y-72328750D01*
X175119880Y-72388273D01*
X175179404Y-72507321D01*
X175179404Y-72626369D01*
X175119880Y-72745416D01*
X175060357Y-72804940D01*
X174941309Y-72864464D01*
X174524642Y-72864464D01*
X176488928Y-73519226D02*
X176072261Y-72923988D01*
X175774642Y-73519226D02*
X175774642Y-72269226D01*
X176250833Y-72269226D01*
X176369880Y-72328750D01*
X176429404Y-72388273D01*
X176488928Y-72507321D01*
X176488928Y-72685892D01*
X176429404Y-72804940D01*
X176369880Y-72864464D01*
X176250833Y-72923988D01*
X175774642Y-72923988D01*
X177024642Y-72864464D02*
X177441309Y-72864464D01*
X177619880Y-73519226D02*
X177024642Y-73519226D01*
X177024642Y-72269226D01*
X177619880Y-72269226D01*
X178096071Y-73162083D02*
X178691309Y-73162083D01*
X177977023Y-73519226D02*
X178393690Y-72269226D01*
X178810357Y-73519226D01*
X179227023Y-73519226D02*
X179227023Y-72269226D01*
X179941309Y-73519226D02*
X179405595Y-72804940D01*
X179941309Y-72269226D02*
X179227023Y-72983511D01*
X180715119Y-72269226D02*
X180953214Y-72269226D01*
X181072261Y-72328750D01*
X181191309Y-72447797D01*
X181250833Y-72685892D01*
X181250833Y-73102559D01*
X181191309Y-73340654D01*
X181072261Y-73459702D01*
X180953214Y-73519226D01*
X180715119Y-73519226D01*
X180596071Y-73459702D01*
X180477023Y-73340654D01*
X180417500Y-73102559D01*
X180417500Y-72685892D01*
X180477023Y-72447797D01*
X180596071Y-72328750D01*
X180715119Y-72269226D01*
X181786547Y-72269226D02*
X181786547Y-73281130D01*
X181846071Y-73400178D01*
X181905595Y-73459702D01*
X182024642Y-73519226D01*
X182262738Y-73519226D01*
X182381785Y-73459702D01*
X182441309Y-73400178D01*
X182500833Y-73281130D01*
X182500833Y-72269226D01*
X182917500Y-72269226D02*
X183631785Y-72269226D01*
X183274642Y-73519226D02*
X183274642Y-72269226D01*
X184048452Y-73043035D02*
X185000833Y-73043035D01*
X185536547Y-73162083D02*
X186131785Y-73162083D01*
X185417500Y-73519226D02*
X185834166Y-72269226D01*
X186250833Y-73519226D01*
X186488928Y-72269226D02*
X187203214Y-72269226D01*
X186846071Y-73519226D02*
X186846071Y-72269226D01*
X188036547Y-72864464D02*
X187619880Y-72864464D01*
X187619880Y-73519226D02*
X187619880Y-72269226D01*
X188215119Y-72269226D01*
X189346071Y-73519226D02*
X188631785Y-73519226D01*
X188988928Y-73519226D02*
X188988928Y-72269226D01*
X188869880Y-72447797D01*
X188750833Y-72566845D01*
X188631785Y-72626369D01*
X190477023Y-72269226D02*
X189881785Y-72269226D01*
X189822261Y-72864464D01*
X189881785Y-72804940D01*
X190000833Y-72745416D01*
X190298452Y-72745416D01*
X190417500Y-72804940D01*
X190477023Y-72864464D01*
X190536547Y-72983511D01*
X190536547Y-73281130D01*
X190477023Y-73400178D01*
X190417500Y-73459702D01*
X190298452Y-73519226D01*
X190000833Y-73519226D01*
X189881785Y-73459702D01*
X189822261Y-73400178D01*
X191310357Y-72269226D02*
X191429404Y-72269226D01*
X191548452Y-72328750D01*
X191607976Y-72388273D01*
X191667500Y-72507321D01*
X191727023Y-72745416D01*
X191727023Y-73043035D01*
X191667500Y-73281130D01*
X191607976Y-73400178D01*
X191548452Y-73459702D01*
X191429404Y-73519226D01*
X191310357Y-73519226D01*
X191191309Y-73459702D01*
X191131785Y-73400178D01*
X191072261Y-73281130D01*
X191012738Y-73043035D01*
X191012738Y-72745416D01*
X191072261Y-72507321D01*
X191131785Y-72388273D01*
X191191309Y-72328750D01*
X191310357Y-72269226D01*
X192441309Y-72804940D02*
X192322261Y-72745416D01*
X192262738Y-72685892D01*
X192203214Y-72566845D01*
X192203214Y-72507321D01*
X192262738Y-72388273D01*
X192322261Y-72328750D01*
X192441309Y-72269226D01*
X192679404Y-72269226D01*
X192798452Y-72328750D01*
X192857976Y-72388273D01*
X192917500Y-72507321D01*
X192917500Y-72566845D01*
X192857976Y-72685892D01*
X192798452Y-72745416D01*
X192679404Y-72804940D01*
X192441309Y-72804940D01*
X192322261Y-72864464D01*
X192262738Y-72923988D01*
X192203214Y-73043035D01*
X192203214Y-73281130D01*
X192262738Y-73400178D01*
X192322261Y-73459702D01*
X192441309Y-73519226D01*
X192679404Y-73519226D01*
X192798452Y-73459702D01*
X192857976Y-73400178D01*
X192917500Y-73281130D01*
X192917500Y-73043035D01*
X192857976Y-72923988D01*
X192798452Y-72864464D01*
X192679404Y-72804940D01*
X193393690Y-73162083D02*
X193988928Y-73162083D01*
X193274642Y-73519226D02*
X193691309Y-72269226D01*
X194107976Y-73519226D01*
X194465119Y-73459702D02*
X194643690Y-73519226D01*
X194941309Y-73519226D01*
X195060357Y-73459702D01*
X195119880Y-73400178D01*
X195179404Y-73281130D01*
X195179404Y-73162083D01*
X195119880Y-73043035D01*
X195060357Y-72983511D01*
X194941309Y-72923988D01*
X194703214Y-72864464D01*
X194584166Y-72804940D01*
X194524642Y-72745416D01*
X194465119Y-72626369D01*
X194465119Y-72507321D01*
X194524642Y-72388273D01*
X194584166Y-72328750D01*
X194703214Y-72269226D01*
X195000833Y-72269226D01*
X195179404Y-72328750D01*
X184762738Y-75531726D02*
X184346071Y-74936488D01*
X184048452Y-75531726D02*
X184048452Y-74281726D01*
X184524642Y-74281726D01*
X184643690Y-74341250D01*
X184703214Y-74400773D01*
X184762738Y-74519821D01*
X184762738Y-74698392D01*
X184703214Y-74817440D01*
X184643690Y-74876964D01*
X184524642Y-74936488D01*
X184048452Y-74936488D01*
X185774642Y-75472202D02*
X185655595Y-75531726D01*
X185417500Y-75531726D01*
X185298452Y-75472202D01*
X185238928Y-75353154D01*
X185238928Y-74876964D01*
X185298452Y-74757916D01*
X185417500Y-74698392D01*
X185655595Y-74698392D01*
X185774642Y-74757916D01*
X185834166Y-74876964D01*
X185834166Y-74996011D01*
X185238928Y-75115059D01*
X186250833Y-74698392D02*
X186548452Y-75531726D01*
X186846071Y-74698392D01*
X187322261Y-75531726D02*
X187322261Y-74698392D01*
X187322261Y-74281726D02*
X187262738Y-74341250D01*
X187322261Y-74400773D01*
X187381785Y-74341250D01*
X187322261Y-74281726D01*
X187322261Y-74400773D01*
X187857976Y-75472202D02*
X187977023Y-75531726D01*
X188215119Y-75531726D01*
X188334166Y-75472202D01*
X188393690Y-75353154D01*
X188393690Y-75293630D01*
X188334166Y-75174583D01*
X188215119Y-75115059D01*
X188036547Y-75115059D01*
X187917500Y-75055535D01*
X187857976Y-74936488D01*
X187857976Y-74876964D01*
X187917500Y-74757916D01*
X188036547Y-74698392D01*
X188215119Y-74698392D01*
X188334166Y-74757916D01*
X188929404Y-75531726D02*
X188929404Y-74698392D01*
X188929404Y-74281726D02*
X188869880Y-74341250D01*
X188929404Y-74400773D01*
X188988928Y-74341250D01*
X188929404Y-74281726D01*
X188929404Y-74400773D01*
X189703214Y-75531726D02*
X189584166Y-75472202D01*
X189524642Y-75412678D01*
X189465119Y-75293630D01*
X189465119Y-74936488D01*
X189524642Y-74817440D01*
X189584166Y-74757916D01*
X189703214Y-74698392D01*
X189881785Y-74698392D01*
X190000833Y-74757916D01*
X190060357Y-74817440D01*
X190119880Y-74936488D01*
X190119880Y-75293630D01*
X190060357Y-75412678D01*
X190000833Y-75472202D01*
X189881785Y-75531726D01*
X189703214Y-75531726D01*
X190655595Y-74698392D02*
X190655595Y-75531726D01*
X190655595Y-74817440D02*
X190715119Y-74757916D01*
X190834166Y-74698392D01*
X191012738Y-74698392D01*
X191131785Y-74757916D01*
X191191309Y-74876964D01*
X191191309Y-75531726D01*
X193393690Y-75531726D02*
X192679404Y-75531726D01*
X193036547Y-75531726D02*
X193036547Y-74281726D01*
X192917500Y-74460297D01*
X192798452Y-74579345D01*
X192679404Y-74638869D01*
X193929404Y-75412678D02*
X193988928Y-75472202D01*
X193929404Y-75531726D01*
X193869880Y-75472202D01*
X193929404Y-75412678D01*
X193929404Y-75531726D01*
X194762738Y-74281726D02*
X194881785Y-74281726D01*
X195000833Y-74341250D01*
X195060357Y-74400773D01*
X195119880Y-74519821D01*
X195179404Y-74757916D01*
X195179404Y-75055535D01*
X195119880Y-75293630D01*
X195060357Y-75412678D01*
X195000833Y-75472202D01*
X194881785Y-75531726D01*
X194762738Y-75531726D01*
X194643690Y-75472202D01*
X194584166Y-75412678D01*
X194524642Y-75293630D01*
X194465119Y-75055535D01*
X194465119Y-74757916D01*
X194524642Y-74519821D01*
X194584166Y-74400773D01*
X194643690Y-74341250D01*
X194762738Y-74281726D01*
D12*
X141328571Y-114297857D02*
X139828571Y-114297857D01*
X139828571Y-113726428D01*
X139900000Y-113583571D01*
X139971428Y-113512142D01*
X140114285Y-113440714D01*
X140328571Y-113440714D01*
X140471428Y-113512142D01*
X140542857Y-113583571D01*
X140614285Y-113726428D01*
X140614285Y-114297857D01*
X141328571Y-112012142D02*
X141328571Y-112869285D01*
X141328571Y-112440714D02*
X139828571Y-112440714D01*
X140042857Y-112583571D01*
X140185714Y-112726428D01*
X140257142Y-112869285D01*
X140471428Y-111155000D02*
X140400000Y-111297857D01*
X140328571Y-111369285D01*
X140185714Y-111440714D01*
X140114285Y-111440714D01*
X139971428Y-111369285D01*
X139900000Y-111297857D01*
X139828571Y-111155000D01*
X139828571Y-110869285D01*
X139900000Y-110726428D01*
X139971428Y-110655000D01*
X140114285Y-110583571D01*
X140185714Y-110583571D01*
X140328571Y-110655000D01*
X140400000Y-110726428D01*
X140471428Y-110869285D01*
X140471428Y-111155000D01*
X140542857Y-111297857D01*
X140614285Y-111369285D01*
X140757142Y-111440714D01*
X141042857Y-111440714D01*
X141185714Y-111369285D01*
X141257142Y-111297857D01*
X141328571Y-111155000D01*
X141328571Y-110869285D01*
X141257142Y-110726428D01*
X141185714Y-110655000D01*
X141042857Y-110583571D01*
X140757142Y-110583571D01*
X140614285Y-110655000D01*
X140542857Y-110726428D01*
X140471428Y-110869285D01*
X156568571Y-114297857D02*
X155068571Y-114297857D01*
X155068571Y-113726428D01*
X155140000Y-113583571D01*
X155211428Y-113512142D01*
X155354285Y-113440714D01*
X155568571Y-113440714D01*
X155711428Y-113512142D01*
X155782857Y-113583571D01*
X155854285Y-113726428D01*
X155854285Y-114297857D01*
X155211428Y-112869285D02*
X155140000Y-112797857D01*
X155068571Y-112655000D01*
X155068571Y-112297857D01*
X155140000Y-112155000D01*
X155211428Y-112083571D01*
X155354285Y-112012142D01*
X155497142Y-112012142D01*
X155711428Y-112083571D01*
X156568571Y-112940714D01*
X156568571Y-112012142D01*
X155068571Y-110655000D02*
X155068571Y-111369285D01*
X155782857Y-111440714D01*
X155711428Y-111369285D01*
X155640000Y-111226428D01*
X155640000Y-110869285D01*
X155711428Y-110726428D01*
X155782857Y-110655000D01*
X155925714Y-110583571D01*
X156282857Y-110583571D01*
X156425714Y-110655000D01*
X156497142Y-110726428D01*
X156568571Y-110869285D01*
X156568571Y-111226428D01*
X156497142Y-111369285D01*
X156425714Y-111440714D01*
X113388571Y-114297857D02*
X111888571Y-114297857D01*
X111888571Y-113726428D01*
X111960000Y-113583571D01*
X112031428Y-113512142D01*
X112174285Y-113440714D01*
X112388571Y-113440714D01*
X112531428Y-113512142D01*
X112602857Y-113583571D01*
X112674285Y-113726428D01*
X112674285Y-114297857D01*
X111888571Y-112083571D02*
X111888571Y-112797857D01*
X112602857Y-112869285D01*
X112531428Y-112797857D01*
X112460000Y-112655000D01*
X112460000Y-112297857D01*
X112531428Y-112155000D01*
X112602857Y-112083571D01*
X112745714Y-112012142D01*
X113102857Y-112012142D01*
X113245714Y-112083571D01*
X113317142Y-112155000D01*
X113388571Y-112297857D01*
X113388571Y-112655000D01*
X113317142Y-112797857D01*
X113245714Y-112869285D01*
X187048571Y-114297857D02*
X185548571Y-114297857D01*
X185548571Y-113726428D01*
X185620000Y-113583571D01*
X185691428Y-113512142D01*
X185834285Y-113440714D01*
X186048571Y-113440714D01*
X186191428Y-113512142D01*
X186262857Y-113583571D01*
X186334285Y-113726428D01*
X186334285Y-114297857D01*
X186048571Y-112155000D02*
X187048571Y-112155000D01*
X185477142Y-112512142D02*
X186548571Y-112869285D01*
X186548571Y-111940714D01*
X185548571Y-111083571D02*
X185548571Y-110940714D01*
X185620000Y-110797857D01*
X185691428Y-110726428D01*
X185834285Y-110655000D01*
X186120000Y-110583571D01*
X186477142Y-110583571D01*
X186762857Y-110655000D01*
X186905714Y-110726428D01*
X186977142Y-110797857D01*
X187048571Y-110940714D01*
X187048571Y-111083571D01*
X186977142Y-111226428D01*
X186905714Y-111297857D01*
X186762857Y-111369285D01*
X186477142Y-111440714D01*
X186120000Y-111440714D01*
X185834285Y-111369285D01*
X185691428Y-111297857D01*
X185620000Y-111226428D01*
X185548571Y-111083571D01*
X189588571Y-114297857D02*
X188088571Y-114297857D01*
X188088571Y-113726428D01*
X188160000Y-113583571D01*
X188231428Y-113512142D01*
X188374285Y-113440714D01*
X188588571Y-113440714D01*
X188731428Y-113512142D01*
X188802857Y-113583571D01*
X188874285Y-113726428D01*
X188874285Y-114297857D01*
X188588571Y-112155000D02*
X189588571Y-112155000D01*
X188017142Y-112512142D02*
X189088571Y-112869285D01*
X189088571Y-111940714D01*
X189588571Y-110583571D02*
X189588571Y-111440714D01*
X189588571Y-111012142D02*
X188088571Y-111012142D01*
X188302857Y-111155000D01*
X188445714Y-111297857D01*
X188517142Y-111440714D01*
X159108571Y-114297857D02*
X157608571Y-114297857D01*
X157608571Y-113726428D01*
X157680000Y-113583571D01*
X157751428Y-113512142D01*
X157894285Y-113440714D01*
X158108571Y-113440714D01*
X158251428Y-113512142D01*
X158322857Y-113583571D01*
X158394285Y-113726428D01*
X158394285Y-114297857D01*
X157751428Y-112869285D02*
X157680000Y-112797857D01*
X157608571Y-112655000D01*
X157608571Y-112297857D01*
X157680000Y-112155000D01*
X157751428Y-112083571D01*
X157894285Y-112012142D01*
X158037142Y-112012142D01*
X158251428Y-112083571D01*
X159108571Y-112940714D01*
X159108571Y-112012142D01*
X157608571Y-111512142D02*
X157608571Y-110512142D01*
X159108571Y-111155000D01*
X161648571Y-114297857D02*
X160148571Y-114297857D01*
X160148571Y-113726428D01*
X160220000Y-113583571D01*
X160291428Y-113512142D01*
X160434285Y-113440714D01*
X160648571Y-113440714D01*
X160791428Y-113512142D01*
X160862857Y-113583571D01*
X160934285Y-113726428D01*
X160934285Y-114297857D01*
X160291428Y-112869285D02*
X160220000Y-112797857D01*
X160148571Y-112655000D01*
X160148571Y-112297857D01*
X160220000Y-112155000D01*
X160291428Y-112083571D01*
X160434285Y-112012142D01*
X160577142Y-112012142D01*
X160791428Y-112083571D01*
X161648571Y-112940714D01*
X161648571Y-112012142D01*
X160791428Y-111155000D02*
X160720000Y-111297857D01*
X160648571Y-111369285D01*
X160505714Y-111440714D01*
X160434285Y-111440714D01*
X160291428Y-111369285D01*
X160220000Y-111297857D01*
X160148571Y-111155000D01*
X160148571Y-110869285D01*
X160220000Y-110726428D01*
X160291428Y-110655000D01*
X160434285Y-110583571D01*
X160505714Y-110583571D01*
X160648571Y-110655000D01*
X160720000Y-110726428D01*
X160791428Y-110869285D01*
X160791428Y-111155000D01*
X160862857Y-111297857D01*
X160934285Y-111369285D01*
X161077142Y-111440714D01*
X161362857Y-111440714D01*
X161505714Y-111369285D01*
X161577142Y-111297857D01*
X161648571Y-111155000D01*
X161648571Y-110869285D01*
X161577142Y-110726428D01*
X161505714Y-110655000D01*
X161362857Y-110583571D01*
X161077142Y-110583571D01*
X160934285Y-110655000D01*
X160862857Y-110726428D01*
X160791428Y-110869285D01*
D13*
X115796309Y-78228095D02*
X116229642Y-79528095D01*
X116662976Y-78228095D01*
X117839166Y-79404285D02*
X117777261Y-79466190D01*
X117591547Y-79528095D01*
X117467738Y-79528095D01*
X117282023Y-79466190D01*
X117158214Y-79342380D01*
X117096309Y-79218571D01*
X117034404Y-78970952D01*
X117034404Y-78785238D01*
X117096309Y-78537619D01*
X117158214Y-78413809D01*
X117282023Y-78290000D01*
X117467738Y-78228095D01*
X117591547Y-78228095D01*
X117777261Y-78290000D01*
X117839166Y-78351904D01*
X119139166Y-79404285D02*
X119077261Y-79466190D01*
X118891547Y-79528095D01*
X118767738Y-79528095D01*
X118582023Y-79466190D01*
X118458214Y-79342380D01*
X118396309Y-79218571D01*
X118334404Y-78970952D01*
X118334404Y-78785238D01*
X118396309Y-78537619D01*
X118458214Y-78413809D01*
X118582023Y-78290000D01*
X118767738Y-78228095D01*
X118891547Y-78228095D01*
X119077261Y-78290000D01*
X119139166Y-78351904D01*
X119696309Y-79528095D02*
X119696309Y-78228095D01*
X120562976Y-78228095D02*
X120810595Y-78228095D01*
X120934404Y-78290000D01*
X121058214Y-78413809D01*
X121120119Y-78661428D01*
X121120119Y-79094761D01*
X121058214Y-79342380D01*
X120934404Y-79466190D01*
X120810595Y-79528095D01*
X120562976Y-79528095D01*
X120439166Y-79466190D01*
X120315357Y-79342380D01*
X120253452Y-79094761D01*
X120253452Y-78661428D01*
X120315357Y-78413809D01*
X120439166Y-78290000D01*
X120562976Y-78228095D01*
D12*
X121008571Y-114297857D02*
X119508571Y-114297857D01*
X119508571Y-113726428D01*
X119580000Y-113583571D01*
X119651428Y-113512142D01*
X119794285Y-113440714D01*
X120008571Y-113440714D01*
X120151428Y-113512142D01*
X120222857Y-113583571D01*
X120294285Y-113726428D01*
X120294285Y-114297857D01*
X121008571Y-112726428D02*
X121008571Y-112440714D01*
X120937142Y-112297857D01*
X120865714Y-112226428D01*
X120651428Y-112083571D01*
X120365714Y-112012142D01*
X119794285Y-112012142D01*
X119651428Y-112083571D01*
X119580000Y-112155000D01*
X119508571Y-112297857D01*
X119508571Y-112583571D01*
X119580000Y-112726428D01*
X119651428Y-112797857D01*
X119794285Y-112869285D01*
X120151428Y-112869285D01*
X120294285Y-112797857D01*
X120365714Y-112726428D01*
X120437142Y-112583571D01*
X120437142Y-112297857D01*
X120365714Y-112155000D01*
X120294285Y-112083571D01*
X120151428Y-112012142D01*
X133708571Y-114297857D02*
X132208571Y-114297857D01*
X132208571Y-113726428D01*
X132280000Y-113583571D01*
X132351428Y-113512142D01*
X132494285Y-113440714D01*
X132708571Y-113440714D01*
X132851428Y-113512142D01*
X132922857Y-113583571D01*
X132994285Y-113726428D01*
X132994285Y-114297857D01*
X133708571Y-112012142D02*
X133708571Y-112869285D01*
X133708571Y-112440714D02*
X132208571Y-112440714D01*
X132422857Y-112583571D01*
X132565714Y-112726428D01*
X132637142Y-112869285D01*
X132208571Y-110655000D02*
X132208571Y-111369285D01*
X132922857Y-111440714D01*
X132851428Y-111369285D01*
X132780000Y-111226428D01*
X132780000Y-110869285D01*
X132851428Y-110726428D01*
X132922857Y-110655000D01*
X133065714Y-110583571D01*
X133422857Y-110583571D01*
X133565714Y-110655000D01*
X133637142Y-110726428D01*
X133708571Y-110869285D01*
X133708571Y-111226428D01*
X133637142Y-111369285D01*
X133565714Y-111440714D01*
X110848571Y-114297857D02*
X109348571Y-114297857D01*
X109348571Y-113726428D01*
X109420000Y-113583571D01*
X109491428Y-113512142D01*
X109634285Y-113440714D01*
X109848571Y-113440714D01*
X109991428Y-113512142D01*
X110062857Y-113583571D01*
X110134285Y-113726428D01*
X110134285Y-114297857D01*
X109848571Y-112155000D02*
X110848571Y-112155000D01*
X109277142Y-112512142D02*
X110348571Y-112869285D01*
X110348571Y-111940714D01*
X193240000Y-113512142D02*
X193168571Y-113655000D01*
X193168571Y-113869285D01*
X193240000Y-114083571D01*
X193382857Y-114226428D01*
X193525714Y-114297857D01*
X193811428Y-114369285D01*
X194025714Y-114369285D01*
X194311428Y-114297857D01*
X194454285Y-114226428D01*
X194597142Y-114083571D01*
X194668571Y-113869285D01*
X194668571Y-113726428D01*
X194597142Y-113512142D01*
X194525714Y-113440714D01*
X194025714Y-113440714D01*
X194025714Y-113726428D01*
X194668571Y-112797857D02*
X193168571Y-112797857D01*
X194668571Y-111940714D01*
X193168571Y-111940714D01*
X194668571Y-111226428D02*
X193168571Y-111226428D01*
X193168571Y-110869285D01*
X193240000Y-110655000D01*
X193382857Y-110512142D01*
X193525714Y-110440714D01*
X193811428Y-110369285D01*
X194025714Y-110369285D01*
X194311428Y-110440714D01*
X194454285Y-110512142D01*
X194597142Y-110655000D01*
X194668571Y-110869285D01*
X194668571Y-111226428D01*
X166728571Y-114297857D02*
X165228571Y-114297857D01*
X165228571Y-113726428D01*
X165300000Y-113583571D01*
X165371428Y-113512142D01*
X165514285Y-113440714D01*
X165728571Y-113440714D01*
X165871428Y-113512142D01*
X165942857Y-113583571D01*
X166014285Y-113726428D01*
X166014285Y-114297857D01*
X165228571Y-112940714D02*
X165228571Y-112012142D01*
X165800000Y-112512142D01*
X165800000Y-112297857D01*
X165871428Y-112155000D01*
X165942857Y-112083571D01*
X166085714Y-112012142D01*
X166442857Y-112012142D01*
X166585714Y-112083571D01*
X166657142Y-112155000D01*
X166728571Y-112297857D01*
X166728571Y-112726428D01*
X166657142Y-112869285D01*
X166585714Y-112940714D01*
X165228571Y-111083571D02*
X165228571Y-110940714D01*
X165300000Y-110797857D01*
X165371428Y-110726428D01*
X165514285Y-110655000D01*
X165800000Y-110583571D01*
X166157142Y-110583571D01*
X166442857Y-110655000D01*
X166585714Y-110726428D01*
X166657142Y-110797857D01*
X166728571Y-110940714D01*
X166728571Y-111083571D01*
X166657142Y-111226428D01*
X166585714Y-111297857D01*
X166442857Y-111369285D01*
X166157142Y-111440714D01*
X165800000Y-111440714D01*
X165514285Y-111369285D01*
X165371428Y-111297857D01*
X165300000Y-111226428D01*
X165228571Y-111083571D01*
X176888571Y-114297857D02*
X175388571Y-114297857D01*
X175388571Y-113726428D01*
X175460000Y-113583571D01*
X175531428Y-113512142D01*
X175674285Y-113440714D01*
X175888571Y-113440714D01*
X176031428Y-113512142D01*
X176102857Y-113583571D01*
X176174285Y-113726428D01*
X176174285Y-114297857D01*
X175388571Y-112940714D02*
X175388571Y-112012142D01*
X175960000Y-112512142D01*
X175960000Y-112297857D01*
X176031428Y-112155000D01*
X176102857Y-112083571D01*
X176245714Y-112012142D01*
X176602857Y-112012142D01*
X176745714Y-112083571D01*
X176817142Y-112155000D01*
X176888571Y-112297857D01*
X176888571Y-112726428D01*
X176817142Y-112869285D01*
X176745714Y-112940714D01*
X175388571Y-110655000D02*
X175388571Y-111369285D01*
X176102857Y-111440714D01*
X176031428Y-111369285D01*
X175960000Y-111226428D01*
X175960000Y-110869285D01*
X176031428Y-110726428D01*
X176102857Y-110655000D01*
X176245714Y-110583571D01*
X176602857Y-110583571D01*
X176745714Y-110655000D01*
X176817142Y-110726428D01*
X176888571Y-110869285D01*
X176888571Y-111226428D01*
X176817142Y-111369285D01*
X176745714Y-111440714D01*
X118468571Y-114297857D02*
X116968571Y-114297857D01*
X116968571Y-113726428D01*
X117040000Y-113583571D01*
X117111428Y-113512142D01*
X117254285Y-113440714D01*
X117468571Y-113440714D01*
X117611428Y-113512142D01*
X117682857Y-113583571D01*
X117754285Y-113726428D01*
X117754285Y-114297857D01*
X117611428Y-112583571D02*
X117540000Y-112726428D01*
X117468571Y-112797857D01*
X117325714Y-112869285D01*
X117254285Y-112869285D01*
X117111428Y-112797857D01*
X117040000Y-112726428D01*
X116968571Y-112583571D01*
X116968571Y-112297857D01*
X117040000Y-112155000D01*
X117111428Y-112083571D01*
X117254285Y-112012142D01*
X117325714Y-112012142D01*
X117468571Y-112083571D01*
X117540000Y-112155000D01*
X117611428Y-112297857D01*
X117611428Y-112583571D01*
X117682857Y-112726428D01*
X117754285Y-112797857D01*
X117897142Y-112869285D01*
X118182857Y-112869285D01*
X118325714Y-112797857D01*
X118397142Y-112726428D01*
X118468571Y-112583571D01*
X118468571Y-112297857D01*
X118397142Y-112155000D01*
X118325714Y-112083571D01*
X118182857Y-112012142D01*
X117897142Y-112012142D01*
X117754285Y-112083571D01*
X117682857Y-112155000D01*
X117611428Y-112297857D01*
X148948571Y-114297857D02*
X147448571Y-114297857D01*
X147448571Y-113726428D01*
X147520000Y-113583571D01*
X147591428Y-113512142D01*
X147734285Y-113440714D01*
X147948571Y-113440714D01*
X148091428Y-113512142D01*
X148162857Y-113583571D01*
X148234285Y-113726428D01*
X148234285Y-114297857D01*
X147591428Y-112869285D02*
X147520000Y-112797857D01*
X147448571Y-112655000D01*
X147448571Y-112297857D01*
X147520000Y-112155000D01*
X147591428Y-112083571D01*
X147734285Y-112012142D01*
X147877142Y-112012142D01*
X148091428Y-112083571D01*
X148948571Y-112940714D01*
X148948571Y-112012142D01*
X147591428Y-111440714D02*
X147520000Y-111369285D01*
X147448571Y-111226428D01*
X147448571Y-110869285D01*
X147520000Y-110726428D01*
X147591428Y-110655000D01*
X147734285Y-110583571D01*
X147877142Y-110583571D01*
X148091428Y-110655000D01*
X148948571Y-111512142D01*
X148948571Y-110583571D01*
X191557142Y-114297857D02*
X191557142Y-113155000D01*
X192128571Y-113726428D02*
X190985714Y-113726428D01*
X190628571Y-111726428D02*
X190628571Y-112440714D01*
X191342857Y-112512142D01*
X191271428Y-112440714D01*
X191200000Y-112297857D01*
X191200000Y-111940714D01*
X191271428Y-111797857D01*
X191342857Y-111726428D01*
X191485714Y-111655000D01*
X191842857Y-111655000D01*
X191985714Y-111726428D01*
X192057142Y-111797857D01*
X192128571Y-111940714D01*
X192128571Y-112297857D01*
X192057142Y-112440714D01*
X191985714Y-112512142D01*
X190628571Y-111226428D02*
X192128571Y-110726428D01*
X190628571Y-110226428D01*
D13*
X108263333Y-114354166D02*
X106863333Y-114354166D01*
X106996666Y-113754166D02*
X106930000Y-113687500D01*
X106863333Y-113554166D01*
X106863333Y-113220833D01*
X106930000Y-113087500D01*
X106996666Y-113020833D01*
X107130000Y-112954166D01*
X107263333Y-112954166D01*
X107463333Y-113020833D01*
X108263333Y-113820833D01*
X108263333Y-112954166D01*
X106796666Y-111354166D02*
X108596666Y-112554166D01*
X106930000Y-110154166D02*
X106863333Y-110287500D01*
X106863333Y-110487500D01*
X106930000Y-110687500D01*
X107063333Y-110820833D01*
X107196666Y-110887500D01*
X107463333Y-110954166D01*
X107663333Y-110954166D01*
X107930000Y-110887500D01*
X108063333Y-110820833D01*
X108196666Y-110687500D01*
X108263333Y-110487500D01*
X108263333Y-110354166D01*
X108196666Y-110154166D01*
X108130000Y-110087500D01*
X107663333Y-110087500D01*
X107663333Y-110354166D01*
X108130000Y-108687500D02*
X108196666Y-108754166D01*
X108263333Y-108954166D01*
X108263333Y-109087500D01*
X108196666Y-109287500D01*
X108063333Y-109420833D01*
X107930000Y-109487500D01*
X107663333Y-109554166D01*
X107463333Y-109554166D01*
X107196666Y-109487500D01*
X107063333Y-109420833D01*
X106930000Y-109287500D01*
X106863333Y-109087500D01*
X106863333Y-108954166D01*
X106930000Y-108754166D01*
X106996666Y-108687500D01*
X108263333Y-107420833D02*
X108263333Y-108087500D01*
X106863333Y-108087500D01*
X108263333Y-106954166D02*
X106863333Y-106954166D01*
X108263333Y-106154166D02*
X107463333Y-106754166D01*
X106863333Y-106154166D02*
X107663333Y-106954166D01*
X106996666Y-105620833D02*
X106930000Y-105554166D01*
X106863333Y-105420833D01*
X106863333Y-105087500D01*
X106930000Y-104954166D01*
X106996666Y-104887500D01*
X107130000Y-104820833D01*
X107263333Y-104820833D01*
X107463333Y-104887500D01*
X108263333Y-105687500D01*
X108263333Y-104820833D01*
D12*
X174348571Y-114297857D02*
X172848571Y-114297857D01*
X172848571Y-113726428D01*
X172920000Y-113583571D01*
X172991428Y-113512142D01*
X173134285Y-113440714D01*
X173348571Y-113440714D01*
X173491428Y-113512142D01*
X173562857Y-113583571D01*
X173634285Y-113726428D01*
X173634285Y-114297857D01*
X172848571Y-112940714D02*
X172848571Y-112012142D01*
X173420000Y-112512142D01*
X173420000Y-112297857D01*
X173491428Y-112155000D01*
X173562857Y-112083571D01*
X173705714Y-112012142D01*
X174062857Y-112012142D01*
X174205714Y-112083571D01*
X174277142Y-112155000D01*
X174348571Y-112297857D01*
X174348571Y-112726428D01*
X174277142Y-112869285D01*
X174205714Y-112940714D01*
X173348571Y-110726428D02*
X174348571Y-110726428D01*
X172777142Y-111083571D02*
X173848571Y-111440714D01*
X173848571Y-110512142D01*
X143868571Y-114297857D02*
X142368571Y-114297857D01*
X142368571Y-113726428D01*
X142440000Y-113583571D01*
X142511428Y-113512142D01*
X142654285Y-113440714D01*
X142868571Y-113440714D01*
X143011428Y-113512142D01*
X143082857Y-113583571D01*
X143154285Y-113726428D01*
X143154285Y-114297857D01*
X142511428Y-112869285D02*
X142440000Y-112797857D01*
X142368571Y-112655000D01*
X142368571Y-112297857D01*
X142440000Y-112155000D01*
X142511428Y-112083571D01*
X142654285Y-112012142D01*
X142797142Y-112012142D01*
X143011428Y-112083571D01*
X143868571Y-112940714D01*
X143868571Y-112012142D01*
X142368571Y-111083571D02*
X142368571Y-110940714D01*
X142440000Y-110797857D01*
X142511428Y-110726428D01*
X142654285Y-110655000D01*
X142940000Y-110583571D01*
X143297142Y-110583571D01*
X143582857Y-110655000D01*
X143725714Y-110726428D01*
X143797142Y-110797857D01*
X143868571Y-110940714D01*
X143868571Y-111083571D01*
X143797142Y-111226428D01*
X143725714Y-111297857D01*
X143582857Y-111369285D01*
X143297142Y-111440714D01*
X142940000Y-111440714D01*
X142654285Y-111369285D01*
X142511428Y-111297857D01*
X142440000Y-111226428D01*
X142368571Y-111083571D01*
X184508571Y-114297857D02*
X183008571Y-114297857D01*
X183008571Y-113726428D01*
X183080000Y-113583571D01*
X183151428Y-113512142D01*
X183294285Y-113440714D01*
X183508571Y-113440714D01*
X183651428Y-113512142D01*
X183722857Y-113583571D01*
X183794285Y-113726428D01*
X183794285Y-114297857D01*
X183008571Y-112940714D02*
X183008571Y-112012142D01*
X183580000Y-112512142D01*
X183580000Y-112297857D01*
X183651428Y-112155000D01*
X183722857Y-112083571D01*
X183865714Y-112012142D01*
X184222857Y-112012142D01*
X184365714Y-112083571D01*
X184437142Y-112155000D01*
X184508571Y-112297857D01*
X184508571Y-112726428D01*
X184437142Y-112869285D01*
X184365714Y-112940714D01*
X184508571Y-111297857D02*
X184508571Y-111012142D01*
X184437142Y-110869285D01*
X184365714Y-110797857D01*
X184151428Y-110655000D01*
X183865714Y-110583571D01*
X183294285Y-110583571D01*
X183151428Y-110655000D01*
X183080000Y-110726428D01*
X183008571Y-110869285D01*
X183008571Y-111155000D01*
X183080000Y-111297857D01*
X183151428Y-111369285D01*
X183294285Y-111440714D01*
X183651428Y-111440714D01*
X183794285Y-111369285D01*
X183865714Y-111297857D01*
X183937142Y-111155000D01*
X183937142Y-110869285D01*
X183865714Y-110726428D01*
X183794285Y-110655000D01*
X183651428Y-110583571D01*
D13*
X109524880Y-102568095D02*
X109091547Y-101949047D01*
X108782023Y-102568095D02*
X108782023Y-101268095D01*
X109277261Y-101268095D01*
X109401071Y-101330000D01*
X109462976Y-101391904D01*
X109524880Y-101515714D01*
X109524880Y-101701428D01*
X109462976Y-101825238D01*
X109401071Y-101887142D01*
X109277261Y-101949047D01*
X108782023Y-101949047D01*
X110639166Y-101701428D02*
X110639166Y-102568095D01*
X110082023Y-101701428D02*
X110082023Y-102382380D01*
X110143928Y-102506190D01*
X110267738Y-102568095D01*
X110453452Y-102568095D01*
X110577261Y-102506190D01*
X110639166Y-102444285D01*
X111258214Y-101701428D02*
X111258214Y-102568095D01*
X111258214Y-101825238D02*
X111320119Y-101763333D01*
X111443928Y-101701428D01*
X111629642Y-101701428D01*
X111753452Y-101763333D01*
X111815357Y-101887142D01*
X111815357Y-102568095D01*
D12*
X169268571Y-114297857D02*
X167768571Y-114297857D01*
X167768571Y-113726428D01*
X167840000Y-113583571D01*
X167911428Y-113512142D01*
X168054285Y-113440714D01*
X168268571Y-113440714D01*
X168411428Y-113512142D01*
X168482857Y-113583571D01*
X168554285Y-113726428D01*
X168554285Y-114297857D01*
X167768571Y-112940714D02*
X167768571Y-112012142D01*
X168340000Y-112512142D01*
X168340000Y-112297857D01*
X168411428Y-112155000D01*
X168482857Y-112083571D01*
X168625714Y-112012142D01*
X168982857Y-112012142D01*
X169125714Y-112083571D01*
X169197142Y-112155000D01*
X169268571Y-112297857D01*
X169268571Y-112726428D01*
X169197142Y-112869285D01*
X169125714Y-112940714D01*
X169268571Y-110583571D02*
X169268571Y-111440714D01*
X169268571Y-111012142D02*
X167768571Y-111012142D01*
X167982857Y-111155000D01*
X168125714Y-111297857D01*
X168197142Y-111440714D01*
D10*
X146218095Y-92452380D02*
X146218095Y-93261904D01*
X146265714Y-93357142D01*
X146313333Y-93404761D01*
X146408571Y-93452380D01*
X146599047Y-93452380D01*
X146694285Y-93404761D01*
X146741904Y-93357142D01*
X146789523Y-93261904D01*
X146789523Y-92452380D01*
X147789523Y-93452380D02*
X147218095Y-93452380D01*
X147503809Y-93452380D02*
X147503809Y-92452380D01*
X147408571Y-92595238D01*
X147313333Y-92690476D01*
X147218095Y-92738095D01*
X104360476Y-78032380D02*
X105027142Y-79032380D01*
X105027142Y-78032380D02*
X104360476Y-79032380D01*
X105931904Y-79032380D02*
X105360476Y-79032380D01*
X105646190Y-79032380D02*
X105646190Y-78032380D01*
X105550952Y-78175238D01*
X105455714Y-78270476D01*
X105360476Y-78318095D01*
D14*
X102732776Y-93767500D02*
X103242224Y-93767500D01*
X102732776Y-94812500D02*
X103242224Y-94812500D01*
X102735276Y-95287500D02*
X103244724Y-95287500D01*
X102735276Y-96332500D02*
X103244724Y-96332500D01*
X139300000Y-70070000D02*
X139300000Y-72730000D01*
X152060000Y-70070000D02*
X139300000Y-70070000D01*
X154660000Y-70070000D02*
X154660000Y-71400000D01*
X152060000Y-70070000D02*
X152060000Y-72730000D01*
X153330000Y-70070000D02*
X154660000Y-70070000D01*
X152060000Y-72730000D02*
X139300000Y-72730000D01*
X101175000Y-94920000D02*
X101175000Y-91770000D01*
X99475000Y-94920000D02*
X99475000Y-91770000D01*
X99475000Y-94920000D02*
X101175000Y-94920000D01*
X98815000Y-88571248D02*
X98815000Y-89093752D01*
X101035000Y-88571248D02*
X101035000Y-89093752D01*
X103234724Y-91777500D02*
X102725276Y-91777500D01*
X103234724Y-92822500D02*
X102725276Y-92822500D01*
X105040000Y-88536233D02*
X105040000Y-88828767D01*
X106060000Y-88536233D02*
X106060000Y-88828767D01*
X107840000Y-100670000D02*
X107840000Y-95530000D01*
X105180000Y-100670000D02*
X105180000Y-95530000D01*
X107840000Y-100670000D02*
X105180000Y-100670000D01*
X107840000Y-103270000D02*
X106510000Y-103270000D01*
X107840000Y-101940000D02*
X107840000Y-103270000D01*
X107840000Y-95530000D02*
X105180000Y-95530000D01*
X104615000Y-88830000D02*
X104615000Y-89630000D01*
X101495000Y-88830000D02*
X101495000Y-88030000D01*
X104615000Y-88830000D02*
X104615000Y-88030000D01*
X101495000Y-88830000D02*
X101495000Y-90630000D01*
X115050000Y-80190000D02*
X113720000Y-80190000D01*
X115050000Y-72450000D02*
X112390000Y-72450000D01*
X115050000Y-78860000D02*
X115050000Y-80190000D01*
X112390000Y-77590000D02*
X112390000Y-72450000D01*
X115050000Y-77590000D02*
X112390000Y-77590000D01*
X115050000Y-77590000D02*
X115050000Y-72450000D01*
X99820000Y-96583733D02*
X99820000Y-96876267D01*
X100840000Y-96583733D02*
X100840000Y-96876267D01*
X195315000Y-120330000D02*
X195315000Y-115130000D01*
X101275000Y-117730000D02*
X98675000Y-117730000D01*
X101275000Y-120330000D02*
X101275000Y-117730000D01*
X98675000Y-115130000D02*
X195315000Y-115130000D01*
X101275000Y-120330000D02*
X195315000Y-120330000D01*
X98675000Y-117730000D02*
X98675000Y-115130000D01*
X100005000Y-120330000D02*
X98675000Y-120330000D01*
X98675000Y-120330000D02*
X98675000Y-119000000D01*
X128870000Y-108895000D02*
X129870000Y-109895000D01*
X129870000Y-109895000D02*
X165090000Y-109895000D01*
X165090000Y-109895000D02*
X165090000Y-73645000D01*
X128870000Y-92770000D02*
X128870000Y-108895000D01*
X128870000Y-73645000D02*
X128870000Y-90770000D01*
X165090000Y-73645000D02*
X128870000Y-73645000D01*
X99470000Y-85030000D02*
X110870000Y-85030000D01*
X111620000Y-84280000D02*
X111620000Y-72880000D01*
X110870000Y-72130000D02*
X98720000Y-72130000D01*
X98720000Y-72130000D02*
X98720000Y-84280000D01*
X110870000Y-85030000D02*
G75*
G03*
X111620000Y-84280000I0J750000D01*
G01*
X111620000Y-72880000D02*
G75*
G03*
X110870000Y-72130000I-750000J0D01*
G01*
X98720000Y-84280000D02*
G75*
G03*
X99470000Y-85030000I750000J0D01*
G01*
%LPC*%
D15*
X102075000Y-94290000D03*
X103900000Y-94290000D03*
X102077500Y-95810000D03*
X103902500Y-95810000D03*
D16*
X153330000Y-71400000D03*
D17*
X150790000Y-71400000D03*
X148250000Y-71400000D03*
X145710000Y-71400000D03*
X143170000Y-71400000D03*
X140630000Y-71400000D03*
D18*
X100325000Y-94270000D03*
X100325000Y-91770000D03*
D19*
X99925000Y-87670000D03*
X99925000Y-89995000D03*
D20*
X103892500Y-92300000D03*
X102067500Y-92300000D03*
D21*
X105550000Y-87820000D03*
X105550000Y-89545000D03*
D16*
X106510000Y-101940000D03*
D17*
X106510000Y-99400000D03*
X106510000Y-96860000D03*
D22*
X102105000Y-89967500D03*
X103055000Y-89967500D03*
X104005000Y-89967500D03*
X104005000Y-87692500D03*
X102105000Y-87692500D03*
D16*
X113720000Y-78860000D03*
D17*
X113720000Y-76320000D03*
X113720000Y-73780000D03*
D21*
X100330000Y-95867500D03*
X100330000Y-97592500D03*
D16*
X100005000Y-119000000D03*
D17*
X100005000Y-116460000D03*
X102545000Y-119000000D03*
X102545000Y-116460000D03*
X105085000Y-119000000D03*
X105085000Y-116460000D03*
X107625000Y-119000000D03*
X107625000Y-116460000D03*
X110165000Y-119000000D03*
X110165000Y-116460000D03*
X112705000Y-119000000D03*
X112705000Y-116460000D03*
X115245000Y-119000000D03*
X115245000Y-116460000D03*
X117785000Y-119000000D03*
X117785000Y-116460000D03*
X120325000Y-119000000D03*
X120325000Y-116460000D03*
X122865000Y-119000000D03*
X122865000Y-116460000D03*
X125405000Y-119000000D03*
X125405000Y-116460000D03*
X127945000Y-119000000D03*
X127945000Y-116460000D03*
X130485000Y-119000000D03*
X130485000Y-116460000D03*
X133025000Y-119000000D03*
X133025000Y-116460000D03*
X135565000Y-119000000D03*
X135565000Y-116460000D03*
X138105000Y-119000000D03*
X138105000Y-116460000D03*
X140645000Y-119000000D03*
X140645000Y-116460000D03*
X143185000Y-119000000D03*
X143185000Y-116460000D03*
X145725000Y-119000000D03*
X145725000Y-116460000D03*
X148265000Y-119000000D03*
X148265000Y-116460000D03*
X150805000Y-119000000D03*
X150805000Y-116460000D03*
X153345000Y-119000000D03*
X153345000Y-116460000D03*
X155885000Y-119000000D03*
X155885000Y-116460000D03*
X158425000Y-119000000D03*
X158425000Y-116460000D03*
X160965000Y-119000000D03*
X160965000Y-116460000D03*
X163505000Y-119000000D03*
X163505000Y-116460000D03*
X166045000Y-119000000D03*
X166045000Y-116460000D03*
X168585000Y-119000000D03*
X168585000Y-116460000D03*
X171125000Y-119000000D03*
X171125000Y-116460000D03*
X173665000Y-119000000D03*
X173665000Y-116460000D03*
X176205000Y-119000000D03*
X176205000Y-116460000D03*
X178745000Y-119000000D03*
X178745000Y-116460000D03*
X181285000Y-119000000D03*
X181285000Y-116460000D03*
X183825000Y-119000000D03*
X183825000Y-116460000D03*
X186365000Y-119000000D03*
X186365000Y-116460000D03*
X188905000Y-119000000D03*
X188905000Y-116460000D03*
X191445000Y-119000000D03*
X191445000Y-116460000D03*
X193985000Y-119000000D03*
X193985000Y-116460000D03*
D23*
X131740000Y-91770000D03*
D24*
X134280000Y-91770000D03*
X131740000Y-94310000D03*
X134280000Y-94310000D03*
X131740000Y-96850000D03*
X134280000Y-96850000D03*
X131740000Y-99390000D03*
X134280000Y-99390000D03*
X131740000Y-101930000D03*
X134280000Y-101930000D03*
X131740000Y-104470000D03*
X134280000Y-107010000D03*
X134280000Y-104470000D03*
X136820000Y-107010000D03*
X136820000Y-104470000D03*
X139360000Y-107010000D03*
X139360000Y-104470000D03*
X141900000Y-107010000D03*
X141900000Y-104470000D03*
X144440000Y-107010000D03*
X144440000Y-104470000D03*
X146980000Y-107010000D03*
X146980000Y-104470000D03*
X149520000Y-107010000D03*
X149520000Y-104470000D03*
X152060000Y-107010000D03*
X152060000Y-104470000D03*
X154600000Y-107010000D03*
X154600000Y-104470000D03*
X157140000Y-107010000D03*
X157140000Y-104470000D03*
X159680000Y-107010000D03*
X162220000Y-104470000D03*
X159680000Y-104470000D03*
X162220000Y-101930000D03*
X159680000Y-101930000D03*
X162220000Y-99390000D03*
X159680000Y-99390000D03*
X162220000Y-96850000D03*
X159680000Y-96850000D03*
X162220000Y-94310000D03*
X159680000Y-94310000D03*
X162220000Y-91770000D03*
X159680000Y-91770000D03*
X162220000Y-89230000D03*
X159680000Y-89230000D03*
X162220000Y-86690000D03*
X159680000Y-86690000D03*
X162220000Y-84150000D03*
X159680000Y-84150000D03*
X162220000Y-81610000D03*
X159680000Y-81610000D03*
X162220000Y-79070000D03*
X159680000Y-76530000D03*
X159680000Y-79070000D03*
X157140000Y-76530000D03*
X157140000Y-79070000D03*
X154600000Y-76530000D03*
X154600000Y-79070000D03*
X152060000Y-76530000D03*
X152060000Y-79070000D03*
X149520000Y-76530000D03*
X149520000Y-79070000D03*
X146980000Y-76530000D03*
X146980000Y-79070000D03*
X144440000Y-76530000D03*
X144440000Y-79070000D03*
X141900000Y-76530000D03*
X141900000Y-79070000D03*
X139360000Y-76530000D03*
X139360000Y-79070000D03*
X136820000Y-76530000D03*
X136820000Y-79070000D03*
X134280000Y-76530000D03*
X131740000Y-79070000D03*
X134280000Y-79070000D03*
X131740000Y-81610000D03*
X134280000Y-81610000D03*
X131740000Y-84150000D03*
X134280000Y-84150000D03*
X131740000Y-86690000D03*
X134280000Y-86690000D03*
X131740000Y-89230000D03*
X134280000Y-89230000D03*
D25*
X101360000Y-74770000D03*
D26*
X101360000Y-82390000D03*
X108980000Y-82390000D03*
X108980000Y-74770000D03*
M02*
