G04 #@! TF.GenerationSoftware,KiCad,Pcbnew,6.0.1*
G04 #@! TF.CreationDate,2022-02-14T19:14:05-08:00*
G04 #@! TF.ProjectId,BREAKOUT-ATF1508AS,42524541-4b4f-4555-942d-415446313530,rev?*
G04 #@! TF.SameCoordinates,Original*
G04 #@! TF.FileFunction,Copper,L4,Bot*
G04 #@! TF.FilePolarity,Positive*
%FSLAX46Y46*%
G04 Gerber Fmt 4.6, Leading zero omitted, Abs format (unit mm)*
G04 Created by KiCad (PCBNEW 6.0.1) date 2022-02-14 19:14:05*
%MOMM*%
%LPD*%
G01*
G04 APERTURE LIST*
G04 Aperture macros list*
%AMRoundRect*
0 Rectangle with rounded corners*
0 $1 Rounding radius*
0 $2 $3 $4 $5 $6 $7 $8 $9 X,Y pos of 4 corners*
0 Add a 4 corners polygon primitive as box body*
4,1,4,$2,$3,$4,$5,$6,$7,$8,$9,$2,$3,0*
0 Add four circle primitives for the rounded corners*
1,1,$1+$1,$2,$3*
1,1,$1+$1,$4,$5*
1,1,$1+$1,$6,$7*
1,1,$1+$1,$8,$9*
0 Add four rect primitives between the rounded corners*
20,1,$1+$1,$2,$3,$4,$5,0*
20,1,$1+$1,$4,$5,$6,$7,0*
20,1,$1+$1,$6,$7,$8,$9,0*
20,1,$1+$1,$8,$9,$2,$3,0*%
G04 Aperture macros list end*
G04 #@! TA.AperFunction,ComponentPad*
%ADD10R,1.700000X1.700000*%
G04 #@! TD*
G04 #@! TA.AperFunction,ComponentPad*
%ADD11O,1.700000X1.700000*%
G04 #@! TD*
G04 #@! TA.AperFunction,ComponentPad*
%ADD12R,1.422400X1.422400*%
G04 #@! TD*
G04 #@! TA.AperFunction,ComponentPad*
%ADD13C,1.422400*%
G04 #@! TD*
G04 #@! TA.AperFunction,ComponentPad*
%ADD14R,1.600000X1.600000*%
G04 #@! TD*
G04 #@! TA.AperFunction,ComponentPad*
%ADD15C,1.600000*%
G04 #@! TD*
G04 #@! TA.AperFunction,SMDPad,CuDef*
%ADD16RoundRect,0.237500X0.300000X0.237500X-0.300000X0.237500X-0.300000X-0.237500X0.300000X-0.237500X0*%
G04 #@! TD*
G04 #@! TA.AperFunction,SMDPad,CuDef*
%ADD17RoundRect,0.237500X-0.300000X-0.237500X0.300000X-0.237500X0.300000X0.237500X-0.300000X0.237500X0*%
G04 #@! TD*
G04 #@! TA.AperFunction,SMDPad,CuDef*
%ADD18RoundRect,0.237500X0.237500X-0.300000X0.237500X0.300000X-0.237500X0.300000X-0.237500X-0.300000X0*%
G04 #@! TD*
G04 #@! TA.AperFunction,SMDPad,CuDef*
%ADD19RoundRect,0.237500X-0.237500X0.300000X-0.237500X-0.300000X0.237500X-0.300000X0.237500X0.300000X0*%
G04 #@! TD*
G04 #@! TA.AperFunction,ViaPad*
%ADD20C,0.600000*%
G04 #@! TD*
G04 #@! TA.AperFunction,Conductor*
%ADD21C,0.254000*%
G04 #@! TD*
G04 APERTURE END LIST*
D10*
X153330000Y-71400000D03*
D11*
X150790000Y-71400000D03*
X148250000Y-71400000D03*
X145710000Y-71400000D03*
X143170000Y-71400000D03*
X140630000Y-71400000D03*
D10*
X106510000Y-101940000D03*
D11*
X106510000Y-99400000D03*
X106510000Y-96860000D03*
D10*
X113720000Y-78860000D03*
D11*
X113720000Y-76320000D03*
X113720000Y-73780000D03*
D10*
X100005000Y-119000000D03*
D11*
X100005000Y-116460000D03*
X102545000Y-119000000D03*
X102545000Y-116460000D03*
X105085000Y-119000000D03*
X105085000Y-116460000D03*
X107625000Y-119000000D03*
X107625000Y-116460000D03*
X110165000Y-119000000D03*
X110165000Y-116460000D03*
X112705000Y-119000000D03*
X112705000Y-116460000D03*
X115245000Y-119000000D03*
X115245000Y-116460000D03*
X117785000Y-119000000D03*
X117785000Y-116460000D03*
X120325000Y-119000000D03*
X120325000Y-116460000D03*
X122865000Y-119000000D03*
X122865000Y-116460000D03*
X125405000Y-119000000D03*
X125405000Y-116460000D03*
X127945000Y-119000000D03*
X127945000Y-116460000D03*
X130485000Y-119000000D03*
X130485000Y-116460000D03*
X133025000Y-119000000D03*
X133025000Y-116460000D03*
X135565000Y-119000000D03*
X135565000Y-116460000D03*
X138105000Y-119000000D03*
X138105000Y-116460000D03*
X140645000Y-119000000D03*
X140645000Y-116460000D03*
X143185000Y-119000000D03*
X143185000Y-116460000D03*
X145725000Y-119000000D03*
X145725000Y-116460000D03*
X148265000Y-119000000D03*
X148265000Y-116460000D03*
X150805000Y-119000000D03*
X150805000Y-116460000D03*
X153345000Y-119000000D03*
X153345000Y-116460000D03*
X155885000Y-119000000D03*
X155885000Y-116460000D03*
X158425000Y-119000000D03*
X158425000Y-116460000D03*
X160965000Y-119000000D03*
X160965000Y-116460000D03*
X163505000Y-119000000D03*
X163505000Y-116460000D03*
X166045000Y-119000000D03*
X166045000Y-116460000D03*
X168585000Y-119000000D03*
X168585000Y-116460000D03*
X171125000Y-119000000D03*
X171125000Y-116460000D03*
X173665000Y-119000000D03*
X173665000Y-116460000D03*
X176205000Y-119000000D03*
X176205000Y-116460000D03*
X178745000Y-119000000D03*
X178745000Y-116460000D03*
X181285000Y-119000000D03*
X181285000Y-116460000D03*
X183825000Y-119000000D03*
X183825000Y-116460000D03*
X186365000Y-119000000D03*
X186365000Y-116460000D03*
X188905000Y-119000000D03*
X188905000Y-116460000D03*
X191445000Y-119000000D03*
X191445000Y-116460000D03*
X193985000Y-119000000D03*
X193985000Y-116460000D03*
D12*
X131740000Y-91770000D03*
D13*
X134280000Y-91770000D03*
X131740000Y-94310000D03*
X134280000Y-94310000D03*
X131740000Y-96850000D03*
X134280000Y-96850000D03*
X131740000Y-99390000D03*
X134280000Y-99390000D03*
X131740000Y-101930000D03*
X134280000Y-101930000D03*
X131740000Y-104470000D03*
X134280000Y-107010000D03*
X134280000Y-104470000D03*
X136820000Y-107010000D03*
X136820000Y-104470000D03*
X139360000Y-107010000D03*
X139360000Y-104470000D03*
X141900000Y-107010000D03*
X141900000Y-104470000D03*
X144440000Y-107010000D03*
X144440000Y-104470000D03*
X146980000Y-107010000D03*
X146980000Y-104470000D03*
X149520000Y-107010000D03*
X149520000Y-104470000D03*
X152060000Y-107010000D03*
X152060000Y-104470000D03*
X154600000Y-107010000D03*
X154600000Y-104470000D03*
X157140000Y-107010000D03*
X157140000Y-104470000D03*
X159680000Y-107010000D03*
X162220000Y-104470000D03*
X159680000Y-104470000D03*
X162220000Y-101930000D03*
X159680000Y-101930000D03*
X162220000Y-99390000D03*
X159680000Y-99390000D03*
X162220000Y-96850000D03*
X159680000Y-96850000D03*
X162220000Y-94310000D03*
X159680000Y-94310000D03*
X162220000Y-91770000D03*
X159680000Y-91770000D03*
X162220000Y-89230000D03*
X159680000Y-89230000D03*
X162220000Y-86690000D03*
X159680000Y-86690000D03*
X162220000Y-84150000D03*
X159680000Y-84150000D03*
X162220000Y-81610000D03*
X159680000Y-81610000D03*
X162220000Y-79070000D03*
X159680000Y-76530000D03*
X159680000Y-79070000D03*
X157140000Y-76530000D03*
X157140000Y-79070000D03*
X154600000Y-76530000D03*
X154600000Y-79070000D03*
X152060000Y-76530000D03*
X152060000Y-79070000D03*
X149520000Y-76530000D03*
X149520000Y-79070000D03*
X146980000Y-76530000D03*
X146980000Y-79070000D03*
X144440000Y-76530000D03*
X144440000Y-79070000D03*
X141900000Y-76530000D03*
X141900000Y-79070000D03*
X139360000Y-76530000D03*
X139360000Y-79070000D03*
X136820000Y-76530000D03*
X136820000Y-79070000D03*
X134280000Y-76530000D03*
X131740000Y-79070000D03*
X134280000Y-79070000D03*
X131740000Y-81610000D03*
X134280000Y-81610000D03*
X131740000Y-84150000D03*
X134280000Y-84150000D03*
X131740000Y-86690000D03*
X134280000Y-86690000D03*
X131740000Y-89230000D03*
X134280000Y-89230000D03*
D14*
X101360000Y-74770000D03*
D15*
X101360000Y-82390000D03*
X108980000Y-82390000D03*
X108980000Y-74770000D03*
D16*
X106912500Y-74770000D03*
X105187500Y-74770000D03*
D17*
X163890000Y-91760000D03*
X165615000Y-91760000D03*
X163850000Y-98150000D03*
X165575000Y-98150000D03*
X152037500Y-108850000D03*
X153762500Y-108850000D03*
D18*
X132500000Y-77180000D03*
X132500000Y-75455000D03*
D19*
X131730000Y-107110000D03*
X131730000Y-108835000D03*
D18*
X161470000Y-77180000D03*
X161470000Y-75455000D03*
D19*
X145700000Y-80850000D03*
X145700000Y-82575000D03*
D16*
X130050000Y-94300000D03*
X128325000Y-94300000D03*
D20*
X131730000Y-110620000D03*
X145700000Y-83710000D03*
X127050000Y-94960000D03*
X166710000Y-98150000D03*
X105560000Y-90670000D03*
X131430000Y-75680000D03*
X105190000Y-75850000D03*
X166620000Y-92760000D03*
X154250000Y-110280000D03*
X103060000Y-91220000D03*
X100330000Y-98720000D03*
X162530000Y-75690000D03*
X107630000Y-108300000D03*
X127750000Y-82890000D03*
X161350000Y-98150000D03*
X131730000Y-105980000D03*
X110165000Y-97395000D03*
X112705000Y-95305000D03*
X99940000Y-86300000D03*
X105560000Y-86290000D03*
X104310000Y-86290000D03*
X103000000Y-86290000D03*
X101460000Y-86300000D03*
X115250000Y-84150000D03*
X117780000Y-81630000D03*
X120330000Y-80340000D03*
X122860000Y-79070000D03*
X125410000Y-77720000D03*
X168585000Y-79035000D03*
X171100000Y-80340000D03*
X173680000Y-81610000D03*
X176210000Y-82870000D03*
X178750000Y-84150000D03*
X181285000Y-97425000D03*
X183825000Y-102865000D03*
X186370000Y-108280000D03*
X188905000Y-113455000D03*
X145705000Y-75525000D03*
D21*
X153762500Y-108850000D02*
X153762500Y-109792500D01*
X127710000Y-94300000D02*
X127050000Y-94960000D01*
X165615000Y-91760000D02*
X165620000Y-91760000D01*
X162295000Y-75455000D02*
X162530000Y-75690000D01*
X131730000Y-108835000D02*
X131730000Y-110620000D01*
X165575000Y-98150000D02*
X166710000Y-98150000D01*
X105187500Y-74770000D02*
X105187500Y-75847500D01*
X128325000Y-94300000D02*
X127710000Y-94300000D01*
X145700000Y-82575000D02*
X145700000Y-83710000D01*
X132275000Y-75680000D02*
X132500000Y-75455000D01*
X165620000Y-91760000D02*
X166620000Y-92760000D01*
X105187500Y-75847500D02*
X105190000Y-75850000D01*
X161470000Y-75455000D02*
X162295000Y-75455000D01*
X153762500Y-109792500D02*
X154250000Y-110280000D01*
X131430000Y-75680000D02*
X132275000Y-75680000D01*
X107625000Y-108305000D02*
X107630000Y-108300000D01*
X128880000Y-89230000D02*
X127750000Y-88100000D01*
X127750000Y-88100000D02*
X127750000Y-82890000D01*
X131740000Y-89230000D02*
X128880000Y-89230000D01*
X107625000Y-116460000D02*
X107625000Y-108305000D01*
X152037500Y-107032500D02*
X152060000Y-107010000D01*
X161350000Y-98150000D02*
X163850000Y-98150000D01*
X161470000Y-77180000D02*
X161470000Y-78320000D01*
X145700000Y-77790000D02*
X144440000Y-76530000D01*
X133020000Y-80350000D02*
X133020000Y-77700000D01*
X161470000Y-78320000D02*
X162220000Y-79070000D01*
X145700000Y-80850000D02*
X145700000Y-77790000D01*
X134280000Y-81610000D02*
X133020000Y-80350000D01*
X152037500Y-108850000D02*
X152037500Y-107032500D01*
X133020000Y-77700000D02*
X132500000Y-77180000D01*
X131730000Y-107110000D02*
X131730000Y-105980000D01*
X110165000Y-116460000D02*
X110165000Y-97395000D01*
X112705000Y-116460000D02*
X112705000Y-95305000D01*
X163890000Y-91760000D02*
X162230000Y-91760000D01*
X162230000Y-91760000D02*
X162220000Y-91770000D01*
X131740000Y-94310000D02*
X130060000Y-94310000D01*
X130060000Y-94310000D02*
X130050000Y-94300000D01*
X115245000Y-84155000D02*
X115250000Y-84150000D01*
X115245000Y-116460000D02*
X115245000Y-84155000D01*
X117785000Y-116460000D02*
X117785000Y-91755000D01*
X117780000Y-91750000D02*
X117785000Y-91755000D01*
X117780000Y-81630000D02*
X117780000Y-91750000D01*
X120325000Y-80345000D02*
X120330000Y-80340000D01*
X120325000Y-91775000D02*
X120325000Y-80345000D01*
X120325000Y-116460000D02*
X120325000Y-91775000D01*
X122865000Y-91765000D02*
X122865000Y-80565000D01*
X122865000Y-80345000D02*
X122865000Y-80565000D01*
X122860000Y-80340000D02*
X122865000Y-80345000D01*
X122860000Y-79070000D02*
X122860000Y-80340000D01*
X122865000Y-116460000D02*
X122865000Y-91765000D01*
X125405000Y-91775000D02*
X125405000Y-77725000D01*
X125405000Y-77725000D02*
X125410000Y-77720000D01*
X125405000Y-116460000D02*
X125405000Y-91775000D01*
X136820000Y-79070000D02*
X136820000Y-96230000D01*
X132250000Y-100680000D02*
X130770000Y-100680000D01*
X132990000Y-99940000D02*
X132250000Y-100680000D01*
X130770000Y-100680000D02*
X127945000Y-103505000D01*
X132990000Y-98870000D02*
X132990000Y-99940000D01*
X134940000Y-98110000D02*
X133750000Y-98110000D01*
X133750000Y-98110000D02*
X132990000Y-98870000D01*
X136820000Y-96230000D02*
X134940000Y-98110000D01*
X127945000Y-103505000D02*
X127945000Y-116460000D01*
X133830000Y-100660000D02*
X134930000Y-100660000D01*
X131380000Y-103250000D02*
X132190000Y-103250000D01*
X133010000Y-102430000D02*
X133010000Y-101480000D01*
X134930000Y-100660000D02*
X139360000Y-96230000D01*
X130485000Y-116460000D02*
X130485000Y-104145000D01*
X132190000Y-103250000D02*
X133010000Y-102430000D01*
X130485000Y-104145000D02*
X131380000Y-103250000D01*
X133010000Y-101480000D02*
X133830000Y-100660000D01*
X139360000Y-96230000D02*
X139360000Y-79070000D01*
X133025000Y-104065000D02*
X133910000Y-103180000D01*
X140640000Y-97210000D02*
X140640000Y-77810000D01*
X134670000Y-103180000D02*
X140640000Y-97210000D01*
X133910000Y-103180000D02*
X134670000Y-103180000D01*
X133025000Y-116460000D02*
X133025000Y-104065000D01*
X140640000Y-77810000D02*
X139360000Y-76530000D01*
X135565000Y-104005000D02*
X141900000Y-97670000D01*
X135565000Y-116460000D02*
X135565000Y-104005000D01*
X141900000Y-97670000D02*
X141900000Y-79070000D01*
X143160000Y-77790000D02*
X141900000Y-76530000D01*
X138105000Y-103495000D02*
X143160000Y-98440000D01*
X138105000Y-116460000D02*
X138105000Y-103495000D01*
X143160000Y-98440000D02*
X143160000Y-77790000D01*
X144440000Y-99720000D02*
X144440000Y-79070000D01*
X140645000Y-116460000D02*
X140645000Y-103515000D01*
X140645000Y-103515000D02*
X144440000Y-99720000D01*
X146980000Y-99710000D02*
X146980000Y-79070000D01*
X143185000Y-103505000D02*
X146980000Y-99710000D01*
X143185000Y-116460000D02*
X143185000Y-103505000D01*
X148230000Y-77780000D02*
X148230000Y-101010000D01*
X145720000Y-103640000D02*
X145725000Y-103645000D01*
X145720000Y-103520000D02*
X145720000Y-103640000D01*
X148230000Y-101010000D02*
X145720000Y-103520000D01*
X145725000Y-103645000D02*
X145725000Y-116460000D01*
X146980000Y-76530000D02*
X148230000Y-77780000D01*
X149520000Y-102320000D02*
X148265000Y-103575000D01*
X148265000Y-116460000D02*
X148265000Y-103575000D01*
X149520000Y-79070000D02*
X149520000Y-102320000D01*
X148250000Y-72880000D02*
X149520000Y-74150000D01*
X149520000Y-74150000D02*
X149520000Y-76530000D01*
X150805000Y-116460000D02*
X150805000Y-77815000D01*
X148250000Y-71400000D02*
X148250000Y-72880000D01*
X150805000Y-77815000D02*
X149520000Y-76530000D01*
X153345000Y-107635000D02*
X152900000Y-108080000D01*
X152060000Y-79070000D02*
X152060000Y-102300000D01*
X152900000Y-108080000D02*
X152900000Y-114210000D01*
X152060000Y-102300000D02*
X153345000Y-103585000D01*
X153345000Y-103585000D02*
X153345000Y-107635000D01*
X152900000Y-114210000D02*
X153345000Y-114655000D01*
X153345000Y-114655000D02*
X153345000Y-116460000D01*
X153320000Y-77790000D02*
X153320000Y-100850000D01*
X155885000Y-103415000D02*
X155885000Y-116460000D01*
X152060000Y-76530000D02*
X153320000Y-77790000D01*
X153320000Y-100850000D02*
X155885000Y-103415000D01*
X154600000Y-76530000D02*
X155890000Y-77820000D01*
X158425000Y-104005000D02*
X158425000Y-116460000D01*
X154620000Y-100200000D02*
X158425000Y-104005000D01*
X154620000Y-80890000D02*
X154620000Y-100200000D01*
X155890000Y-79620000D02*
X154620000Y-80890000D01*
X155890000Y-77820000D02*
X155890000Y-79620000D01*
X160070000Y-103180000D02*
X159300000Y-103180000D01*
X155960000Y-99840000D02*
X155960000Y-81090000D01*
X160965000Y-104075000D02*
X160070000Y-103180000D01*
X157140000Y-79910000D02*
X157140000Y-79070000D01*
X160965000Y-116460000D02*
X160965000Y-104075000D01*
X159300000Y-103180000D02*
X155960000Y-99840000D01*
X155960000Y-81090000D02*
X157140000Y-79910000D01*
X158980000Y-100650000D02*
X157190000Y-98860000D01*
X163505000Y-116460000D02*
X163505000Y-104085000D01*
X163505000Y-104085000D02*
X162650000Y-103230000D01*
X161760000Y-103230000D02*
X160970000Y-102440000D01*
X160970000Y-102440000D02*
X160970000Y-101390000D01*
X157190000Y-81100000D02*
X158380000Y-79910000D01*
X162650000Y-103230000D02*
X161760000Y-103230000D01*
X158380000Y-79910000D02*
X158380000Y-77770000D01*
X157190000Y-98860000D02*
X157190000Y-81100000D01*
X160970000Y-101390000D02*
X160230000Y-100650000D01*
X160230000Y-100650000D02*
X158980000Y-100650000D01*
X158380000Y-77770000D02*
X157140000Y-76530000D01*
X163770000Y-100640000D02*
X166045000Y-102915000D01*
X166045000Y-102915000D02*
X166045000Y-116460000D01*
X159680000Y-79070000D02*
X159680000Y-79940000D01*
X160960000Y-100010000D02*
X161590000Y-100640000D01*
X160210000Y-98160000D02*
X160960000Y-98910000D01*
X158285000Y-97365000D02*
X159080000Y-98160000D01*
X159080000Y-98160000D02*
X160210000Y-98160000D01*
X161590000Y-100640000D02*
X163770000Y-100640000D01*
X160960000Y-98910000D02*
X160960000Y-100010000D01*
X159680000Y-79940000D02*
X158285000Y-81335000D01*
X158285000Y-81335000D02*
X158285000Y-97365000D01*
X168585000Y-116460000D02*
X168585000Y-79035000D01*
X171125000Y-80365000D02*
X171100000Y-80340000D01*
X171125000Y-116460000D02*
X171125000Y-80365000D01*
X173665000Y-116460000D02*
X173665000Y-81625000D01*
X173665000Y-81625000D02*
X173680000Y-81610000D01*
X176205000Y-116460000D02*
X176205000Y-82875000D01*
X176205000Y-82875000D02*
X176210000Y-82870000D01*
X178745000Y-84155000D02*
X178750000Y-84150000D01*
X178745000Y-116460000D02*
X178745000Y-84155000D01*
X181285000Y-116460000D02*
X181285000Y-97425000D01*
X183825000Y-116460000D02*
X183825000Y-102865000D01*
X186365000Y-116460000D02*
X186365000Y-109065000D01*
X186365000Y-108285000D02*
X186370000Y-108280000D01*
X186365000Y-109065000D02*
X186365000Y-108285000D01*
X188905000Y-116460000D02*
X188905000Y-113455000D01*
X140630000Y-72560000D02*
X140630000Y-71400000D01*
X144425000Y-74245000D02*
X145705000Y-75525000D01*
X144425000Y-74245000D02*
X142315000Y-74245000D01*
X142315000Y-74245000D02*
X140630000Y-72560000D01*
X113720000Y-76320000D02*
X110530000Y-76320000D01*
X110530000Y-76320000D02*
X108980000Y-74770000D01*
X106912500Y-74770000D02*
X108980000Y-74770000D01*
X106510000Y-106770000D02*
X105085000Y-108195000D01*
X106510000Y-101940000D02*
X106510000Y-106770000D01*
X105085000Y-116460000D02*
X105085000Y-108195000D01*
M02*
