G04 #@! TF.GenerationSoftware,KiCad,Pcbnew,6.0.1*
G04 #@! TF.CreationDate,2022-02-14T19:14:06-08:00*
G04 #@! TF.ProjectId,BREAKOUT-ATF1508AS,42524541-4b4f-4555-942d-415446313530,rev?*
G04 #@! TF.SameCoordinates,Original*
G04 #@! TF.FileFunction,Legend,Bot*
G04 #@! TF.FilePolarity,Positive*
%FSLAX46Y46*%
G04 Gerber Fmt 4.6, Leading zero omitted, Abs format (unit mm)*
G04 Created by KiCad (PCBNEW 6.0.1) date 2022-02-14 19:14:06*
%MOMM*%
%LPD*%
G01*
G04 APERTURE LIST*
G04 Aperture macros list*
%AMRoundRect*
0 Rectangle with rounded corners*
0 $1 Rounding radius*
0 $2 $3 $4 $5 $6 $7 $8 $9 X,Y pos of 4 corners*
0 Add a 4 corners polygon primitive as box body*
4,1,4,$2,$3,$4,$5,$6,$7,$8,$9,$2,$3,0*
0 Add four circle primitives for the rounded corners*
1,1,$1+$1,$2,$3*
1,1,$1+$1,$4,$5*
1,1,$1+$1,$6,$7*
1,1,$1+$1,$8,$9*
0 Add four rect primitives between the rounded corners*
20,1,$1+$1,$2,$3,$4,$5,0*
20,1,$1+$1,$4,$5,$6,$7,0*
20,1,$1+$1,$6,$7,$8,$9,0*
20,1,$1+$1,$8,$9,$2,$3,0*%
G04 Aperture macros list end*
%ADD10C,0.150000*%
%ADD11C,0.300000*%
%ADD12C,0.200000*%
%ADD13C,0.275000*%
%ADD14C,0.120000*%
%ADD15R,1.700000X1.700000*%
%ADD16O,1.700000X1.700000*%
%ADD17R,1.422400X1.422400*%
%ADD18C,1.422400*%
%ADD19R,1.600000X1.600000*%
%ADD20C,1.600000*%
%ADD21RoundRect,0.237500X0.300000X0.237500X-0.300000X0.237500X-0.300000X-0.237500X0.300000X-0.237500X0*%
%ADD22RoundRect,0.237500X-0.300000X-0.237500X0.300000X-0.237500X0.300000X0.237500X-0.300000X0.237500X0*%
%ADD23RoundRect,0.237500X0.237500X-0.300000X0.237500X0.300000X-0.237500X0.300000X-0.237500X-0.300000X0*%
%ADD24RoundRect,0.237500X-0.237500X0.300000X-0.237500X-0.300000X0.237500X-0.300000X0.237500X0.300000X0*%
G04 APERTURE END LIST*
D10*
X111510000Y-101740000D02*
X111510000Y-110050000D01*
X149560000Y-114130000D02*
X149560000Y-111170000D01*
X149560000Y-115110000D02*
X149560000Y-114130000D01*
X169880000Y-114690000D02*
X169880000Y-111290000D01*
X149560000Y-115110000D02*
X129200000Y-115110000D01*
X190210000Y-115110000D02*
X169880000Y-115110000D01*
X169880000Y-110040000D02*
X149560000Y-110040000D01*
X169880000Y-114690000D02*
X169880000Y-115110000D01*
X129200000Y-110050000D02*
X129200000Y-115110000D01*
X108910000Y-101740000D02*
X111510000Y-101740000D01*
X149560000Y-110040000D02*
X129200000Y-110050000D01*
X108910000Y-115110000D02*
X108910000Y-110510000D01*
X190210000Y-110030000D02*
X190210000Y-115110000D01*
X169880000Y-110040000D02*
X190210000Y-110030000D01*
X169880000Y-115110000D02*
X149560000Y-115110000D01*
X169880000Y-111290000D02*
X169880000Y-110040000D01*
X129200000Y-115110000D02*
X108910000Y-115110000D01*
X108910000Y-110510000D02*
X108910000Y-110050000D01*
X149560000Y-111170000D02*
X149560000Y-110040000D01*
X108910000Y-101880000D02*
X108910000Y-101740000D01*
X108910000Y-110050000D02*
X108910000Y-101880000D01*
X111510000Y-110050000D02*
X129200000Y-110050000D01*
D11*
X181988571Y-110862142D02*
X180488571Y-110862142D01*
X180488571Y-111433571D01*
X180560000Y-111576428D01*
X180631428Y-111647857D01*
X180774285Y-111719285D01*
X180988571Y-111719285D01*
X181131428Y-111647857D01*
X181202857Y-111576428D01*
X181274285Y-111433571D01*
X181274285Y-110862142D01*
X180988571Y-113005000D02*
X181988571Y-113005000D01*
X180417142Y-112647857D02*
X181488571Y-112290714D01*
X181488571Y-113219285D01*
X181131428Y-114005000D02*
X181060000Y-113862142D01*
X180988571Y-113790714D01*
X180845714Y-113719285D01*
X180774285Y-113719285D01*
X180631428Y-113790714D01*
X180560000Y-113862142D01*
X180488571Y-114005000D01*
X180488571Y-114290714D01*
X180560000Y-114433571D01*
X180631428Y-114505000D01*
X180774285Y-114576428D01*
X180845714Y-114576428D01*
X180988571Y-114505000D01*
X181060000Y-114433571D01*
X181131428Y-114290714D01*
X181131428Y-114005000D01*
X181202857Y-113862142D01*
X181274285Y-113790714D01*
X181417142Y-113719285D01*
X181702857Y-113719285D01*
X181845714Y-113790714D01*
X181917142Y-113862142D01*
X181988571Y-114005000D01*
X181988571Y-114290714D01*
X181917142Y-114433571D01*
X181845714Y-114505000D01*
X181702857Y-114576428D01*
X181417142Y-114576428D01*
X181274285Y-114505000D01*
X181202857Y-114433571D01*
X181131428Y-114290714D01*
D12*
X151372857Y-110725714D02*
X150172857Y-110725714D01*
X150172857Y-111182857D01*
X150230000Y-111297142D01*
X150287142Y-111354285D01*
X150401428Y-111411428D01*
X150572857Y-111411428D01*
X150687142Y-111354285D01*
X150744285Y-111297142D01*
X150801428Y-111182857D01*
X150801428Y-110725714D01*
X150172857Y-112440000D02*
X150172857Y-112211428D01*
X150230000Y-112097142D01*
X150287142Y-112040000D01*
X150458571Y-111925714D01*
X150687142Y-111868571D01*
X151144285Y-111868571D01*
X151258571Y-111925714D01*
X151315714Y-111982857D01*
X151372857Y-112097142D01*
X151372857Y-112325714D01*
X151315714Y-112440000D01*
X151258571Y-112497142D01*
X151144285Y-112554285D01*
X150858571Y-112554285D01*
X150744285Y-112497142D01*
X150687142Y-112440000D01*
X150630000Y-112325714D01*
X150630000Y-112097142D01*
X150687142Y-111982857D01*
X150744285Y-111925714D01*
X150858571Y-111868571D01*
X150287142Y-113011428D02*
X150230000Y-113068571D01*
X150172857Y-113182857D01*
X150172857Y-113468571D01*
X150230000Y-113582857D01*
X150287142Y-113640000D01*
X150401428Y-113697142D01*
X150515714Y-113697142D01*
X150687142Y-113640000D01*
X151372857Y-112954285D01*
X151372857Y-113697142D01*
X150172857Y-114382857D02*
X150458571Y-114382857D01*
X150344285Y-114097142D02*
X150458571Y-114382857D01*
X150344285Y-114668571D01*
X150687142Y-114211428D02*
X150458571Y-114382857D01*
X150687142Y-114554285D01*
D10*
X195233928Y-72921785D02*
X195233928Y-72171785D01*
X194912500Y-72921785D02*
X194912500Y-72528928D01*
X194948214Y-72457500D01*
X195019642Y-72421785D01*
X195126785Y-72421785D01*
X195198214Y-72457500D01*
X195233928Y-72493214D01*
X194662500Y-72421785D02*
X194376785Y-72421785D01*
X194555357Y-72171785D02*
X194555357Y-72814642D01*
X194519642Y-72886071D01*
X194448214Y-72921785D01*
X194376785Y-72921785D01*
X194233928Y-72421785D02*
X193948214Y-72421785D01*
X194126785Y-72171785D02*
X194126785Y-72814642D01*
X194091071Y-72886071D01*
X194019642Y-72921785D01*
X193948214Y-72921785D01*
X193698214Y-72421785D02*
X193698214Y-73171785D01*
X193698214Y-72457500D02*
X193626785Y-72421785D01*
X193483928Y-72421785D01*
X193412500Y-72457500D01*
X193376785Y-72493214D01*
X193341071Y-72564642D01*
X193341071Y-72778928D01*
X193376785Y-72850357D01*
X193412500Y-72886071D01*
X193483928Y-72921785D01*
X193626785Y-72921785D01*
X193698214Y-72886071D01*
X193055357Y-72886071D02*
X192983928Y-72921785D01*
X192841071Y-72921785D01*
X192769642Y-72886071D01*
X192733928Y-72814642D01*
X192733928Y-72778928D01*
X192769642Y-72707500D01*
X192841071Y-72671785D01*
X192948214Y-72671785D01*
X193019642Y-72636071D01*
X193055357Y-72564642D01*
X193055357Y-72528928D01*
X193019642Y-72457500D01*
X192948214Y-72421785D01*
X192841071Y-72421785D01*
X192769642Y-72457500D01*
X192412500Y-72850357D02*
X192376785Y-72886071D01*
X192412500Y-72921785D01*
X192448214Y-72886071D01*
X192412500Y-72850357D01*
X192412500Y-72921785D01*
X192412500Y-72457500D02*
X192376785Y-72493214D01*
X192412500Y-72528928D01*
X192448214Y-72493214D01*
X192412500Y-72457500D01*
X192412500Y-72528928D01*
X191519642Y-72136071D02*
X192162500Y-73100357D01*
X190733928Y-72136071D02*
X191376785Y-73100357D01*
X190483928Y-72421785D02*
X190483928Y-72921785D01*
X190483928Y-72493214D02*
X190448214Y-72457500D01*
X190376785Y-72421785D01*
X190269642Y-72421785D01*
X190198214Y-72457500D01*
X190162500Y-72528928D01*
X190162500Y-72921785D01*
X189805357Y-72921785D02*
X189805357Y-72421785D01*
X189805357Y-72564642D02*
X189769642Y-72493214D01*
X189733928Y-72457500D01*
X189662500Y-72421785D01*
X189591071Y-72421785D01*
X189233928Y-72921785D02*
X189305357Y-72886071D01*
X189341071Y-72814642D01*
X189341071Y-72171785D01*
X188662500Y-72886071D02*
X188733928Y-72921785D01*
X188876785Y-72921785D01*
X188948214Y-72886071D01*
X188983928Y-72814642D01*
X188983928Y-72528928D01*
X188948214Y-72457500D01*
X188876785Y-72421785D01*
X188733928Y-72421785D01*
X188662500Y-72457500D01*
X188626785Y-72528928D01*
X188626785Y-72600357D01*
X188983928Y-72671785D01*
X188376785Y-72421785D02*
X188233928Y-72921785D01*
X188091071Y-72564642D01*
X187948214Y-72921785D01*
X187805357Y-72421785D01*
X187519642Y-72921785D02*
X187519642Y-72421785D01*
X187519642Y-72171785D02*
X187555357Y-72207500D01*
X187519642Y-72243214D01*
X187483928Y-72207500D01*
X187519642Y-72171785D01*
X187519642Y-72243214D01*
X187198214Y-72886071D02*
X187126785Y-72921785D01*
X186983928Y-72921785D01*
X186912500Y-72886071D01*
X186876785Y-72814642D01*
X186876785Y-72778928D01*
X186912500Y-72707500D01*
X186983928Y-72671785D01*
X187091071Y-72671785D01*
X187162500Y-72636071D01*
X187198214Y-72564642D01*
X187198214Y-72528928D01*
X187162500Y-72457500D01*
X187091071Y-72421785D01*
X186983928Y-72421785D01*
X186912500Y-72457500D01*
X186555357Y-72850357D02*
X186519642Y-72886071D01*
X186555357Y-72921785D01*
X186591071Y-72886071D01*
X186555357Y-72850357D01*
X186555357Y-72921785D01*
X185876785Y-72921785D02*
X185876785Y-72171785D01*
X185876785Y-72886071D02*
X185948214Y-72921785D01*
X186091071Y-72921785D01*
X186162500Y-72886071D01*
X186198214Y-72850357D01*
X186233928Y-72778928D01*
X186233928Y-72564642D01*
X186198214Y-72493214D01*
X186162500Y-72457500D01*
X186091071Y-72421785D01*
X185948214Y-72421785D01*
X185876785Y-72457500D01*
X185233928Y-72886071D02*
X185305357Y-72921785D01*
X185448214Y-72921785D01*
X185519642Y-72886071D01*
X185555357Y-72814642D01*
X185555357Y-72528928D01*
X185519642Y-72457500D01*
X185448214Y-72421785D01*
X185305357Y-72421785D01*
X185233928Y-72457500D01*
X185198214Y-72528928D01*
X185198214Y-72600357D01*
X185555357Y-72671785D01*
X184948214Y-72421785D02*
X184769642Y-72921785D01*
X184591071Y-72421785D01*
X183769642Y-72136071D02*
X184412500Y-73100357D01*
X183519642Y-72921785D02*
X183519642Y-72171785D01*
X183198214Y-72921785D02*
X183198214Y-72528928D01*
X183233928Y-72457500D01*
X183305357Y-72421785D01*
X183412500Y-72421785D01*
X183483928Y-72457500D01*
X183519642Y-72493214D01*
X182519642Y-72921785D02*
X182519642Y-72528928D01*
X182555357Y-72457500D01*
X182626785Y-72421785D01*
X182769642Y-72421785D01*
X182841071Y-72457500D01*
X182519642Y-72886071D02*
X182591071Y-72921785D01*
X182769642Y-72921785D01*
X182841071Y-72886071D01*
X182876785Y-72814642D01*
X182876785Y-72743214D01*
X182841071Y-72671785D01*
X182769642Y-72636071D01*
X182591071Y-72636071D01*
X182519642Y-72600357D01*
X182162500Y-72921785D02*
X182162500Y-72421785D01*
X182162500Y-72564642D02*
X182126785Y-72493214D01*
X182091071Y-72457500D01*
X182019642Y-72421785D01*
X181948214Y-72421785D01*
X181376785Y-72921785D02*
X181376785Y-72171785D01*
X181376785Y-72886071D02*
X181448214Y-72921785D01*
X181591071Y-72921785D01*
X181662500Y-72886071D01*
X181698214Y-72850357D01*
X181733928Y-72778928D01*
X181733928Y-72564642D01*
X181698214Y-72493214D01*
X181662500Y-72457500D01*
X181591071Y-72421785D01*
X181448214Y-72421785D01*
X181376785Y-72457500D01*
X181091071Y-72421785D02*
X180948214Y-72921785D01*
X180805357Y-72564642D01*
X180662500Y-72921785D01*
X180519642Y-72421785D01*
X179912500Y-72921785D02*
X179912500Y-72528928D01*
X179948214Y-72457500D01*
X180019642Y-72421785D01*
X180162500Y-72421785D01*
X180233928Y-72457500D01*
X179912500Y-72886071D02*
X179983928Y-72921785D01*
X180162500Y-72921785D01*
X180233928Y-72886071D01*
X180269642Y-72814642D01*
X180269642Y-72743214D01*
X180233928Y-72671785D01*
X180162500Y-72636071D01*
X179983928Y-72636071D01*
X179912500Y-72600357D01*
X179555357Y-72921785D02*
X179555357Y-72421785D01*
X179555357Y-72564642D02*
X179519642Y-72493214D01*
X179483928Y-72457500D01*
X179412500Y-72421785D01*
X179341071Y-72421785D01*
X178805357Y-72886071D02*
X178876785Y-72921785D01*
X179019642Y-72921785D01*
X179091071Y-72886071D01*
X179126785Y-72814642D01*
X179126785Y-72528928D01*
X179091071Y-72457500D01*
X179019642Y-72421785D01*
X178876785Y-72421785D01*
X178805357Y-72457500D01*
X178769642Y-72528928D01*
X178769642Y-72600357D01*
X179126785Y-72671785D01*
X177912500Y-72136071D02*
X178555357Y-73100357D01*
X177412500Y-72528928D02*
X177305357Y-72564642D01*
X177269642Y-72600357D01*
X177233928Y-72671785D01*
X177233928Y-72778928D01*
X177269642Y-72850357D01*
X177305357Y-72886071D01*
X177376785Y-72921785D01*
X177662500Y-72921785D01*
X177662500Y-72171785D01*
X177412500Y-72171785D01*
X177341071Y-72207500D01*
X177305357Y-72243214D01*
X177269642Y-72314642D01*
X177269642Y-72386071D01*
X177305357Y-72457500D01*
X177341071Y-72493214D01*
X177412500Y-72528928D01*
X177662500Y-72528928D01*
X176483928Y-72921785D02*
X176733928Y-72564642D01*
X176912500Y-72921785D02*
X176912500Y-72171785D01*
X176626785Y-72171785D01*
X176555357Y-72207500D01*
X176519642Y-72243214D01*
X176483928Y-72314642D01*
X176483928Y-72421785D01*
X176519642Y-72493214D01*
X176555357Y-72528928D01*
X176626785Y-72564642D01*
X176912500Y-72564642D01*
X176162500Y-72528928D02*
X175912500Y-72528928D01*
X175805357Y-72921785D02*
X176162500Y-72921785D01*
X176162500Y-72171785D01*
X175805357Y-72171785D01*
X175519642Y-72707500D02*
X175162500Y-72707500D01*
X175591071Y-72921785D02*
X175341071Y-72171785D01*
X175091071Y-72921785D01*
X174841071Y-72921785D02*
X174841071Y-72171785D01*
X174412500Y-72921785D02*
X174733928Y-72493214D01*
X174412500Y-72171785D02*
X174841071Y-72600357D01*
X173948214Y-72171785D02*
X173805357Y-72171785D01*
X173733928Y-72207500D01*
X173662500Y-72278928D01*
X173626785Y-72421785D01*
X173626785Y-72671785D01*
X173662500Y-72814642D01*
X173733928Y-72886071D01*
X173805357Y-72921785D01*
X173948214Y-72921785D01*
X174019642Y-72886071D01*
X174091071Y-72814642D01*
X174126785Y-72671785D01*
X174126785Y-72421785D01*
X174091071Y-72278928D01*
X174019642Y-72207500D01*
X173948214Y-72171785D01*
X173305357Y-72171785D02*
X173305357Y-72778928D01*
X173269642Y-72850357D01*
X173233928Y-72886071D01*
X173162500Y-72921785D01*
X173019642Y-72921785D01*
X172948214Y-72886071D01*
X172912500Y-72850357D01*
X172876785Y-72778928D01*
X172876785Y-72171785D01*
X172626785Y-72171785D02*
X172198214Y-72171785D01*
X172412500Y-72921785D02*
X172412500Y-72171785D01*
X171948214Y-72636071D02*
X171376785Y-72636071D01*
X171055357Y-72707500D02*
X170698214Y-72707500D01*
X171126785Y-72921785D02*
X170876785Y-72171785D01*
X170626785Y-72921785D01*
X170483928Y-72171785D02*
X170055357Y-72171785D01*
X170269642Y-72921785D02*
X170269642Y-72171785D01*
X169555357Y-72528928D02*
X169805357Y-72528928D01*
X169805357Y-72921785D02*
X169805357Y-72171785D01*
X169448214Y-72171785D01*
X168769642Y-72921785D02*
X169198214Y-72921785D01*
X168983928Y-72921785D02*
X168983928Y-72171785D01*
X169055357Y-72278928D01*
X169126785Y-72350357D01*
X169198214Y-72386071D01*
X168091071Y-72171785D02*
X168448214Y-72171785D01*
X168483928Y-72528928D01*
X168448214Y-72493214D01*
X168376785Y-72457500D01*
X168198214Y-72457500D01*
X168126785Y-72493214D01*
X168091071Y-72528928D01*
X168055357Y-72600357D01*
X168055357Y-72778928D01*
X168091071Y-72850357D01*
X168126785Y-72886071D01*
X168198214Y-72921785D01*
X168376785Y-72921785D01*
X168448214Y-72886071D01*
X168483928Y-72850357D01*
X167591071Y-72171785D02*
X167519642Y-72171785D01*
X167448214Y-72207500D01*
X167412500Y-72243214D01*
X167376785Y-72314642D01*
X167341071Y-72457500D01*
X167341071Y-72636071D01*
X167376785Y-72778928D01*
X167412500Y-72850357D01*
X167448214Y-72886071D01*
X167519642Y-72921785D01*
X167591071Y-72921785D01*
X167662500Y-72886071D01*
X167698214Y-72850357D01*
X167733928Y-72778928D01*
X167769642Y-72636071D01*
X167769642Y-72457500D01*
X167733928Y-72314642D01*
X167698214Y-72243214D01*
X167662500Y-72207500D01*
X167591071Y-72171785D01*
X166912500Y-72493214D02*
X166983928Y-72457500D01*
X167019642Y-72421785D01*
X167055357Y-72350357D01*
X167055357Y-72314642D01*
X167019642Y-72243214D01*
X166983928Y-72207500D01*
X166912500Y-72171785D01*
X166769642Y-72171785D01*
X166698214Y-72207500D01*
X166662500Y-72243214D01*
X166626785Y-72314642D01*
X166626785Y-72350357D01*
X166662500Y-72421785D01*
X166698214Y-72457500D01*
X166769642Y-72493214D01*
X166912500Y-72493214D01*
X166983928Y-72528928D01*
X167019642Y-72564642D01*
X167055357Y-72636071D01*
X167055357Y-72778928D01*
X167019642Y-72850357D01*
X166983928Y-72886071D01*
X166912500Y-72921785D01*
X166769642Y-72921785D01*
X166698214Y-72886071D01*
X166662500Y-72850357D01*
X166626785Y-72778928D01*
X166626785Y-72636071D01*
X166662500Y-72564642D01*
X166698214Y-72528928D01*
X166769642Y-72493214D01*
X166341071Y-72707500D02*
X165983928Y-72707500D01*
X166412500Y-72921785D02*
X166162500Y-72171785D01*
X165912500Y-72921785D01*
X165698214Y-72886071D02*
X165591071Y-72921785D01*
X165412500Y-72921785D01*
X165341071Y-72886071D01*
X165305357Y-72850357D01*
X165269642Y-72778928D01*
X165269642Y-72707500D01*
X165305357Y-72636071D01*
X165341071Y-72600357D01*
X165412500Y-72564642D01*
X165555357Y-72528928D01*
X165626785Y-72493214D01*
X165662500Y-72457500D01*
X165698214Y-72386071D01*
X165698214Y-72314642D01*
X165662500Y-72243214D01*
X165626785Y-72207500D01*
X165555357Y-72171785D01*
X165376785Y-72171785D01*
X165269642Y-72207500D01*
X195233928Y-74129285D02*
X195233928Y-73379285D01*
X195055357Y-73379285D01*
X194948214Y-73415000D01*
X194876785Y-73486428D01*
X194841071Y-73557857D01*
X194805357Y-73700714D01*
X194805357Y-73807857D01*
X194841071Y-73950714D01*
X194876785Y-74022142D01*
X194948214Y-74093571D01*
X195055357Y-74129285D01*
X195233928Y-74129285D01*
X194198214Y-74093571D02*
X194269642Y-74129285D01*
X194412500Y-74129285D01*
X194483928Y-74093571D01*
X194519642Y-74022142D01*
X194519642Y-73736428D01*
X194483928Y-73665000D01*
X194412500Y-73629285D01*
X194269642Y-73629285D01*
X194198214Y-73665000D01*
X194162500Y-73736428D01*
X194162500Y-73807857D01*
X194519642Y-73879285D01*
X193876785Y-74093571D02*
X193805357Y-74129285D01*
X193662500Y-74129285D01*
X193591071Y-74093571D01*
X193555357Y-74022142D01*
X193555357Y-73986428D01*
X193591071Y-73915000D01*
X193662500Y-73879285D01*
X193769642Y-73879285D01*
X193841071Y-73843571D01*
X193876785Y-73772142D01*
X193876785Y-73736428D01*
X193841071Y-73665000D01*
X193769642Y-73629285D01*
X193662500Y-73629285D01*
X193591071Y-73665000D01*
X193233928Y-74129285D02*
X193233928Y-73629285D01*
X193233928Y-73379285D02*
X193269642Y-73415000D01*
X193233928Y-73450714D01*
X193198214Y-73415000D01*
X193233928Y-73379285D01*
X193233928Y-73450714D01*
X192555357Y-73629285D02*
X192555357Y-74236428D01*
X192591071Y-74307857D01*
X192626785Y-74343571D01*
X192698214Y-74379285D01*
X192805357Y-74379285D01*
X192876785Y-74343571D01*
X192555357Y-74093571D02*
X192626785Y-74129285D01*
X192769642Y-74129285D01*
X192841071Y-74093571D01*
X192876785Y-74057857D01*
X192912500Y-73986428D01*
X192912500Y-73772142D01*
X192876785Y-73700714D01*
X192841071Y-73665000D01*
X192769642Y-73629285D01*
X192626785Y-73629285D01*
X192555357Y-73665000D01*
X192198214Y-73629285D02*
X192198214Y-74129285D01*
X192198214Y-73700714D02*
X192162500Y-73665000D01*
X192091071Y-73629285D01*
X191983928Y-73629285D01*
X191912500Y-73665000D01*
X191876785Y-73736428D01*
X191876785Y-74129285D01*
X191233928Y-74093571D02*
X191305357Y-74129285D01*
X191448214Y-74129285D01*
X191519642Y-74093571D01*
X191555357Y-74022142D01*
X191555357Y-73736428D01*
X191519642Y-73665000D01*
X191448214Y-73629285D01*
X191305357Y-73629285D01*
X191233928Y-73665000D01*
X191198214Y-73736428D01*
X191198214Y-73807857D01*
X191555357Y-73879285D01*
X190555357Y-74129285D02*
X190555357Y-73379285D01*
X190555357Y-74093571D02*
X190626785Y-74129285D01*
X190769642Y-74129285D01*
X190841071Y-74093571D01*
X190876785Y-74057857D01*
X190912500Y-73986428D01*
X190912500Y-73772142D01*
X190876785Y-73700714D01*
X190841071Y-73665000D01*
X190769642Y-73629285D01*
X190626785Y-73629285D01*
X190555357Y-73665000D01*
X189626785Y-74129285D02*
X189626785Y-73379285D01*
X189626785Y-73665000D02*
X189555357Y-73629285D01*
X189412500Y-73629285D01*
X189341071Y-73665000D01*
X189305357Y-73700714D01*
X189269642Y-73772142D01*
X189269642Y-73986428D01*
X189305357Y-74057857D01*
X189341071Y-74093571D01*
X189412500Y-74129285D01*
X189555357Y-74129285D01*
X189626785Y-74093571D01*
X189019642Y-73629285D02*
X188841071Y-74129285D01*
X188662500Y-73629285D02*
X188841071Y-74129285D01*
X188912500Y-74307857D01*
X188948214Y-74343571D01*
X189019642Y-74379285D01*
X187805357Y-74129285D02*
X187805357Y-73379285D01*
X187376785Y-74129285D01*
X187376785Y-73379285D01*
X186698214Y-74129285D02*
X186698214Y-73736428D01*
X186733928Y-73665000D01*
X186805357Y-73629285D01*
X186948214Y-73629285D01*
X187019642Y-73665000D01*
X186698214Y-74093571D02*
X186769642Y-74129285D01*
X186948214Y-74129285D01*
X187019642Y-74093571D01*
X187055357Y-74022142D01*
X187055357Y-73950714D01*
X187019642Y-73879285D01*
X186948214Y-73843571D01*
X186769642Y-73843571D01*
X186698214Y-73807857D01*
X186448214Y-73629285D02*
X186162500Y-73629285D01*
X186341071Y-73379285D02*
X186341071Y-74022142D01*
X186305357Y-74093571D01*
X186233928Y-74129285D01*
X186162500Y-74129285D01*
X185912500Y-74129285D02*
X185912500Y-73379285D01*
X185591071Y-74129285D02*
X185591071Y-73736428D01*
X185626785Y-73665000D01*
X185698214Y-73629285D01*
X185805357Y-73629285D01*
X185876785Y-73665000D01*
X185912500Y-73700714D01*
X184912500Y-74129285D02*
X184912500Y-73736428D01*
X184948214Y-73665000D01*
X185019642Y-73629285D01*
X185162500Y-73629285D01*
X185233928Y-73665000D01*
X184912500Y-74093571D02*
X184983928Y-74129285D01*
X185162500Y-74129285D01*
X185233928Y-74093571D01*
X185269642Y-74022142D01*
X185269642Y-73950714D01*
X185233928Y-73879285D01*
X185162500Y-73843571D01*
X184983928Y-73843571D01*
X184912500Y-73807857D01*
X184555357Y-73629285D02*
X184555357Y-74129285D01*
X184555357Y-73700714D02*
X184519642Y-73665000D01*
X184448214Y-73629285D01*
X184341071Y-73629285D01*
X184269642Y-73665000D01*
X184233928Y-73736428D01*
X184233928Y-74129285D01*
X182733928Y-73629285D02*
X183305357Y-73843571D01*
X182733928Y-74057857D01*
X182376785Y-74129285D02*
X182376785Y-73379285D01*
X182055357Y-74129285D02*
X182055357Y-73736428D01*
X182091071Y-73665000D01*
X182162500Y-73629285D01*
X182269642Y-73629285D01*
X182341071Y-73665000D01*
X182376785Y-73700714D01*
X181376785Y-74129285D02*
X181376785Y-73736428D01*
X181412500Y-73665000D01*
X181483928Y-73629285D01*
X181626785Y-73629285D01*
X181698214Y-73665000D01*
X181376785Y-74093571D02*
X181448214Y-74129285D01*
X181626785Y-74129285D01*
X181698214Y-74093571D01*
X181733928Y-74022142D01*
X181733928Y-73950714D01*
X181698214Y-73879285D01*
X181626785Y-73843571D01*
X181448214Y-73843571D01*
X181376785Y-73807857D01*
X181019642Y-74129285D02*
X181019642Y-73629285D01*
X181019642Y-73772142D02*
X180983928Y-73700714D01*
X180948214Y-73665000D01*
X180876785Y-73629285D01*
X180805357Y-73629285D01*
X180233928Y-74129285D02*
X180233928Y-73379285D01*
X180233928Y-74093571D02*
X180305357Y-74129285D01*
X180448214Y-74129285D01*
X180519642Y-74093571D01*
X180555357Y-74057857D01*
X180591071Y-73986428D01*
X180591071Y-73772142D01*
X180555357Y-73700714D01*
X180519642Y-73665000D01*
X180448214Y-73629285D01*
X180305357Y-73629285D01*
X180233928Y-73665000D01*
X179948214Y-73629285D02*
X179805357Y-74129285D01*
X179662500Y-73772142D01*
X179519642Y-74129285D01*
X179376785Y-73629285D01*
X178769642Y-74129285D02*
X178769642Y-73736428D01*
X178805357Y-73665000D01*
X178876785Y-73629285D01*
X179019642Y-73629285D01*
X179091071Y-73665000D01*
X178769642Y-74093571D02*
X178841071Y-74129285D01*
X179019642Y-74129285D01*
X179091071Y-74093571D01*
X179126785Y-74022142D01*
X179126785Y-73950714D01*
X179091071Y-73879285D01*
X179019642Y-73843571D01*
X178841071Y-73843571D01*
X178769642Y-73807857D01*
X178412500Y-74129285D02*
X178412500Y-73629285D01*
X178412500Y-73772142D02*
X178376785Y-73700714D01*
X178341071Y-73665000D01*
X178269642Y-73629285D01*
X178198214Y-73629285D01*
X177662500Y-74093571D02*
X177733928Y-74129285D01*
X177876785Y-74129285D01*
X177948214Y-74093571D01*
X177983928Y-74022142D01*
X177983928Y-73736428D01*
X177948214Y-73665000D01*
X177876785Y-73629285D01*
X177733928Y-73629285D01*
X177662500Y-73665000D01*
X177626785Y-73736428D01*
X177626785Y-73807857D01*
X177983928Y-73879285D01*
X176841071Y-73772142D02*
X176876785Y-73736428D01*
X176948214Y-73700714D01*
X177019642Y-73700714D01*
X177091071Y-73736428D01*
X177126785Y-73772142D01*
X177162500Y-73843571D01*
X177162500Y-73915000D01*
X177126785Y-73986428D01*
X177091071Y-74022142D01*
X177019642Y-74057857D01*
X176948214Y-74057857D01*
X176876785Y-74022142D01*
X176841071Y-73986428D01*
X176841071Y-73700714D02*
X176841071Y-73986428D01*
X176805357Y-74022142D01*
X176769642Y-74022142D01*
X176698214Y-73986428D01*
X176662500Y-73915000D01*
X176662500Y-73736428D01*
X176733928Y-73629285D01*
X176841071Y-73557857D01*
X176983928Y-73522142D01*
X177126785Y-73557857D01*
X177233928Y-73629285D01*
X177305357Y-73736428D01*
X177341071Y-73879285D01*
X177305357Y-74022142D01*
X177233928Y-74129285D01*
X177126785Y-74200714D01*
X176983928Y-74236428D01*
X176841071Y-74200714D01*
X176733928Y-74129285D01*
X176341071Y-73629285D02*
X176341071Y-74129285D01*
X176341071Y-73700714D02*
X176305357Y-73665000D01*
X176233928Y-73629285D01*
X176126785Y-73629285D01*
X176055357Y-73665000D01*
X176019642Y-73736428D01*
X176019642Y-74129285D01*
X175662500Y-74129285D02*
X175662500Y-73629285D01*
X175662500Y-73772142D02*
X175626785Y-73700714D01*
X175591071Y-73665000D01*
X175519642Y-73629285D01*
X175448214Y-73629285D01*
X175091071Y-74129285D02*
X175162500Y-74093571D01*
X175198214Y-74022142D01*
X175198214Y-73379285D01*
X174519642Y-74093571D02*
X174591071Y-74129285D01*
X174733928Y-74129285D01*
X174805357Y-74093571D01*
X174841071Y-74022142D01*
X174841071Y-73736428D01*
X174805357Y-73665000D01*
X174733928Y-73629285D01*
X174591071Y-73629285D01*
X174519642Y-73665000D01*
X174483928Y-73736428D01*
X174483928Y-73807857D01*
X174841071Y-73879285D01*
X174233928Y-73629285D02*
X174091071Y-74129285D01*
X173948214Y-73772142D01*
X173805357Y-74129285D01*
X173662500Y-73629285D01*
X173376785Y-74129285D02*
X173376785Y-73629285D01*
X173376785Y-73379285D02*
X173412500Y-73415000D01*
X173376785Y-73450714D01*
X173341071Y-73415000D01*
X173376785Y-73379285D01*
X173376785Y-73450714D01*
X173055357Y-74093571D02*
X172983928Y-74129285D01*
X172841071Y-74129285D01*
X172769642Y-74093571D01*
X172733928Y-74022142D01*
X172733928Y-73986428D01*
X172769642Y-73915000D01*
X172841071Y-73879285D01*
X172948214Y-73879285D01*
X173019642Y-73843571D01*
X173055357Y-73772142D01*
X173055357Y-73736428D01*
X173019642Y-73665000D01*
X172948214Y-73629285D01*
X172841071Y-73629285D01*
X172769642Y-73665000D01*
X172412500Y-74057857D02*
X172376785Y-74093571D01*
X172412500Y-74129285D01*
X172448214Y-74093571D01*
X172412500Y-74057857D01*
X172412500Y-74129285D01*
X171733928Y-74129285D02*
X171733928Y-73379285D01*
X171733928Y-74093571D02*
X171805357Y-74129285D01*
X171948214Y-74129285D01*
X172019642Y-74093571D01*
X172055357Y-74057857D01*
X172091071Y-73986428D01*
X172091071Y-73772142D01*
X172055357Y-73700714D01*
X172019642Y-73665000D01*
X171948214Y-73629285D01*
X171805357Y-73629285D01*
X171733928Y-73665000D01*
X171091071Y-74093571D02*
X171162500Y-74129285D01*
X171305357Y-74129285D01*
X171376785Y-74093571D01*
X171412500Y-74022142D01*
X171412500Y-73736428D01*
X171376785Y-73665000D01*
X171305357Y-73629285D01*
X171162500Y-73629285D01*
X171091071Y-73665000D01*
X171055357Y-73736428D01*
X171055357Y-73807857D01*
X171412500Y-73879285D01*
X170805357Y-73629285D02*
X170626785Y-74129285D01*
X170448214Y-73629285D01*
X170162500Y-73629285D02*
X169591071Y-73843571D01*
X170162500Y-74057857D01*
X194805357Y-75265357D02*
X194841071Y-75301071D01*
X194948214Y-75336785D01*
X195019642Y-75336785D01*
X195126785Y-75301071D01*
X195198214Y-75229642D01*
X195233928Y-75158214D01*
X195269642Y-75015357D01*
X195269642Y-74908214D01*
X195233928Y-74765357D01*
X195198214Y-74693928D01*
X195126785Y-74622500D01*
X195019642Y-74586785D01*
X194948214Y-74586785D01*
X194841071Y-74622500D01*
X194805357Y-74658214D01*
X194055357Y-75265357D02*
X194091071Y-75301071D01*
X194198214Y-75336785D01*
X194269642Y-75336785D01*
X194376785Y-75301071D01*
X194448214Y-75229642D01*
X194483928Y-75158214D01*
X194519642Y-75015357D01*
X194519642Y-74908214D01*
X194483928Y-74765357D01*
X194448214Y-74693928D01*
X194376785Y-74622500D01*
X194269642Y-74586785D01*
X194198214Y-74586785D01*
X194091071Y-74622500D01*
X194055357Y-74658214D01*
X193733928Y-75051071D02*
X193162500Y-75051071D01*
X192555357Y-74943928D02*
X192448214Y-74979642D01*
X192412500Y-75015357D01*
X192376785Y-75086785D01*
X192376785Y-75193928D01*
X192412500Y-75265357D01*
X192448214Y-75301071D01*
X192519642Y-75336785D01*
X192805357Y-75336785D01*
X192805357Y-74586785D01*
X192555357Y-74586785D01*
X192483928Y-74622500D01*
X192448214Y-74658214D01*
X192412500Y-74729642D01*
X192412500Y-74801071D01*
X192448214Y-74872500D01*
X192483928Y-74908214D01*
X192555357Y-74943928D01*
X192805357Y-74943928D01*
X191912500Y-74979642D02*
X191912500Y-75336785D01*
X192162500Y-74586785D02*
X191912500Y-74979642D01*
X191662500Y-74586785D01*
X191412500Y-75051071D02*
X190841071Y-75051071D01*
X190519642Y-75301071D02*
X190412500Y-75336785D01*
X190233928Y-75336785D01*
X190162500Y-75301071D01*
X190126785Y-75265357D01*
X190091071Y-75193928D01*
X190091071Y-75122500D01*
X190126785Y-75051071D01*
X190162500Y-75015357D01*
X190233928Y-74979642D01*
X190376785Y-74943928D01*
X190448214Y-74908214D01*
X190483928Y-74872500D01*
X190519642Y-74801071D01*
X190519642Y-74729642D01*
X190483928Y-74658214D01*
X190448214Y-74622500D01*
X190376785Y-74586785D01*
X190198214Y-74586785D01*
X190091071Y-74622500D01*
X189805357Y-75122500D02*
X189448214Y-75122500D01*
X189876785Y-75336785D02*
X189626785Y-74586785D01*
X189376785Y-75336785D01*
X188233928Y-74836785D02*
X188233928Y-75336785D01*
X188412500Y-74551071D02*
X188591071Y-75086785D01*
X188126785Y-75086785D01*
X187841071Y-75265357D02*
X187805357Y-75301071D01*
X187841071Y-75336785D01*
X187876785Y-75301071D01*
X187841071Y-75265357D01*
X187841071Y-75336785D01*
X187341071Y-74586785D02*
X187269642Y-74586785D01*
X187198214Y-74622500D01*
X187162500Y-74658214D01*
X187126785Y-74729642D01*
X187091071Y-74872500D01*
X187091071Y-75051071D01*
X187126785Y-75193928D01*
X187162500Y-75265357D01*
X187198214Y-75301071D01*
X187269642Y-75336785D01*
X187341071Y-75336785D01*
X187412500Y-75301071D01*
X187448214Y-75265357D01*
X187483928Y-75193928D01*
X187519642Y-75051071D01*
X187519642Y-74872500D01*
X187483928Y-74729642D01*
X187448214Y-74658214D01*
X187412500Y-74622500D01*
X187341071Y-74586785D01*
D11*
X128648571Y-110862142D02*
X127148571Y-110862142D01*
X127148571Y-111433571D01*
X127220000Y-111576428D01*
X127291428Y-111647857D01*
X127434285Y-111719285D01*
X127648571Y-111719285D01*
X127791428Y-111647857D01*
X127862857Y-111576428D01*
X127934285Y-111433571D01*
X127934285Y-110862142D01*
X127148571Y-112219285D02*
X127148571Y-113219285D01*
X128648571Y-112576428D01*
X127148571Y-113647857D02*
X127148571Y-114576428D01*
X127720000Y-114076428D01*
X127720000Y-114290714D01*
X127791428Y-114433571D01*
X127862857Y-114505000D01*
X128005714Y-114576428D01*
X128362857Y-114576428D01*
X128505714Y-114505000D01*
X128577142Y-114433571D01*
X128648571Y-114290714D01*
X128648571Y-113862142D01*
X128577142Y-113719285D01*
X128505714Y-113647857D01*
X190718571Y-108777857D02*
X192218571Y-109277857D01*
X190718571Y-109777857D01*
X192075714Y-111135000D02*
X192147142Y-111063571D01*
X192218571Y-110849285D01*
X192218571Y-110706428D01*
X192147142Y-110492142D01*
X192004285Y-110349285D01*
X191861428Y-110277857D01*
X191575714Y-110206428D01*
X191361428Y-110206428D01*
X191075714Y-110277857D01*
X190932857Y-110349285D01*
X190790000Y-110492142D01*
X190718571Y-110706428D01*
X190718571Y-110849285D01*
X190790000Y-111063571D01*
X190861428Y-111135000D01*
X192075714Y-112635000D02*
X192147142Y-112563571D01*
X192218571Y-112349285D01*
X192218571Y-112206428D01*
X192147142Y-111992142D01*
X192004285Y-111849285D01*
X191861428Y-111777857D01*
X191575714Y-111706428D01*
X191361428Y-111706428D01*
X191075714Y-111777857D01*
X190932857Y-111849285D01*
X190790000Y-111992142D01*
X190718571Y-112206428D01*
X190718571Y-112349285D01*
X190790000Y-112563571D01*
X190861428Y-112635000D01*
X192218571Y-113277857D02*
X190718571Y-113277857D01*
X190718571Y-114277857D02*
X190718571Y-114563571D01*
X190790000Y-114706428D01*
X190932857Y-114849285D01*
X191218571Y-114920714D01*
X191718571Y-114920714D01*
X192004285Y-114849285D01*
X192147142Y-114706428D01*
X192218571Y-114563571D01*
X192218571Y-114277857D01*
X192147142Y-114135000D01*
X192004285Y-113992142D01*
X191718571Y-113920714D01*
X191218571Y-113920714D01*
X190932857Y-113992142D01*
X190790000Y-114135000D01*
X190718571Y-114277857D01*
X166748571Y-110862142D02*
X165248571Y-110862142D01*
X165248571Y-111433571D01*
X165320000Y-111576428D01*
X165391428Y-111647857D01*
X165534285Y-111719285D01*
X165748571Y-111719285D01*
X165891428Y-111647857D01*
X165962857Y-111576428D01*
X166034285Y-111433571D01*
X166034285Y-110862142D01*
X165248571Y-113076428D02*
X165248571Y-112362142D01*
X165962857Y-112290714D01*
X165891428Y-112362142D01*
X165820000Y-112505000D01*
X165820000Y-112862142D01*
X165891428Y-113005000D01*
X165962857Y-113076428D01*
X166105714Y-113147857D01*
X166462857Y-113147857D01*
X166605714Y-113076428D01*
X166677142Y-113005000D01*
X166748571Y-112862142D01*
X166748571Y-112505000D01*
X166677142Y-112362142D01*
X166605714Y-112290714D01*
X165248571Y-114505000D02*
X165248571Y-113790714D01*
X165962857Y-113719285D01*
X165891428Y-113790714D01*
X165820000Y-113933571D01*
X165820000Y-114290714D01*
X165891428Y-114433571D01*
X165962857Y-114505000D01*
X166105714Y-114576428D01*
X166462857Y-114576428D01*
X166605714Y-114505000D01*
X166677142Y-114433571D01*
X166748571Y-114290714D01*
X166748571Y-113933571D01*
X166677142Y-113790714D01*
X166605714Y-113719285D01*
X99320000Y-111197142D02*
X99248571Y-111054285D01*
X99248571Y-110840000D01*
X99320000Y-110625714D01*
X99462857Y-110482857D01*
X99605714Y-110411428D01*
X99891428Y-110340000D01*
X100105714Y-110340000D01*
X100391428Y-110411428D01*
X100534285Y-110482857D01*
X100677142Y-110625714D01*
X100748571Y-110840000D01*
X100748571Y-110982857D01*
X100677142Y-111197142D01*
X100605714Y-111268571D01*
X100105714Y-111268571D01*
X100105714Y-110982857D01*
X100748571Y-111911428D02*
X99248571Y-111911428D01*
X100748571Y-112768571D01*
X99248571Y-112768571D01*
X100748571Y-113482857D02*
X99248571Y-113482857D01*
X99248571Y-113840000D01*
X99320000Y-114054285D01*
X99462857Y-114197142D01*
X99605714Y-114268571D01*
X99891428Y-114340000D01*
X100105714Y-114340000D01*
X100391428Y-114268571D01*
X100534285Y-114197142D01*
X100677142Y-114054285D01*
X100748571Y-113840000D01*
X100748571Y-113482857D01*
X189608571Y-110862142D02*
X188108571Y-110862142D01*
X188108571Y-111433571D01*
X188180000Y-111576428D01*
X188251428Y-111647857D01*
X188394285Y-111719285D01*
X188608571Y-111719285D01*
X188751428Y-111647857D01*
X188822857Y-111576428D01*
X188894285Y-111433571D01*
X188894285Y-110862142D01*
X188608571Y-113005000D02*
X189608571Y-113005000D01*
X188037142Y-112647857D02*
X189108571Y-112290714D01*
X189108571Y-113219285D01*
X188608571Y-114433571D02*
X189608571Y-114433571D01*
X188037142Y-114076428D02*
X189108571Y-113719285D01*
X189108571Y-114647857D01*
X105878571Y-105572142D02*
X104378571Y-105572142D01*
X105021428Y-106500714D02*
X104950000Y-106357857D01*
X104878571Y-106286428D01*
X104735714Y-106215000D01*
X104664285Y-106215000D01*
X104521428Y-106286428D01*
X104450000Y-106357857D01*
X104378571Y-106500714D01*
X104378571Y-106786428D01*
X104450000Y-106929285D01*
X104521428Y-107000714D01*
X104664285Y-107072142D01*
X104735714Y-107072142D01*
X104878571Y-107000714D01*
X104950000Y-106929285D01*
X105021428Y-106786428D01*
X105021428Y-106500714D01*
X105092857Y-106357857D01*
X105164285Y-106286428D01*
X105307142Y-106215000D01*
X105592857Y-106215000D01*
X105735714Y-106286428D01*
X105807142Y-106357857D01*
X105878571Y-106500714D01*
X105878571Y-106786428D01*
X105807142Y-106929285D01*
X105735714Y-107000714D01*
X105592857Y-107072142D01*
X105307142Y-107072142D01*
X105164285Y-107000714D01*
X105092857Y-106929285D01*
X105021428Y-106786428D01*
X104878571Y-108357857D02*
X105878571Y-108357857D01*
X104307142Y-108000714D02*
X105378571Y-107643571D01*
X105378571Y-108572142D01*
X104307142Y-110215000D02*
X106235714Y-108929285D01*
X104378571Y-111000714D02*
X104378571Y-111286428D01*
X104450000Y-111429285D01*
X104592857Y-111572142D01*
X104878571Y-111643571D01*
X105378571Y-111643571D01*
X105664285Y-111572142D01*
X105807142Y-111429285D01*
X105878571Y-111286428D01*
X105878571Y-111000714D01*
X105807142Y-110857857D01*
X105664285Y-110715000D01*
X105378571Y-110643571D01*
X104878571Y-110643571D01*
X104592857Y-110715000D01*
X104450000Y-110857857D01*
X104378571Y-111000714D01*
X105092857Y-112286428D02*
X105092857Y-112786428D01*
X105878571Y-113000714D02*
X105878571Y-112286428D01*
X104378571Y-112286428D01*
X104378571Y-113000714D01*
X105878571Y-114429285D02*
X105878571Y-113572142D01*
X105878571Y-114000714D02*
X104378571Y-114000714D01*
X104592857Y-113857857D01*
X104735714Y-113715000D01*
X104807142Y-113572142D01*
X164208571Y-110862142D02*
X162708571Y-110862142D01*
X162708571Y-111433571D01*
X162780000Y-111576428D01*
X162851428Y-111647857D01*
X162994285Y-111719285D01*
X163208571Y-111719285D01*
X163351428Y-111647857D01*
X163422857Y-111576428D01*
X163494285Y-111433571D01*
X163494285Y-110862142D01*
X162708571Y-113076428D02*
X162708571Y-112362142D01*
X163422857Y-112290714D01*
X163351428Y-112362142D01*
X163280000Y-112505000D01*
X163280000Y-112862142D01*
X163351428Y-113005000D01*
X163422857Y-113076428D01*
X163565714Y-113147857D01*
X163922857Y-113147857D01*
X164065714Y-113076428D01*
X164137142Y-113005000D01*
X164208571Y-112862142D01*
X164208571Y-112505000D01*
X164137142Y-112362142D01*
X164065714Y-112290714D01*
X162708571Y-114433571D02*
X162708571Y-114147857D01*
X162780000Y-114005000D01*
X162851428Y-113933571D01*
X163065714Y-113790714D01*
X163351428Y-113719285D01*
X163922857Y-113719285D01*
X164065714Y-113790714D01*
X164137142Y-113862142D01*
X164208571Y-114005000D01*
X164208571Y-114290714D01*
X164137142Y-114433571D01*
X164065714Y-114505000D01*
X163922857Y-114576428D01*
X163565714Y-114576428D01*
X163422857Y-114505000D01*
X163351428Y-114433571D01*
X163280000Y-114290714D01*
X163280000Y-114005000D01*
X163351428Y-113862142D01*
X163422857Y-113790714D01*
X163565714Y-113719285D01*
X161668571Y-110862142D02*
X160168571Y-110862142D01*
X160168571Y-111433571D01*
X160240000Y-111576428D01*
X160311428Y-111647857D01*
X160454285Y-111719285D01*
X160668571Y-111719285D01*
X160811428Y-111647857D01*
X160882857Y-111576428D01*
X160954285Y-111433571D01*
X160954285Y-110862142D01*
X160168571Y-113076428D02*
X160168571Y-112362142D01*
X160882857Y-112290714D01*
X160811428Y-112362142D01*
X160740000Y-112505000D01*
X160740000Y-112862142D01*
X160811428Y-113005000D01*
X160882857Y-113076428D01*
X161025714Y-113147857D01*
X161382857Y-113147857D01*
X161525714Y-113076428D01*
X161597142Y-113005000D01*
X161668571Y-112862142D01*
X161668571Y-112505000D01*
X161597142Y-112362142D01*
X161525714Y-112290714D01*
X160168571Y-113647857D02*
X160168571Y-114647857D01*
X161668571Y-114005000D01*
X193290000Y-111787857D02*
X193218571Y-111645000D01*
X193218571Y-111430714D01*
X193290000Y-111216428D01*
X193432857Y-111073571D01*
X193575714Y-111002142D01*
X193861428Y-110930714D01*
X194075714Y-110930714D01*
X194361428Y-111002142D01*
X194504285Y-111073571D01*
X194647142Y-111216428D01*
X194718571Y-111430714D01*
X194718571Y-111573571D01*
X194647142Y-111787857D01*
X194575714Y-111859285D01*
X194075714Y-111859285D01*
X194075714Y-111573571D01*
X194718571Y-112502142D02*
X193218571Y-112502142D01*
X194718571Y-113359285D01*
X193218571Y-113359285D01*
X194718571Y-114073571D02*
X193218571Y-114073571D01*
X193218571Y-114430714D01*
X193290000Y-114645000D01*
X193432857Y-114787857D01*
X193575714Y-114859285D01*
X193861428Y-114930714D01*
X194075714Y-114930714D01*
X194361428Y-114859285D01*
X194504285Y-114787857D01*
X194647142Y-114645000D01*
X194718571Y-114430714D01*
X194718571Y-114073571D01*
X138808571Y-110862142D02*
X137308571Y-110862142D01*
X137308571Y-111433571D01*
X137380000Y-111576428D01*
X137451428Y-111647857D01*
X137594285Y-111719285D01*
X137808571Y-111719285D01*
X137951428Y-111647857D01*
X138022857Y-111576428D01*
X138094285Y-111433571D01*
X138094285Y-110862142D01*
X137308571Y-113005000D02*
X137308571Y-112719285D01*
X137380000Y-112576428D01*
X137451428Y-112505000D01*
X137665714Y-112362142D01*
X137951428Y-112290714D01*
X138522857Y-112290714D01*
X138665714Y-112362142D01*
X138737142Y-112433571D01*
X138808571Y-112576428D01*
X138808571Y-112862142D01*
X138737142Y-113005000D01*
X138665714Y-113076428D01*
X138522857Y-113147857D01*
X138165714Y-113147857D01*
X138022857Y-113076428D01*
X137951428Y-113005000D01*
X137880000Y-112862142D01*
X137880000Y-112576428D01*
X137951428Y-112433571D01*
X138022857Y-112362142D01*
X138165714Y-112290714D01*
X137951428Y-114005000D02*
X137880000Y-113862142D01*
X137808571Y-113790714D01*
X137665714Y-113719285D01*
X137594285Y-113719285D01*
X137451428Y-113790714D01*
X137380000Y-113862142D01*
X137308571Y-114005000D01*
X137308571Y-114290714D01*
X137380000Y-114433571D01*
X137451428Y-114505000D01*
X137594285Y-114576428D01*
X137665714Y-114576428D01*
X137808571Y-114505000D01*
X137880000Y-114433571D01*
X137951428Y-114290714D01*
X137951428Y-114005000D01*
X138022857Y-113862142D01*
X138094285Y-113790714D01*
X138237142Y-113719285D01*
X138522857Y-113719285D01*
X138665714Y-113790714D01*
X138737142Y-113862142D01*
X138808571Y-114005000D01*
X138808571Y-114290714D01*
X138737142Y-114433571D01*
X138665714Y-114505000D01*
X138522857Y-114576428D01*
X138237142Y-114576428D01*
X138094285Y-114505000D01*
X138022857Y-114433571D01*
X137951428Y-114290714D01*
X184528571Y-110862142D02*
X183028571Y-110862142D01*
X183028571Y-111433571D01*
X183100000Y-111576428D01*
X183171428Y-111647857D01*
X183314285Y-111719285D01*
X183528571Y-111719285D01*
X183671428Y-111647857D01*
X183742857Y-111576428D01*
X183814285Y-111433571D01*
X183814285Y-110862142D01*
X183528571Y-113005000D02*
X184528571Y-113005000D01*
X182957142Y-112647857D02*
X184028571Y-112290714D01*
X184028571Y-113219285D01*
X183028571Y-114433571D02*
X183028571Y-114147857D01*
X183100000Y-114005000D01*
X183171428Y-113933571D01*
X183385714Y-113790714D01*
X183671428Y-113719285D01*
X184242857Y-113719285D01*
X184385714Y-113790714D01*
X184457142Y-113862142D01*
X184528571Y-114005000D01*
X184528571Y-114290714D01*
X184457142Y-114433571D01*
X184385714Y-114505000D01*
X184242857Y-114576428D01*
X183885714Y-114576428D01*
X183742857Y-114505000D01*
X183671428Y-114433571D01*
X183600000Y-114290714D01*
X183600000Y-114005000D01*
X183671428Y-113862142D01*
X183742857Y-113790714D01*
X183885714Y-113719285D01*
X126108571Y-110862142D02*
X124608571Y-110862142D01*
X124608571Y-111433571D01*
X124680000Y-111576428D01*
X124751428Y-111647857D01*
X124894285Y-111719285D01*
X125108571Y-111719285D01*
X125251428Y-111647857D01*
X125322857Y-111576428D01*
X125394285Y-111433571D01*
X125394285Y-110862142D01*
X124608571Y-112219285D02*
X124608571Y-113219285D01*
X126108571Y-112576428D01*
X125108571Y-114433571D02*
X126108571Y-114433571D01*
X124537142Y-114076428D02*
X125608571Y-113719285D01*
X125608571Y-114647857D01*
X174368571Y-110862142D02*
X172868571Y-110862142D01*
X172868571Y-111433571D01*
X172940000Y-111576428D01*
X173011428Y-111647857D01*
X173154285Y-111719285D01*
X173368571Y-111719285D01*
X173511428Y-111647857D01*
X173582857Y-111576428D01*
X173654285Y-111433571D01*
X173654285Y-110862142D01*
X172868571Y-113076428D02*
X172868571Y-112362142D01*
X173582857Y-112290714D01*
X173511428Y-112362142D01*
X173440000Y-112505000D01*
X173440000Y-112862142D01*
X173511428Y-113005000D01*
X173582857Y-113076428D01*
X173725714Y-113147857D01*
X174082857Y-113147857D01*
X174225714Y-113076428D01*
X174297142Y-113005000D01*
X174368571Y-112862142D01*
X174368571Y-112505000D01*
X174297142Y-112362142D01*
X174225714Y-112290714D01*
X174368571Y-114576428D02*
X174368571Y-113719285D01*
X174368571Y-114147857D02*
X172868571Y-114147857D01*
X173082857Y-114005000D01*
X173225714Y-113862142D01*
X173297142Y-113719285D01*
X141348571Y-110862142D02*
X139848571Y-110862142D01*
X139848571Y-111433571D01*
X139920000Y-111576428D01*
X139991428Y-111647857D01*
X140134285Y-111719285D01*
X140348571Y-111719285D01*
X140491428Y-111647857D01*
X140562857Y-111576428D01*
X140634285Y-111433571D01*
X140634285Y-110862142D01*
X139848571Y-113005000D02*
X139848571Y-112719285D01*
X139920000Y-112576428D01*
X139991428Y-112505000D01*
X140205714Y-112362142D01*
X140491428Y-112290714D01*
X141062857Y-112290714D01*
X141205714Y-112362142D01*
X141277142Y-112433571D01*
X141348571Y-112576428D01*
X141348571Y-112862142D01*
X141277142Y-113005000D01*
X141205714Y-113076428D01*
X141062857Y-113147857D01*
X140705714Y-113147857D01*
X140562857Y-113076428D01*
X140491428Y-113005000D01*
X140420000Y-112862142D01*
X140420000Y-112576428D01*
X140491428Y-112433571D01*
X140562857Y-112362142D01*
X140705714Y-112290714D01*
X139848571Y-113647857D02*
X139848571Y-114647857D01*
X141348571Y-114005000D01*
X187068571Y-110862142D02*
X185568571Y-110862142D01*
X185568571Y-111433571D01*
X185640000Y-111576428D01*
X185711428Y-111647857D01*
X185854285Y-111719285D01*
X186068571Y-111719285D01*
X186211428Y-111647857D01*
X186282857Y-111576428D01*
X186354285Y-111433571D01*
X186354285Y-110862142D01*
X186068571Y-113005000D02*
X187068571Y-113005000D01*
X185497142Y-112647857D02*
X186568571Y-112290714D01*
X186568571Y-113219285D01*
X185568571Y-114505000D02*
X185568571Y-113790714D01*
X186282857Y-113719285D01*
X186211428Y-113790714D01*
X186140000Y-113933571D01*
X186140000Y-114290714D01*
X186211428Y-114433571D01*
X186282857Y-114505000D01*
X186425714Y-114576428D01*
X186782857Y-114576428D01*
X186925714Y-114505000D01*
X186997142Y-114433571D01*
X187068571Y-114290714D01*
X187068571Y-113933571D01*
X186997142Y-113790714D01*
X186925714Y-113719285D01*
D10*
X143717619Y-75431785D02*
X143717619Y-74860357D01*
X142717619Y-75146071D02*
X143717619Y-75146071D01*
X142717619Y-74527023D02*
X143717619Y-74527023D01*
X143717619Y-74288928D01*
X143670000Y-74146071D01*
X143574761Y-74050833D01*
X143479523Y-74003214D01*
X143289047Y-73955595D01*
X143146190Y-73955595D01*
X142955714Y-74003214D01*
X142860476Y-74050833D01*
X142765238Y-74146071D01*
X142717619Y-74288928D01*
X142717619Y-74527023D01*
X143717619Y-73336547D02*
X143717619Y-73146071D01*
X143670000Y-73050833D01*
X143574761Y-72955595D01*
X143384285Y-72907976D01*
X143050952Y-72907976D01*
X142860476Y-72955595D01*
X142765238Y-73050833D01*
X142717619Y-73146071D01*
X142717619Y-73336547D01*
X142765238Y-73431785D01*
X142860476Y-73527023D01*
X143050952Y-73574642D01*
X143384285Y-73574642D01*
X143574761Y-73527023D01*
X143670000Y-73431785D01*
X143717619Y-73336547D01*
D11*
X101748571Y-108327857D02*
X103248571Y-108827857D01*
X101748571Y-109327857D01*
X103105714Y-110685000D02*
X103177142Y-110613571D01*
X103248571Y-110399285D01*
X103248571Y-110256428D01*
X103177142Y-110042142D01*
X103034285Y-109899285D01*
X102891428Y-109827857D01*
X102605714Y-109756428D01*
X102391428Y-109756428D01*
X102105714Y-109827857D01*
X101962857Y-109899285D01*
X101820000Y-110042142D01*
X101748571Y-110256428D01*
X101748571Y-110399285D01*
X101820000Y-110613571D01*
X101891428Y-110685000D01*
X103105714Y-112185000D02*
X103177142Y-112113571D01*
X103248571Y-111899285D01*
X103248571Y-111756428D01*
X103177142Y-111542142D01*
X103034285Y-111399285D01*
X102891428Y-111327857D01*
X102605714Y-111256428D01*
X102391428Y-111256428D01*
X102105714Y-111327857D01*
X101962857Y-111399285D01*
X101820000Y-111542142D01*
X101748571Y-111756428D01*
X101748571Y-111899285D01*
X101820000Y-112113571D01*
X101891428Y-112185000D01*
X103248571Y-112827857D02*
X101748571Y-112827857D01*
X101748571Y-113827857D02*
X101748571Y-114113571D01*
X101820000Y-114256428D01*
X101962857Y-114399285D01*
X102248571Y-114470714D01*
X102748571Y-114470714D01*
X103034285Y-114399285D01*
X103177142Y-114256428D01*
X103248571Y-114113571D01*
X103248571Y-113827857D01*
X103177142Y-113685000D01*
X103034285Y-113542142D01*
X102748571Y-113470714D01*
X102248571Y-113470714D01*
X101962857Y-113542142D01*
X101820000Y-113685000D01*
X101748571Y-113827857D01*
D10*
X153258571Y-75527023D02*
X153258571Y-74765119D01*
X152877619Y-75146071D02*
X153639523Y-75146071D01*
X153877619Y-73812738D02*
X153877619Y-74288928D01*
X153401428Y-74336547D01*
X153449047Y-74288928D01*
X153496666Y-74193690D01*
X153496666Y-73955595D01*
X153449047Y-73860357D01*
X153401428Y-73812738D01*
X153306190Y-73765119D01*
X153068095Y-73765119D01*
X152972857Y-73812738D01*
X152925238Y-73860357D01*
X152877619Y-73955595D01*
X152877619Y-74193690D01*
X152925238Y-74288928D01*
X152972857Y-74336547D01*
X153877619Y-73479404D02*
X152877619Y-73146071D01*
X153877619Y-72812738D01*
X151290000Y-75003214D02*
X151337619Y-75098452D01*
X151337619Y-75241309D01*
X151290000Y-75384166D01*
X151194761Y-75479404D01*
X151099523Y-75527023D01*
X150909047Y-75574642D01*
X150766190Y-75574642D01*
X150575714Y-75527023D01*
X150480476Y-75479404D01*
X150385238Y-75384166D01*
X150337619Y-75241309D01*
X150337619Y-75146071D01*
X150385238Y-75003214D01*
X150432857Y-74955595D01*
X150766190Y-74955595D01*
X150766190Y-75146071D01*
X150337619Y-74527023D02*
X151337619Y-74527023D01*
X150337619Y-73955595D01*
X151337619Y-73955595D01*
X150337619Y-73479404D02*
X151337619Y-73479404D01*
X151337619Y-73241309D01*
X151290000Y-73098452D01*
X151194761Y-73003214D01*
X151099523Y-72955595D01*
X150909047Y-72907976D01*
X150766190Y-72907976D01*
X150575714Y-72955595D01*
X150480476Y-73003214D01*
X150385238Y-73098452D01*
X150337619Y-73241309D01*
X150337619Y-73479404D01*
D11*
X176908571Y-110862142D02*
X175408571Y-110862142D01*
X175408571Y-111433571D01*
X175480000Y-111576428D01*
X175551428Y-111647857D01*
X175694285Y-111719285D01*
X175908571Y-111719285D01*
X176051428Y-111647857D01*
X176122857Y-111576428D01*
X176194285Y-111433571D01*
X176194285Y-110862142D01*
X175408571Y-113076428D02*
X175408571Y-112362142D01*
X176122857Y-112290714D01*
X176051428Y-112362142D01*
X175980000Y-112505000D01*
X175980000Y-112862142D01*
X176051428Y-113005000D01*
X176122857Y-113076428D01*
X176265714Y-113147857D01*
X176622857Y-113147857D01*
X176765714Y-113076428D01*
X176837142Y-113005000D01*
X176908571Y-112862142D01*
X176908571Y-112505000D01*
X176837142Y-112362142D01*
X176765714Y-112290714D01*
X175408571Y-114076428D02*
X175408571Y-114219285D01*
X175480000Y-114362142D01*
X175551428Y-114433571D01*
X175694285Y-114505000D01*
X175980000Y-114576428D01*
X176337142Y-114576428D01*
X176622857Y-114505000D01*
X176765714Y-114433571D01*
X176837142Y-114362142D01*
X176908571Y-114219285D01*
X176908571Y-114076428D01*
X176837142Y-113933571D01*
X176765714Y-113862142D01*
X176622857Y-113790714D01*
X176337142Y-113719285D01*
X175980000Y-113719285D01*
X175694285Y-113790714D01*
X175551428Y-113862142D01*
X175480000Y-113933571D01*
X175408571Y-114076428D01*
X156588571Y-110862142D02*
X155088571Y-110862142D01*
X155088571Y-111433571D01*
X155160000Y-111576428D01*
X155231428Y-111647857D01*
X155374285Y-111719285D01*
X155588571Y-111719285D01*
X155731428Y-111647857D01*
X155802857Y-111576428D01*
X155874285Y-111433571D01*
X155874285Y-110862142D01*
X155088571Y-113005000D02*
X155088571Y-112719285D01*
X155160000Y-112576428D01*
X155231428Y-112505000D01*
X155445714Y-112362142D01*
X155731428Y-112290714D01*
X156302857Y-112290714D01*
X156445714Y-112362142D01*
X156517142Y-112433571D01*
X156588571Y-112576428D01*
X156588571Y-112862142D01*
X156517142Y-113005000D01*
X156445714Y-113076428D01*
X156302857Y-113147857D01*
X155945714Y-113147857D01*
X155802857Y-113076428D01*
X155731428Y-113005000D01*
X155660000Y-112862142D01*
X155660000Y-112576428D01*
X155731428Y-112433571D01*
X155802857Y-112362142D01*
X155945714Y-112290714D01*
X155088571Y-114076428D02*
X155088571Y-114219285D01*
X155160000Y-114362142D01*
X155231428Y-114433571D01*
X155374285Y-114505000D01*
X155660000Y-114576428D01*
X156017142Y-114576428D01*
X156302857Y-114505000D01*
X156445714Y-114433571D01*
X156517142Y-114362142D01*
X156588571Y-114219285D01*
X156588571Y-114076428D01*
X156517142Y-113933571D01*
X156445714Y-113862142D01*
X156302857Y-113790714D01*
X156017142Y-113719285D01*
X155660000Y-113719285D01*
X155374285Y-113790714D01*
X155231428Y-113862142D01*
X155160000Y-113933571D01*
X155088571Y-114076428D01*
D12*
X131052857Y-110725714D02*
X129852857Y-110725714D01*
X129852857Y-111182857D01*
X129910000Y-111297142D01*
X129967142Y-111354285D01*
X130081428Y-111411428D01*
X130252857Y-111411428D01*
X130367142Y-111354285D01*
X130424285Y-111297142D01*
X130481428Y-111182857D01*
X130481428Y-110725714D01*
X129852857Y-111811428D02*
X129852857Y-112611428D01*
X131052857Y-112097142D01*
X131052857Y-113697142D02*
X131052857Y-113011428D01*
X131052857Y-113354285D02*
X129852857Y-113354285D01*
X130024285Y-113240000D01*
X130138571Y-113125714D01*
X130195714Y-113011428D01*
X129852857Y-114382857D02*
X130138571Y-114382857D01*
X130024285Y-114097142D02*
X130138571Y-114382857D01*
X130024285Y-114668571D01*
X130367142Y-114211428D02*
X130138571Y-114382857D01*
X130367142Y-114554285D01*
D11*
X148968571Y-110862142D02*
X147468571Y-110862142D01*
X147468571Y-111433571D01*
X147540000Y-111576428D01*
X147611428Y-111647857D01*
X147754285Y-111719285D01*
X147968571Y-111719285D01*
X148111428Y-111647857D01*
X148182857Y-111576428D01*
X148254285Y-111433571D01*
X148254285Y-110862142D01*
X147468571Y-113005000D02*
X147468571Y-112719285D01*
X147540000Y-112576428D01*
X147611428Y-112505000D01*
X147825714Y-112362142D01*
X148111428Y-112290714D01*
X148682857Y-112290714D01*
X148825714Y-112362142D01*
X148897142Y-112433571D01*
X148968571Y-112576428D01*
X148968571Y-112862142D01*
X148897142Y-113005000D01*
X148825714Y-113076428D01*
X148682857Y-113147857D01*
X148325714Y-113147857D01*
X148182857Y-113076428D01*
X148111428Y-113005000D01*
X148040000Y-112862142D01*
X148040000Y-112576428D01*
X148111428Y-112433571D01*
X148182857Y-112362142D01*
X148325714Y-112290714D01*
X147468571Y-113647857D02*
X147468571Y-114576428D01*
X148040000Y-114076428D01*
X148040000Y-114290714D01*
X148111428Y-114433571D01*
X148182857Y-114505000D01*
X148325714Y-114576428D01*
X148682857Y-114576428D01*
X148825714Y-114505000D01*
X148897142Y-114433571D01*
X148968571Y-114290714D01*
X148968571Y-113862142D01*
X148897142Y-113719285D01*
X148825714Y-113647857D01*
D13*
X108253333Y-103562083D02*
X106853333Y-103562083D01*
X107453333Y-104428750D02*
X107386666Y-104295416D01*
X107320000Y-104228750D01*
X107186666Y-104162083D01*
X107120000Y-104162083D01*
X106986666Y-104228750D01*
X106920000Y-104295416D01*
X106853333Y-104428750D01*
X106853333Y-104695416D01*
X106920000Y-104828750D01*
X106986666Y-104895416D01*
X107120000Y-104962083D01*
X107186666Y-104962083D01*
X107320000Y-104895416D01*
X107386666Y-104828750D01*
X107453333Y-104695416D01*
X107453333Y-104428750D01*
X107520000Y-104295416D01*
X107586666Y-104228750D01*
X107720000Y-104162083D01*
X107986666Y-104162083D01*
X108120000Y-104228750D01*
X108186666Y-104295416D01*
X108253333Y-104428750D01*
X108253333Y-104695416D01*
X108186666Y-104828750D01*
X108120000Y-104895416D01*
X107986666Y-104962083D01*
X107720000Y-104962083D01*
X107586666Y-104895416D01*
X107520000Y-104828750D01*
X107453333Y-104695416D01*
X106853333Y-105428750D02*
X106853333Y-106295416D01*
X107386666Y-105828750D01*
X107386666Y-106028750D01*
X107453333Y-106162083D01*
X107520000Y-106228750D01*
X107653333Y-106295416D01*
X107986666Y-106295416D01*
X108120000Y-106228750D01*
X108186666Y-106162083D01*
X108253333Y-106028750D01*
X108253333Y-105628750D01*
X108186666Y-105495416D01*
X108120000Y-105428750D01*
X106786666Y-107895416D02*
X108586666Y-106695416D01*
X106920000Y-109095416D02*
X106853333Y-108962083D01*
X106853333Y-108762083D01*
X106920000Y-108562083D01*
X107053333Y-108428750D01*
X107186666Y-108362083D01*
X107453333Y-108295416D01*
X107653333Y-108295416D01*
X107920000Y-108362083D01*
X108053333Y-108428750D01*
X108186666Y-108562083D01*
X108253333Y-108762083D01*
X108253333Y-108895416D01*
X108186666Y-109095416D01*
X108120000Y-109162083D01*
X107653333Y-109162083D01*
X107653333Y-108895416D01*
X108120000Y-110562083D02*
X108186666Y-110495416D01*
X108253333Y-110295416D01*
X108253333Y-110162083D01*
X108186666Y-109962083D01*
X108053333Y-109828750D01*
X107920000Y-109762083D01*
X107653333Y-109695416D01*
X107453333Y-109695416D01*
X107186666Y-109762083D01*
X107053333Y-109828750D01*
X106920000Y-109962083D01*
X106853333Y-110162083D01*
X106853333Y-110295416D01*
X106920000Y-110495416D01*
X106986666Y-110562083D01*
X108253333Y-111828750D02*
X108253333Y-111162083D01*
X106853333Y-111162083D01*
X108253333Y-112295416D02*
X106853333Y-112295416D01*
X108253333Y-113095416D02*
X107453333Y-112495416D01*
X106853333Y-113095416D02*
X107653333Y-112295416D01*
X108253333Y-114428750D02*
X108253333Y-113628750D01*
X108253333Y-114028750D02*
X106853333Y-114028750D01*
X107053333Y-113895416D01*
X107186666Y-113762083D01*
X107253333Y-113628750D01*
D11*
X118488571Y-110862142D02*
X116988571Y-110862142D01*
X116988571Y-111433571D01*
X117060000Y-111576428D01*
X117131428Y-111647857D01*
X117274285Y-111719285D01*
X117488571Y-111719285D01*
X117631428Y-111647857D01*
X117702857Y-111576428D01*
X117774285Y-111433571D01*
X117774285Y-110862142D01*
X116988571Y-112219285D02*
X116988571Y-113219285D01*
X118488571Y-112576428D01*
X116988571Y-113647857D02*
X116988571Y-114647857D01*
X118488571Y-114005000D01*
X113408571Y-110862142D02*
X111908571Y-110862142D01*
X111908571Y-111433571D01*
X111980000Y-111576428D01*
X112051428Y-111647857D01*
X112194285Y-111719285D01*
X112408571Y-111719285D01*
X112551428Y-111647857D01*
X112622857Y-111576428D01*
X112694285Y-111433571D01*
X112694285Y-110862142D01*
X112551428Y-112576428D02*
X112480000Y-112433571D01*
X112408571Y-112362142D01*
X112265714Y-112290714D01*
X112194285Y-112290714D01*
X112051428Y-112362142D01*
X111980000Y-112433571D01*
X111908571Y-112576428D01*
X111908571Y-112862142D01*
X111980000Y-113005000D01*
X112051428Y-113076428D01*
X112194285Y-113147857D01*
X112265714Y-113147857D01*
X112408571Y-113076428D01*
X112480000Y-113005000D01*
X112551428Y-112862142D01*
X112551428Y-112576428D01*
X112622857Y-112433571D01*
X112694285Y-112362142D01*
X112837142Y-112290714D01*
X113122857Y-112290714D01*
X113265714Y-112362142D01*
X113337142Y-112433571D01*
X113408571Y-112576428D01*
X113408571Y-112862142D01*
X113337142Y-113005000D01*
X113265714Y-113076428D01*
X113122857Y-113147857D01*
X112837142Y-113147857D01*
X112694285Y-113076428D01*
X112622857Y-113005000D01*
X112551428Y-112862142D01*
X111908571Y-114076428D02*
X111908571Y-114219285D01*
X111980000Y-114362142D01*
X112051428Y-114433571D01*
X112194285Y-114505000D01*
X112480000Y-114576428D01*
X112837142Y-114576428D01*
X113122857Y-114505000D01*
X113265714Y-114433571D01*
X113337142Y-114362142D01*
X113408571Y-114219285D01*
X113408571Y-114076428D01*
X113337142Y-113933571D01*
X113265714Y-113862142D01*
X113122857Y-113790714D01*
X112837142Y-113719285D01*
X112480000Y-113719285D01*
X112194285Y-113790714D01*
X112051428Y-113862142D01*
X111980000Y-113933571D01*
X111908571Y-114076428D01*
X169288571Y-110862142D02*
X167788571Y-110862142D01*
X167788571Y-111433571D01*
X167860000Y-111576428D01*
X167931428Y-111647857D01*
X168074285Y-111719285D01*
X168288571Y-111719285D01*
X168431428Y-111647857D01*
X168502857Y-111576428D01*
X168574285Y-111433571D01*
X168574285Y-110862142D01*
X167788571Y-113076428D02*
X167788571Y-112362142D01*
X168502857Y-112290714D01*
X168431428Y-112362142D01*
X168360000Y-112505000D01*
X168360000Y-112862142D01*
X168431428Y-113005000D01*
X168502857Y-113076428D01*
X168645714Y-113147857D01*
X169002857Y-113147857D01*
X169145714Y-113076428D01*
X169217142Y-113005000D01*
X169288571Y-112862142D01*
X169288571Y-112505000D01*
X169217142Y-112362142D01*
X169145714Y-112290714D01*
X168288571Y-114433571D02*
X169288571Y-114433571D01*
X167717142Y-114076428D02*
X168788571Y-113719285D01*
X168788571Y-114647857D01*
X136268571Y-110862142D02*
X134768571Y-110862142D01*
X134768571Y-111433571D01*
X134840000Y-111576428D01*
X134911428Y-111647857D01*
X135054285Y-111719285D01*
X135268571Y-111719285D01*
X135411428Y-111647857D01*
X135482857Y-111576428D01*
X135554285Y-111433571D01*
X135554285Y-110862142D01*
X134768571Y-113005000D02*
X134768571Y-112719285D01*
X134840000Y-112576428D01*
X134911428Y-112505000D01*
X135125714Y-112362142D01*
X135411428Y-112290714D01*
X135982857Y-112290714D01*
X136125714Y-112362142D01*
X136197142Y-112433571D01*
X136268571Y-112576428D01*
X136268571Y-112862142D01*
X136197142Y-113005000D01*
X136125714Y-113076428D01*
X135982857Y-113147857D01*
X135625714Y-113147857D01*
X135482857Y-113076428D01*
X135411428Y-113005000D01*
X135340000Y-112862142D01*
X135340000Y-112576428D01*
X135411428Y-112433571D01*
X135482857Y-112362142D01*
X135625714Y-112290714D01*
X136268571Y-113862142D02*
X136268571Y-114147857D01*
X136197142Y-114290714D01*
X136125714Y-114362142D01*
X135911428Y-114505000D01*
X135625714Y-114576428D01*
X135054285Y-114576428D01*
X134911428Y-114505000D01*
X134840000Y-114433571D01*
X134768571Y-114290714D01*
X134768571Y-114005000D01*
X134840000Y-113862142D01*
X134911428Y-113790714D01*
X135054285Y-113719285D01*
X135411428Y-113719285D01*
X135554285Y-113790714D01*
X135625714Y-113862142D01*
X135697142Y-114005000D01*
X135697142Y-114290714D01*
X135625714Y-114433571D01*
X135554285Y-114505000D01*
X135411428Y-114576428D01*
X121028571Y-110862142D02*
X119528571Y-110862142D01*
X119528571Y-111433571D01*
X119600000Y-111576428D01*
X119671428Y-111647857D01*
X119814285Y-111719285D01*
X120028571Y-111719285D01*
X120171428Y-111647857D01*
X120242857Y-111576428D01*
X120314285Y-111433571D01*
X120314285Y-110862142D01*
X119528571Y-112219285D02*
X119528571Y-113219285D01*
X121028571Y-112576428D01*
X119528571Y-114433571D02*
X119528571Y-114147857D01*
X119600000Y-114005000D01*
X119671428Y-113933571D01*
X119885714Y-113790714D01*
X120171428Y-113719285D01*
X120742857Y-113719285D01*
X120885714Y-113790714D01*
X120957142Y-113862142D01*
X121028571Y-114005000D01*
X121028571Y-114290714D01*
X120957142Y-114433571D01*
X120885714Y-114505000D01*
X120742857Y-114576428D01*
X120385714Y-114576428D01*
X120242857Y-114505000D01*
X120171428Y-114433571D01*
X120100000Y-114290714D01*
X120100000Y-114005000D01*
X120171428Y-113862142D01*
X120242857Y-113790714D01*
X120385714Y-113719285D01*
X133728571Y-110862142D02*
X132228571Y-110862142D01*
X132228571Y-111433571D01*
X132300000Y-111576428D01*
X132371428Y-111647857D01*
X132514285Y-111719285D01*
X132728571Y-111719285D01*
X132871428Y-111647857D01*
X132942857Y-111576428D01*
X133014285Y-111433571D01*
X133014285Y-110862142D01*
X132228571Y-112219285D02*
X132228571Y-113219285D01*
X133728571Y-112576428D01*
X132228571Y-114076428D02*
X132228571Y-114219285D01*
X132300000Y-114362142D01*
X132371428Y-114433571D01*
X132514285Y-114505000D01*
X132800000Y-114576428D01*
X133157142Y-114576428D01*
X133442857Y-114505000D01*
X133585714Y-114433571D01*
X133657142Y-114362142D01*
X133728571Y-114219285D01*
X133728571Y-114076428D01*
X133657142Y-113933571D01*
X133585714Y-113862142D01*
X133442857Y-113790714D01*
X133157142Y-113719285D01*
X132800000Y-113719285D01*
X132514285Y-113790714D01*
X132371428Y-113862142D01*
X132300000Y-113933571D01*
X132228571Y-114076428D01*
X179448571Y-110862142D02*
X177948571Y-110862142D01*
X177948571Y-111433571D01*
X178020000Y-111576428D01*
X178091428Y-111647857D01*
X178234285Y-111719285D01*
X178448571Y-111719285D01*
X178591428Y-111647857D01*
X178662857Y-111576428D01*
X178734285Y-111433571D01*
X178734285Y-110862142D01*
X178448571Y-113005000D02*
X179448571Y-113005000D01*
X177877142Y-112647857D02*
X178948571Y-112290714D01*
X178948571Y-113219285D01*
X179448571Y-113862142D02*
X179448571Y-114147857D01*
X179377142Y-114290714D01*
X179305714Y-114362142D01*
X179091428Y-114505000D01*
X178805714Y-114576428D01*
X178234285Y-114576428D01*
X178091428Y-114505000D01*
X178020000Y-114433571D01*
X177948571Y-114290714D01*
X177948571Y-114005000D01*
X178020000Y-113862142D01*
X178091428Y-113790714D01*
X178234285Y-113719285D01*
X178591428Y-113719285D01*
X178734285Y-113790714D01*
X178805714Y-113862142D01*
X178877142Y-114005000D01*
X178877142Y-114290714D01*
X178805714Y-114433571D01*
X178734285Y-114505000D01*
X178591428Y-114576428D01*
X123568571Y-110862142D02*
X122068571Y-110862142D01*
X122068571Y-111433571D01*
X122140000Y-111576428D01*
X122211428Y-111647857D01*
X122354285Y-111719285D01*
X122568571Y-111719285D01*
X122711428Y-111647857D01*
X122782857Y-111576428D01*
X122854285Y-111433571D01*
X122854285Y-110862142D01*
X122068571Y-112219285D02*
X122068571Y-113219285D01*
X123568571Y-112576428D01*
X122068571Y-114505000D02*
X122068571Y-113790714D01*
X122782857Y-113719285D01*
X122711428Y-113790714D01*
X122640000Y-113933571D01*
X122640000Y-114290714D01*
X122711428Y-114433571D01*
X122782857Y-114505000D01*
X122925714Y-114576428D01*
X123282857Y-114576428D01*
X123425714Y-114505000D01*
X123497142Y-114433571D01*
X123568571Y-114290714D01*
X123568571Y-113933571D01*
X123497142Y-113790714D01*
X123425714Y-113719285D01*
X115948571Y-110862142D02*
X114448571Y-110862142D01*
X114448571Y-111433571D01*
X114520000Y-111576428D01*
X114591428Y-111647857D01*
X114734285Y-111719285D01*
X114948571Y-111719285D01*
X115091428Y-111647857D01*
X115162857Y-111576428D01*
X115234285Y-111433571D01*
X115234285Y-110862142D01*
X114448571Y-112219285D02*
X114448571Y-113219285D01*
X115948571Y-112576428D01*
X115948571Y-113862142D02*
X115948571Y-114147857D01*
X115877142Y-114290714D01*
X115805714Y-114362142D01*
X115591428Y-114505000D01*
X115305714Y-114576428D01*
X114734285Y-114576428D01*
X114591428Y-114505000D01*
X114520000Y-114433571D01*
X114448571Y-114290714D01*
X114448571Y-114005000D01*
X114520000Y-113862142D01*
X114591428Y-113790714D01*
X114734285Y-113719285D01*
X115091428Y-113719285D01*
X115234285Y-113790714D01*
X115305714Y-113862142D01*
X115377142Y-114005000D01*
X115377142Y-114290714D01*
X115305714Y-114433571D01*
X115234285Y-114505000D01*
X115091428Y-114576428D01*
D10*
X146257619Y-74860357D02*
X146257619Y-74288928D01*
X145257619Y-74574642D02*
X146257619Y-74574642D01*
X145257619Y-73955595D02*
X146257619Y-73955595D01*
X146257619Y-73717500D01*
X146210000Y-73574642D01*
X146114761Y-73479404D01*
X146019523Y-73431785D01*
X145829047Y-73384166D01*
X145686190Y-73384166D01*
X145495714Y-73431785D01*
X145400476Y-73479404D01*
X145305238Y-73574642D01*
X145257619Y-73717500D01*
X145257619Y-73955595D01*
X145257619Y-72955595D02*
X146257619Y-72955595D01*
D11*
X171828571Y-110862142D02*
X170328571Y-110862142D01*
X170328571Y-111433571D01*
X170400000Y-111576428D01*
X170471428Y-111647857D01*
X170614285Y-111719285D01*
X170828571Y-111719285D01*
X170971428Y-111647857D01*
X171042857Y-111576428D01*
X171114285Y-111433571D01*
X171114285Y-110862142D01*
X170328571Y-113076428D02*
X170328571Y-112362142D01*
X171042857Y-112290714D01*
X170971428Y-112362142D01*
X170900000Y-112505000D01*
X170900000Y-112862142D01*
X170971428Y-113005000D01*
X171042857Y-113076428D01*
X171185714Y-113147857D01*
X171542857Y-113147857D01*
X171685714Y-113076428D01*
X171757142Y-113005000D01*
X171828571Y-112862142D01*
X171828571Y-112505000D01*
X171757142Y-112362142D01*
X171685714Y-112290714D01*
X170471428Y-113719285D02*
X170400000Y-113790714D01*
X170328571Y-113933571D01*
X170328571Y-114290714D01*
X170400000Y-114433571D01*
X170471428Y-114505000D01*
X170614285Y-114576428D01*
X170757142Y-114576428D01*
X170971428Y-114505000D01*
X171828571Y-113647857D01*
X171828571Y-114576428D01*
X110868571Y-102222142D02*
X109368571Y-102222142D01*
X109368571Y-102793571D01*
X109440000Y-102936428D01*
X109511428Y-103007857D01*
X109654285Y-103079285D01*
X109868571Y-103079285D01*
X110011428Y-103007857D01*
X110082857Y-102936428D01*
X110154285Y-102793571D01*
X110154285Y-102222142D01*
X110011428Y-103936428D02*
X109940000Y-103793571D01*
X109868571Y-103722142D01*
X109725714Y-103650714D01*
X109654285Y-103650714D01*
X109511428Y-103722142D01*
X109440000Y-103793571D01*
X109368571Y-103936428D01*
X109368571Y-104222142D01*
X109440000Y-104365000D01*
X109511428Y-104436428D01*
X109654285Y-104507857D01*
X109725714Y-104507857D01*
X109868571Y-104436428D01*
X109940000Y-104365000D01*
X110011428Y-104222142D01*
X110011428Y-103936428D01*
X110082857Y-103793571D01*
X110154285Y-103722142D01*
X110297142Y-103650714D01*
X110582857Y-103650714D01*
X110725714Y-103722142D01*
X110797142Y-103793571D01*
X110868571Y-103936428D01*
X110868571Y-104222142D01*
X110797142Y-104365000D01*
X110725714Y-104436428D01*
X110582857Y-104507857D01*
X110297142Y-104507857D01*
X110154285Y-104436428D01*
X110082857Y-104365000D01*
X110011428Y-104222142D01*
X110868571Y-105936428D02*
X110868571Y-105079285D01*
X110868571Y-105507857D02*
X109368571Y-105507857D01*
X109582857Y-105365000D01*
X109725714Y-105222142D01*
X109797142Y-105079285D01*
X109297142Y-107650714D02*
X111225714Y-106365000D01*
X109440000Y-108936428D02*
X109368571Y-108793571D01*
X109368571Y-108579285D01*
X109440000Y-108365000D01*
X109582857Y-108222142D01*
X109725714Y-108150714D01*
X110011428Y-108079285D01*
X110225714Y-108079285D01*
X110511428Y-108150714D01*
X110654285Y-108222142D01*
X110797142Y-108365000D01*
X110868571Y-108579285D01*
X110868571Y-108722142D01*
X110797142Y-108936428D01*
X110725714Y-109007857D01*
X110225714Y-109007857D01*
X110225714Y-108722142D01*
X110725714Y-110507857D02*
X110797142Y-110436428D01*
X110868571Y-110222142D01*
X110868571Y-110079285D01*
X110797142Y-109865000D01*
X110654285Y-109722142D01*
X110511428Y-109650714D01*
X110225714Y-109579285D01*
X110011428Y-109579285D01*
X109725714Y-109650714D01*
X109582857Y-109722142D01*
X109440000Y-109865000D01*
X109368571Y-110079285D01*
X109368571Y-110222142D01*
X109440000Y-110436428D01*
X109511428Y-110507857D01*
X110868571Y-111865000D02*
X110868571Y-111150714D01*
X109368571Y-111150714D01*
X110868571Y-112365000D02*
X109368571Y-112365000D01*
X110868571Y-113222142D02*
X110011428Y-112579285D01*
X109368571Y-113222142D02*
X110225714Y-112365000D01*
X109368571Y-113722142D02*
X109368571Y-114650714D01*
X109940000Y-114150714D01*
X109940000Y-114365000D01*
X110011428Y-114507857D01*
X110082857Y-114579285D01*
X110225714Y-114650714D01*
X110582857Y-114650714D01*
X110725714Y-114579285D01*
X110797142Y-114507857D01*
X110868571Y-114365000D01*
X110868571Y-113936428D01*
X110797142Y-113793571D01*
X110725714Y-113722142D01*
X154048571Y-110862142D02*
X152548571Y-110862142D01*
X152548571Y-111433571D01*
X152620000Y-111576428D01*
X152691428Y-111647857D01*
X152834285Y-111719285D01*
X153048571Y-111719285D01*
X153191428Y-111647857D01*
X153262857Y-111576428D01*
X153334285Y-111433571D01*
X153334285Y-110862142D01*
X152548571Y-113005000D02*
X152548571Y-112719285D01*
X152620000Y-112576428D01*
X152691428Y-112505000D01*
X152905714Y-112362142D01*
X153191428Y-112290714D01*
X153762857Y-112290714D01*
X153905714Y-112362142D01*
X153977142Y-112433571D01*
X154048571Y-112576428D01*
X154048571Y-112862142D01*
X153977142Y-113005000D01*
X153905714Y-113076428D01*
X153762857Y-113147857D01*
X153405714Y-113147857D01*
X153262857Y-113076428D01*
X153191428Y-113005000D01*
X153120000Y-112862142D01*
X153120000Y-112576428D01*
X153191428Y-112433571D01*
X153262857Y-112362142D01*
X153405714Y-112290714D01*
X154048571Y-114576428D02*
X154048571Y-113719285D01*
X154048571Y-114147857D02*
X152548571Y-114147857D01*
X152762857Y-114005000D01*
X152905714Y-113862142D01*
X152977142Y-113719285D01*
X146428571Y-110862142D02*
X144928571Y-110862142D01*
X144928571Y-111433571D01*
X145000000Y-111576428D01*
X145071428Y-111647857D01*
X145214285Y-111719285D01*
X145428571Y-111719285D01*
X145571428Y-111647857D01*
X145642857Y-111576428D01*
X145714285Y-111433571D01*
X145714285Y-110862142D01*
X144928571Y-113005000D02*
X144928571Y-112719285D01*
X145000000Y-112576428D01*
X145071428Y-112505000D01*
X145285714Y-112362142D01*
X145571428Y-112290714D01*
X146142857Y-112290714D01*
X146285714Y-112362142D01*
X146357142Y-112433571D01*
X146428571Y-112576428D01*
X146428571Y-112862142D01*
X146357142Y-113005000D01*
X146285714Y-113076428D01*
X146142857Y-113147857D01*
X145785714Y-113147857D01*
X145642857Y-113076428D01*
X145571428Y-113005000D01*
X145500000Y-112862142D01*
X145500000Y-112576428D01*
X145571428Y-112433571D01*
X145642857Y-112362142D01*
X145785714Y-112290714D01*
X145428571Y-114433571D02*
X146428571Y-114433571D01*
X144857142Y-114076428D02*
X145928571Y-113719285D01*
X145928571Y-114647857D01*
X143888571Y-110862142D02*
X142388571Y-110862142D01*
X142388571Y-111433571D01*
X142460000Y-111576428D01*
X142531428Y-111647857D01*
X142674285Y-111719285D01*
X142888571Y-111719285D01*
X143031428Y-111647857D01*
X143102857Y-111576428D01*
X143174285Y-111433571D01*
X143174285Y-110862142D01*
X142388571Y-113005000D02*
X142388571Y-112719285D01*
X142460000Y-112576428D01*
X142531428Y-112505000D01*
X142745714Y-112362142D01*
X143031428Y-112290714D01*
X143602857Y-112290714D01*
X143745714Y-112362142D01*
X143817142Y-112433571D01*
X143888571Y-112576428D01*
X143888571Y-112862142D01*
X143817142Y-113005000D01*
X143745714Y-113076428D01*
X143602857Y-113147857D01*
X143245714Y-113147857D01*
X143102857Y-113076428D01*
X143031428Y-113005000D01*
X142960000Y-112862142D01*
X142960000Y-112576428D01*
X143031428Y-112433571D01*
X143102857Y-112362142D01*
X143245714Y-112290714D01*
X142388571Y-114505000D02*
X142388571Y-113790714D01*
X143102857Y-113719285D01*
X143031428Y-113790714D01*
X142960000Y-113933571D01*
X142960000Y-114290714D01*
X143031428Y-114433571D01*
X143102857Y-114505000D01*
X143245714Y-114576428D01*
X143602857Y-114576428D01*
X143745714Y-114505000D01*
X143817142Y-114433571D01*
X143888571Y-114290714D01*
X143888571Y-113933571D01*
X143817142Y-113790714D01*
X143745714Y-113719285D01*
D10*
X141177619Y-75479404D02*
X141177619Y-74907976D01*
X140177619Y-75193690D02*
X141177619Y-75193690D01*
X140177619Y-74574642D02*
X141177619Y-74574642D01*
X140463333Y-74241309D01*
X141177619Y-73907976D01*
X140177619Y-73907976D01*
X140225238Y-73479404D02*
X140177619Y-73336547D01*
X140177619Y-73098452D01*
X140225238Y-73003214D01*
X140272857Y-72955595D01*
X140368095Y-72907976D01*
X140463333Y-72907976D01*
X140558571Y-72955595D01*
X140606190Y-73003214D01*
X140653809Y-73098452D01*
X140701428Y-73288928D01*
X140749047Y-73384166D01*
X140796666Y-73431785D01*
X140891904Y-73479404D01*
X140987142Y-73479404D01*
X141082380Y-73431785D01*
X141130000Y-73384166D01*
X141177619Y-73288928D01*
X141177619Y-73050833D01*
X141130000Y-72907976D01*
X148797619Y-75384166D02*
X148797619Y-74812738D01*
X147797619Y-75098452D02*
X148797619Y-75098452D01*
X147892857Y-73907976D02*
X147845238Y-73955595D01*
X147797619Y-74098452D01*
X147797619Y-74193690D01*
X147845238Y-74336547D01*
X147940476Y-74431785D01*
X148035714Y-74479404D01*
X148226190Y-74527023D01*
X148369047Y-74527023D01*
X148559523Y-74479404D01*
X148654761Y-74431785D01*
X148750000Y-74336547D01*
X148797619Y-74193690D01*
X148797619Y-74098452D01*
X148750000Y-73955595D01*
X148702380Y-73907976D01*
X147797619Y-73479404D02*
X148797619Y-73479404D01*
X147797619Y-72907976D02*
X148369047Y-73336547D01*
X148797619Y-72907976D02*
X148226190Y-73479404D01*
D11*
X159128571Y-110862142D02*
X157628571Y-110862142D01*
X157628571Y-111433571D01*
X157700000Y-111576428D01*
X157771428Y-111647857D01*
X157914285Y-111719285D01*
X158128571Y-111719285D01*
X158271428Y-111647857D01*
X158342857Y-111576428D01*
X158414285Y-111433571D01*
X158414285Y-110862142D01*
X157628571Y-113076428D02*
X157628571Y-112362142D01*
X158342857Y-112290714D01*
X158271428Y-112362142D01*
X158200000Y-112505000D01*
X158200000Y-112862142D01*
X158271428Y-113005000D01*
X158342857Y-113076428D01*
X158485714Y-113147857D01*
X158842857Y-113147857D01*
X158985714Y-113076428D01*
X159057142Y-113005000D01*
X159128571Y-112862142D01*
X159128571Y-112505000D01*
X159057142Y-112362142D01*
X158985714Y-112290714D01*
X158271428Y-114005000D02*
X158200000Y-113862142D01*
X158128571Y-113790714D01*
X157985714Y-113719285D01*
X157914285Y-113719285D01*
X157771428Y-113790714D01*
X157700000Y-113862142D01*
X157628571Y-114005000D01*
X157628571Y-114290714D01*
X157700000Y-114433571D01*
X157771428Y-114505000D01*
X157914285Y-114576428D01*
X157985714Y-114576428D01*
X158128571Y-114505000D01*
X158200000Y-114433571D01*
X158271428Y-114290714D01*
X158271428Y-114005000D01*
X158342857Y-113862142D01*
X158414285Y-113790714D01*
X158557142Y-113719285D01*
X158842857Y-113719285D01*
X158985714Y-113790714D01*
X159057142Y-113862142D01*
X159128571Y-114005000D01*
X159128571Y-114290714D01*
X159057142Y-114433571D01*
X158985714Y-114505000D01*
X158842857Y-114576428D01*
X158557142Y-114576428D01*
X158414285Y-114505000D01*
X158342857Y-114433571D01*
X158271428Y-114290714D01*
D10*
X106216666Y-73697142D02*
X106264285Y-73744761D01*
X106407142Y-73792380D01*
X106502380Y-73792380D01*
X106645238Y-73744761D01*
X106740476Y-73649523D01*
X106788095Y-73554285D01*
X106835714Y-73363809D01*
X106835714Y-73220952D01*
X106788095Y-73030476D01*
X106740476Y-72935238D01*
X106645238Y-72840000D01*
X106502380Y-72792380D01*
X106407142Y-72792380D01*
X106264285Y-72840000D01*
X106216666Y-72887619D01*
X105740476Y-73792380D02*
X105550000Y-73792380D01*
X105454761Y-73744761D01*
X105407142Y-73697142D01*
X105311904Y-73554285D01*
X105264285Y-73363809D01*
X105264285Y-72982857D01*
X105311904Y-72887619D01*
X105359523Y-72840000D01*
X105454761Y-72792380D01*
X105645238Y-72792380D01*
X105740476Y-72840000D01*
X105788095Y-72887619D01*
X105835714Y-72982857D01*
X105835714Y-73220952D01*
X105788095Y-73316190D01*
X105740476Y-73363809D01*
X105645238Y-73411428D01*
X105454761Y-73411428D01*
X105359523Y-73363809D01*
X105311904Y-73316190D01*
X105264285Y-73220952D01*
X164916666Y-90787142D02*
X164964285Y-90834761D01*
X165107142Y-90882380D01*
X165202380Y-90882380D01*
X165345238Y-90834761D01*
X165440476Y-90739523D01*
X165488095Y-90644285D01*
X165535714Y-90453809D01*
X165535714Y-90310952D01*
X165488095Y-90120476D01*
X165440476Y-90025238D01*
X165345238Y-89930000D01*
X165202380Y-89882380D01*
X165107142Y-89882380D01*
X164964285Y-89930000D01*
X164916666Y-89977619D01*
X164535714Y-89977619D02*
X164488095Y-89930000D01*
X164392857Y-89882380D01*
X164154761Y-89882380D01*
X164059523Y-89930000D01*
X164011904Y-89977619D01*
X163964285Y-90072857D01*
X163964285Y-90168095D01*
X164011904Y-90310952D01*
X164583333Y-90882380D01*
X163964285Y-90882380D01*
X164879166Y-97167142D02*
X164926785Y-97214761D01*
X165069642Y-97262380D01*
X165164880Y-97262380D01*
X165307738Y-97214761D01*
X165402976Y-97119523D01*
X165450595Y-97024285D01*
X165498214Y-96833809D01*
X165498214Y-96690952D01*
X165450595Y-96500476D01*
X165402976Y-96405238D01*
X165307738Y-96310000D01*
X165164880Y-96262380D01*
X165069642Y-96262380D01*
X164926785Y-96310000D01*
X164879166Y-96357619D01*
X163974404Y-96262380D02*
X164450595Y-96262380D01*
X164498214Y-96738571D01*
X164450595Y-96690952D01*
X164355357Y-96643333D01*
X164117261Y-96643333D01*
X164022023Y-96690952D01*
X163974404Y-96738571D01*
X163926785Y-96833809D01*
X163926785Y-97071904D01*
X163974404Y-97167142D01*
X164022023Y-97214761D01*
X164117261Y-97262380D01*
X164355357Y-97262380D01*
X164450595Y-97214761D01*
X164498214Y-97167142D01*
X155736666Y-109207142D02*
X155784285Y-109254761D01*
X155927142Y-109302380D01*
X156022380Y-109302380D01*
X156165238Y-109254761D01*
X156260476Y-109159523D01*
X156308095Y-109064285D01*
X156355714Y-108873809D01*
X156355714Y-108730952D01*
X156308095Y-108540476D01*
X156260476Y-108445238D01*
X156165238Y-108350000D01*
X156022380Y-108302380D01*
X155927142Y-108302380D01*
X155784285Y-108350000D01*
X155736666Y-108397619D01*
X154879523Y-108635714D02*
X154879523Y-109302380D01*
X155117619Y-108254761D02*
X155355714Y-108969047D01*
X154736666Y-108969047D01*
X132666666Y-74407142D02*
X132714285Y-74454761D01*
X132857142Y-74502380D01*
X132952380Y-74502380D01*
X133095238Y-74454761D01*
X133190476Y-74359523D01*
X133238095Y-74264285D01*
X133285714Y-74073809D01*
X133285714Y-73930952D01*
X133238095Y-73740476D01*
X133190476Y-73645238D01*
X133095238Y-73550000D01*
X132952380Y-73502380D01*
X132857142Y-73502380D01*
X132714285Y-73550000D01*
X132666666Y-73597619D01*
X132095238Y-73930952D02*
X132190476Y-73883333D01*
X132238095Y-73835714D01*
X132285714Y-73740476D01*
X132285714Y-73692857D01*
X132238095Y-73597619D01*
X132190476Y-73550000D01*
X132095238Y-73502380D01*
X131904761Y-73502380D01*
X131809523Y-73550000D01*
X131761904Y-73597619D01*
X131714285Y-73692857D01*
X131714285Y-73740476D01*
X131761904Y-73835714D01*
X131809523Y-73883333D01*
X131904761Y-73930952D01*
X132095238Y-73930952D01*
X132190476Y-73978571D01*
X132238095Y-74026190D01*
X132285714Y-74121428D01*
X132285714Y-74311904D01*
X132238095Y-74407142D01*
X132190476Y-74454761D01*
X132095238Y-74502380D01*
X131904761Y-74502380D01*
X131809523Y-74454761D01*
X131761904Y-74407142D01*
X131714285Y-74311904D01*
X131714285Y-74121428D01*
X131761904Y-74026190D01*
X131809523Y-73978571D01*
X131904761Y-73930952D01*
X130216666Y-108347142D02*
X130264285Y-108394761D01*
X130407142Y-108442380D01*
X130502380Y-108442380D01*
X130645238Y-108394761D01*
X130740476Y-108299523D01*
X130788095Y-108204285D01*
X130835714Y-108013809D01*
X130835714Y-107870952D01*
X130788095Y-107680476D01*
X130740476Y-107585238D01*
X130645238Y-107490000D01*
X130502380Y-107442380D01*
X130407142Y-107442380D01*
X130264285Y-107490000D01*
X130216666Y-107537619D01*
X129883333Y-107442380D02*
X129264285Y-107442380D01*
X129597619Y-107823333D01*
X129454761Y-107823333D01*
X129359523Y-107870952D01*
X129311904Y-107918571D01*
X129264285Y-108013809D01*
X129264285Y-108251904D01*
X129311904Y-108347142D01*
X129359523Y-108394761D01*
X129454761Y-108442380D01*
X129740476Y-108442380D01*
X129835714Y-108394761D01*
X129883333Y-108347142D01*
X161636666Y-74404642D02*
X161684285Y-74452261D01*
X161827142Y-74499880D01*
X161922380Y-74499880D01*
X162065238Y-74452261D01*
X162160476Y-74357023D01*
X162208095Y-74261785D01*
X162255714Y-74071309D01*
X162255714Y-73928452D01*
X162208095Y-73737976D01*
X162160476Y-73642738D01*
X162065238Y-73547500D01*
X161922380Y-73499880D01*
X161827142Y-73499880D01*
X161684285Y-73547500D01*
X161636666Y-73595119D01*
X160779523Y-73499880D02*
X160970000Y-73499880D01*
X161065238Y-73547500D01*
X161112857Y-73595119D01*
X161208095Y-73737976D01*
X161255714Y-73928452D01*
X161255714Y-74309404D01*
X161208095Y-74404642D01*
X161160476Y-74452261D01*
X161065238Y-74499880D01*
X160874761Y-74499880D01*
X160779523Y-74452261D01*
X160731904Y-74404642D01*
X160684285Y-74309404D01*
X160684285Y-74071309D01*
X160731904Y-73976071D01*
X160779523Y-73928452D01*
X160874761Y-73880833D01*
X161065238Y-73880833D01*
X161160476Y-73928452D01*
X161208095Y-73976071D01*
X161255714Y-74071309D01*
X145876666Y-85087142D02*
X145924285Y-85134761D01*
X146067142Y-85182380D01*
X146162380Y-85182380D01*
X146305238Y-85134761D01*
X146400476Y-85039523D01*
X146448095Y-84944285D01*
X146495714Y-84753809D01*
X146495714Y-84610952D01*
X146448095Y-84420476D01*
X146400476Y-84325238D01*
X146305238Y-84230000D01*
X146162380Y-84182380D01*
X146067142Y-84182380D01*
X145924285Y-84230000D01*
X145876666Y-84277619D01*
X145543333Y-84182380D02*
X144876666Y-84182380D01*
X145305238Y-85182380D01*
X129354166Y-93227142D02*
X129401785Y-93274761D01*
X129544642Y-93322380D01*
X129639880Y-93322380D01*
X129782738Y-93274761D01*
X129877976Y-93179523D01*
X129925595Y-93084285D01*
X129973214Y-92893809D01*
X129973214Y-92750952D01*
X129925595Y-92560476D01*
X129877976Y-92465238D01*
X129782738Y-92370000D01*
X129639880Y-92322380D01*
X129544642Y-92322380D01*
X129401785Y-92370000D01*
X129354166Y-92417619D01*
X128401785Y-93322380D02*
X128973214Y-93322380D01*
X128687500Y-93322380D02*
X128687500Y-92322380D01*
X128782738Y-92465238D01*
X128877976Y-92560476D01*
X128973214Y-92608095D01*
D14*
X106196267Y-74260000D02*
X105903733Y-74260000D01*
X106196267Y-75280000D02*
X105903733Y-75280000D01*
X164606233Y-91250000D02*
X164898767Y-91250000D01*
X164606233Y-92270000D02*
X164898767Y-92270000D01*
X164566233Y-98660000D02*
X164858767Y-98660000D01*
X164566233Y-97640000D02*
X164858767Y-97640000D01*
X152753733Y-108340000D02*
X153046267Y-108340000D01*
X152753733Y-109360000D02*
X153046267Y-109360000D01*
X131990000Y-76463767D02*
X131990000Y-76171233D01*
X133010000Y-76463767D02*
X133010000Y-76171233D01*
X132240000Y-107826233D02*
X132240000Y-108118767D01*
X131220000Y-107826233D02*
X131220000Y-108118767D01*
X161980000Y-76463767D02*
X161980000Y-76171233D01*
X160960000Y-76463767D02*
X160960000Y-76171233D01*
X146210000Y-81566233D02*
X146210000Y-81858767D01*
X145190000Y-81566233D02*
X145190000Y-81858767D01*
X129333767Y-94810000D02*
X129041233Y-94810000D01*
X129333767Y-93790000D02*
X129041233Y-93790000D01*
%LPC*%
D15*
X153330000Y-71400000D03*
D16*
X150790000Y-71400000D03*
X148250000Y-71400000D03*
X145710000Y-71400000D03*
X143170000Y-71400000D03*
X140630000Y-71400000D03*
D15*
X106510000Y-101940000D03*
D16*
X106510000Y-99400000D03*
X106510000Y-96860000D03*
D15*
X113720000Y-78860000D03*
D16*
X113720000Y-76320000D03*
X113720000Y-73780000D03*
D15*
X100005000Y-119000000D03*
D16*
X100005000Y-116460000D03*
X102545000Y-119000000D03*
X102545000Y-116460000D03*
X105085000Y-119000000D03*
X105085000Y-116460000D03*
X107625000Y-119000000D03*
X107625000Y-116460000D03*
X110165000Y-119000000D03*
X110165000Y-116460000D03*
X112705000Y-119000000D03*
X112705000Y-116460000D03*
X115245000Y-119000000D03*
X115245000Y-116460000D03*
X117785000Y-119000000D03*
X117785000Y-116460000D03*
X120325000Y-119000000D03*
X120325000Y-116460000D03*
X122865000Y-119000000D03*
X122865000Y-116460000D03*
X125405000Y-119000000D03*
X125405000Y-116460000D03*
X127945000Y-119000000D03*
X127945000Y-116460000D03*
X130485000Y-119000000D03*
X130485000Y-116460000D03*
X133025000Y-119000000D03*
X133025000Y-116460000D03*
X135565000Y-119000000D03*
X135565000Y-116460000D03*
X138105000Y-119000000D03*
X138105000Y-116460000D03*
X140645000Y-119000000D03*
X140645000Y-116460000D03*
X143185000Y-119000000D03*
X143185000Y-116460000D03*
X145725000Y-119000000D03*
X145725000Y-116460000D03*
X148265000Y-119000000D03*
X148265000Y-116460000D03*
X150805000Y-119000000D03*
X150805000Y-116460000D03*
X153345000Y-119000000D03*
X153345000Y-116460000D03*
X155885000Y-119000000D03*
X155885000Y-116460000D03*
X158425000Y-119000000D03*
X158425000Y-116460000D03*
X160965000Y-119000000D03*
X160965000Y-116460000D03*
X163505000Y-119000000D03*
X163505000Y-116460000D03*
X166045000Y-119000000D03*
X166045000Y-116460000D03*
X168585000Y-119000000D03*
X168585000Y-116460000D03*
X171125000Y-119000000D03*
X171125000Y-116460000D03*
X173665000Y-119000000D03*
X173665000Y-116460000D03*
X176205000Y-119000000D03*
X176205000Y-116460000D03*
X178745000Y-119000000D03*
X178745000Y-116460000D03*
X181285000Y-119000000D03*
X181285000Y-116460000D03*
X183825000Y-119000000D03*
X183825000Y-116460000D03*
X186365000Y-119000000D03*
X186365000Y-116460000D03*
X188905000Y-119000000D03*
X188905000Y-116460000D03*
X191445000Y-119000000D03*
X191445000Y-116460000D03*
X193985000Y-119000000D03*
X193985000Y-116460000D03*
D17*
X131740000Y-91770000D03*
D18*
X134280000Y-91770000D03*
X131740000Y-94310000D03*
X134280000Y-94310000D03*
X131740000Y-96850000D03*
X134280000Y-96850000D03*
X131740000Y-99390000D03*
X134280000Y-99390000D03*
X131740000Y-101930000D03*
X134280000Y-101930000D03*
X131740000Y-104470000D03*
X134280000Y-107010000D03*
X134280000Y-104470000D03*
X136820000Y-107010000D03*
X136820000Y-104470000D03*
X139360000Y-107010000D03*
X139360000Y-104470000D03*
X141900000Y-107010000D03*
X141900000Y-104470000D03*
X144440000Y-107010000D03*
X144440000Y-104470000D03*
X146980000Y-107010000D03*
X146980000Y-104470000D03*
X149520000Y-107010000D03*
X149520000Y-104470000D03*
X152060000Y-107010000D03*
X152060000Y-104470000D03*
X154600000Y-107010000D03*
X154600000Y-104470000D03*
X157140000Y-107010000D03*
X157140000Y-104470000D03*
X159680000Y-107010000D03*
X162220000Y-104470000D03*
X159680000Y-104470000D03*
X162220000Y-101930000D03*
X159680000Y-101930000D03*
X162220000Y-99390000D03*
X159680000Y-99390000D03*
X162220000Y-96850000D03*
X159680000Y-96850000D03*
X162220000Y-94310000D03*
X159680000Y-94310000D03*
X162220000Y-91770000D03*
X159680000Y-91770000D03*
X162220000Y-89230000D03*
X159680000Y-89230000D03*
X162220000Y-86690000D03*
X159680000Y-86690000D03*
X162220000Y-84150000D03*
X159680000Y-84150000D03*
X162220000Y-81610000D03*
X159680000Y-81610000D03*
X162220000Y-79070000D03*
X159680000Y-76530000D03*
X159680000Y-79070000D03*
X157140000Y-76530000D03*
X157140000Y-79070000D03*
X154600000Y-76530000D03*
X154600000Y-79070000D03*
X152060000Y-76530000D03*
X152060000Y-79070000D03*
X149520000Y-76530000D03*
X149520000Y-79070000D03*
X146980000Y-76530000D03*
X146980000Y-79070000D03*
X144440000Y-76530000D03*
X144440000Y-79070000D03*
X141900000Y-76530000D03*
X141900000Y-79070000D03*
X139360000Y-76530000D03*
X139360000Y-79070000D03*
X136820000Y-76530000D03*
X136820000Y-79070000D03*
X134280000Y-76530000D03*
X131740000Y-79070000D03*
X134280000Y-79070000D03*
X131740000Y-81610000D03*
X134280000Y-81610000D03*
X131740000Y-84150000D03*
X134280000Y-84150000D03*
X131740000Y-86690000D03*
X134280000Y-86690000D03*
X131740000Y-89230000D03*
X134280000Y-89230000D03*
D19*
X101360000Y-74770000D03*
D20*
X101360000Y-82390000D03*
X108980000Y-82390000D03*
X108980000Y-74770000D03*
D21*
X106912500Y-74770000D03*
X105187500Y-74770000D03*
D22*
X163890000Y-91760000D03*
X165615000Y-91760000D03*
X163850000Y-98150000D03*
X165575000Y-98150000D03*
X152037500Y-108850000D03*
X153762500Y-108850000D03*
D23*
X132500000Y-77180000D03*
X132500000Y-75455000D03*
D24*
X131730000Y-107110000D03*
X131730000Y-108835000D03*
D23*
X161470000Y-77180000D03*
X161470000Y-75455000D03*
D24*
X145700000Y-80850000D03*
X145700000Y-82575000D03*
D21*
X130050000Y-94300000D03*
X128325000Y-94300000D03*
M02*
