G04 #@! TF.GenerationSoftware,KiCad,Pcbnew,6.0.1*
G04 #@! TF.CreationDate,2022-02-14T19:14:06-08:00*
G04 #@! TF.ProjectId,BREAKOUT-ATF1508AS,42524541-4b4f-4555-942d-415446313530,rev?*
G04 #@! TF.SameCoordinates,Original*
G04 #@! TF.FileFunction,Soldermask,Top*
G04 #@! TF.FilePolarity,Negative*
%FSLAX46Y46*%
G04 Gerber Fmt 4.6, Leading zero omitted, Abs format (unit mm)*
G04 Created by KiCad (PCBNEW 6.0.1) date 2022-02-14 19:14:06*
%MOMM*%
%LPD*%
G01*
G04 APERTURE LIST*
G04 Aperture macros list*
%AMRoundRect*
0 Rectangle with rounded corners*
0 $1 Rounding radius*
0 $2 $3 $4 $5 $6 $7 $8 $9 X,Y pos of 4 corners*
0 Add a 4 corners polygon primitive as box body*
4,1,4,$2,$3,$4,$5,$6,$7,$8,$9,$2,$3,0*
0 Add four circle primitives for the rounded corners*
1,1,$1+$1,$2,$3*
1,1,$1+$1,$4,$5*
1,1,$1+$1,$6,$7*
1,1,$1+$1,$8,$9*
0 Add four rect primitives between the rounded corners*
20,1,$1+$1,$2,$3,$4,$5,0*
20,1,$1+$1,$4,$5,$6,$7,0*
20,1,$1+$1,$6,$7,$8,$9,0*
20,1,$1+$1,$8,$9,$2,$3,0*%
G04 Aperture macros list end*
%ADD10RoundRect,0.237500X-0.250000X-0.237500X0.250000X-0.237500X0.250000X0.237500X-0.250000X0.237500X0*%
%ADD11R,1.700000X1.700000*%
%ADD12O,1.700000X1.700000*%
%ADD13R,1.000000X1.000000*%
%ADD14RoundRect,0.250001X-0.849999X0.462499X-0.849999X-0.462499X0.849999X-0.462499X0.849999X0.462499X0*%
%ADD15RoundRect,0.237500X0.250000X0.237500X-0.250000X0.237500X-0.250000X-0.237500X0.250000X-0.237500X0*%
%ADD16RoundRect,0.237500X-0.237500X0.300000X-0.237500X-0.300000X0.237500X-0.300000X0.237500X0.300000X0*%
%ADD17RoundRect,0.150000X0.150000X-0.512500X0.150000X0.512500X-0.150000X0.512500X-0.150000X-0.512500X0*%
%ADD18R,1.422400X1.422400*%
%ADD19C,1.422400*%
%ADD20R,1.600000X1.600000*%
%ADD21C,1.600000*%
G04 APERTURE END LIST*
D10*
X102075000Y-94290000D03*
X103900000Y-94290000D03*
X102077500Y-95810000D03*
X103902500Y-95810000D03*
D11*
X153330000Y-71400000D03*
D12*
X150790000Y-71400000D03*
X148250000Y-71400000D03*
X145710000Y-71400000D03*
X143170000Y-71400000D03*
X140630000Y-71400000D03*
D13*
X100325000Y-94270000D03*
X100325000Y-91770000D03*
D14*
X99925000Y-87670000D03*
X99925000Y-89995000D03*
D15*
X103892500Y-92300000D03*
X102067500Y-92300000D03*
D16*
X105550000Y-87820000D03*
X105550000Y-89545000D03*
D11*
X106510000Y-101940000D03*
D12*
X106510000Y-99400000D03*
X106510000Y-96860000D03*
D17*
X102105000Y-89967500D03*
X103055000Y-89967500D03*
X104005000Y-89967500D03*
X104005000Y-87692500D03*
X102105000Y-87692500D03*
D11*
X113720000Y-78860000D03*
D12*
X113720000Y-76320000D03*
X113720000Y-73780000D03*
D16*
X100330000Y-95867500D03*
X100330000Y-97592500D03*
D11*
X100005000Y-119000000D03*
D12*
X100005000Y-116460000D03*
X102545000Y-119000000D03*
X102545000Y-116460000D03*
X105085000Y-119000000D03*
X105085000Y-116460000D03*
X107625000Y-119000000D03*
X107625000Y-116460000D03*
X110165000Y-119000000D03*
X110165000Y-116460000D03*
X112705000Y-119000000D03*
X112705000Y-116460000D03*
X115245000Y-119000000D03*
X115245000Y-116460000D03*
X117785000Y-119000000D03*
X117785000Y-116460000D03*
X120325000Y-119000000D03*
X120325000Y-116460000D03*
X122865000Y-119000000D03*
X122865000Y-116460000D03*
X125405000Y-119000000D03*
X125405000Y-116460000D03*
X127945000Y-119000000D03*
X127945000Y-116460000D03*
X130485000Y-119000000D03*
X130485000Y-116460000D03*
X133025000Y-119000000D03*
X133025000Y-116460000D03*
X135565000Y-119000000D03*
X135565000Y-116460000D03*
X138105000Y-119000000D03*
X138105000Y-116460000D03*
X140645000Y-119000000D03*
X140645000Y-116460000D03*
X143185000Y-119000000D03*
X143185000Y-116460000D03*
X145725000Y-119000000D03*
X145725000Y-116460000D03*
X148265000Y-119000000D03*
X148265000Y-116460000D03*
X150805000Y-119000000D03*
X150805000Y-116460000D03*
X153345000Y-119000000D03*
X153345000Y-116460000D03*
X155885000Y-119000000D03*
X155885000Y-116460000D03*
X158425000Y-119000000D03*
X158425000Y-116460000D03*
X160965000Y-119000000D03*
X160965000Y-116460000D03*
X163505000Y-119000000D03*
X163505000Y-116460000D03*
X166045000Y-119000000D03*
X166045000Y-116460000D03*
X168585000Y-119000000D03*
X168585000Y-116460000D03*
X171125000Y-119000000D03*
X171125000Y-116460000D03*
X173665000Y-119000000D03*
X173665000Y-116460000D03*
X176205000Y-119000000D03*
X176205000Y-116460000D03*
X178745000Y-119000000D03*
X178745000Y-116460000D03*
X181285000Y-119000000D03*
X181285000Y-116460000D03*
X183825000Y-119000000D03*
X183825000Y-116460000D03*
X186365000Y-119000000D03*
X186365000Y-116460000D03*
X188905000Y-119000000D03*
X188905000Y-116460000D03*
X191445000Y-119000000D03*
X191445000Y-116460000D03*
X193985000Y-119000000D03*
X193985000Y-116460000D03*
D18*
X131740000Y-91770000D03*
D19*
X134280000Y-91770000D03*
X131740000Y-94310000D03*
X134280000Y-94310000D03*
X131740000Y-96850000D03*
X134280000Y-96850000D03*
X131740000Y-99390000D03*
X134280000Y-99390000D03*
X131740000Y-101930000D03*
X134280000Y-101930000D03*
X131740000Y-104470000D03*
X134280000Y-107010000D03*
X134280000Y-104470000D03*
X136820000Y-107010000D03*
X136820000Y-104470000D03*
X139360000Y-107010000D03*
X139360000Y-104470000D03*
X141900000Y-107010000D03*
X141900000Y-104470000D03*
X144440000Y-107010000D03*
X144440000Y-104470000D03*
X146980000Y-107010000D03*
X146980000Y-104470000D03*
X149520000Y-107010000D03*
X149520000Y-104470000D03*
X152060000Y-107010000D03*
X152060000Y-104470000D03*
X154600000Y-107010000D03*
X154600000Y-104470000D03*
X157140000Y-107010000D03*
X157140000Y-104470000D03*
X159680000Y-107010000D03*
X162220000Y-104470000D03*
X159680000Y-104470000D03*
X162220000Y-101930000D03*
X159680000Y-101930000D03*
X162220000Y-99390000D03*
X159680000Y-99390000D03*
X162220000Y-96850000D03*
X159680000Y-96850000D03*
X162220000Y-94310000D03*
X159680000Y-94310000D03*
X162220000Y-91770000D03*
X159680000Y-91770000D03*
X162220000Y-89230000D03*
X159680000Y-89230000D03*
X162220000Y-86690000D03*
X159680000Y-86690000D03*
X162220000Y-84150000D03*
X159680000Y-84150000D03*
X162220000Y-81610000D03*
X159680000Y-81610000D03*
X162220000Y-79070000D03*
X159680000Y-76530000D03*
X159680000Y-79070000D03*
X157140000Y-76530000D03*
X157140000Y-79070000D03*
X154600000Y-76530000D03*
X154600000Y-79070000D03*
X152060000Y-76530000D03*
X152060000Y-79070000D03*
X149520000Y-76530000D03*
X149520000Y-79070000D03*
X146980000Y-76530000D03*
X146980000Y-79070000D03*
X144440000Y-76530000D03*
X144440000Y-79070000D03*
X141900000Y-76530000D03*
X141900000Y-79070000D03*
X139360000Y-76530000D03*
X139360000Y-79070000D03*
X136820000Y-76530000D03*
X136820000Y-79070000D03*
X134280000Y-76530000D03*
X131740000Y-79070000D03*
X134280000Y-79070000D03*
X131740000Y-81610000D03*
X134280000Y-81610000D03*
X131740000Y-84150000D03*
X134280000Y-84150000D03*
X131740000Y-86690000D03*
X134280000Y-86690000D03*
X131740000Y-89230000D03*
X134280000Y-89230000D03*
D20*
X101360000Y-74770000D03*
D21*
X101360000Y-82390000D03*
X108980000Y-82390000D03*
X108980000Y-74770000D03*
M02*
